<svg xmlns="http://www.w3.org/2000/svg" width="1200" height="600" data-real-to-screen-transform="matrix(128.5057614389,0,0,-128.5057614389,360.2767855611,195.4981311934)" data-software-used-string="@tscircuit/core@0.0.586" style="background-color:#f5f1ed"><style>.boundary{fill:#f5f1ed}.chip,.component{stroke:#840000}.component{fill:none}.chip{fill:#ffffc2}.component-pin{fill:none;stroke:#840000}.trace:hover .trace-crossing-outline{opacity:0}.trace:hover,.trace:hover .trace-junction{filter:invert(1)}.pin-number{fill:#a90000}</style><rect width="1200" height="600" x="0" y="0" class="boundary"/><g data-circuit-json-type="schematic_component" data-schematic-component-id="schematic_component_0"><rect width="51.402" height="102.805" x="334.576" y="144.096" fill="#FFFFC2" stroke="#840000" stroke-width="2.57" class="component chip"/><rect width="51.402" height="102.805" x="334.576" y="144.096" fill="transparent" class="component-overlay"/><text x="334.576" y="127.39" fill="#006464" dominant-baseline="middle" font-family="sans-serif" font-size="23.131" text-anchor="start" transform="rotate(0, 334.57563327331997, 127.39007763078301)">U5</text><line x1="434.81" x2="385.978" y1="221.199" y2="221.199" stroke-width="2.57" class="component-pin"/><g data-schematic-port-id="source_port_0"><rect width="5.14" height="5.14" x="434.81" y="218.629" opacity="0"/></g><text x="411.679" y="218.629" fill="#A90000" class="pin-number" dominant-baseline="auto" font-size="19.276" text-anchor="middle" style="font-family:sans-serif">1</text><line x1="434.81" x2="385.978" y1="195.498" y2="195.498" stroke-width="2.57" class="component-pin"/><g data-schematic-port-id="source_port_1"><rect width="5.14" height="5.14" x="434.81" y="192.928" opacity="0"/></g><text x="411.679" y="192.928" fill="#A90000" class="pin-number" dominant-baseline="auto" font-size="19.276" text-anchor="middle" style="font-family:sans-serif">2</text><line x1="434.81" x2="385.978" y1="169.797" y2="169.797" stroke-width="2.57" class="component-pin"/><g data-schematic-port-id="source_port_2"><rect width="5.14" height="5.14" x="434.81" y="167.227" opacity="0"/></g><text x="411.679" y="167.227" fill="#A90000" class="pin-number" dominant-baseline="auto" font-size="19.276" text-anchor="middle" style="font-family:sans-serif">3</text></g><g data-circuit-json-type="schematic_component" data-schematic-component-id="schematic_component_1"><rect width="113.239" height="33.087" x="624.891" y="243.249" fill="transparent" class="component-overlay"/><path fill="none" stroke="#840000" stroke-linecap="round" stroke-width="2.57" d="M 658.2590807262005 259.85665649932895 L 624.891390366161 259.85665649932895"/><path fill="none" stroke="#840000" stroke-linecap="round" stroke-width="2.57" d="M 738.1302946794115 259.6363076701895 L 704.9415100404473 259.6363076701895"/><path fill="none" stroke="#840000" stroke-linecap="round" stroke-width="2.57" d="M 690.3977548344144 243.5184725417155 L 690.3977548344144 275.90020244711496"/><path fill="none" stroke="#840000" stroke-linecap="round" stroke-width="2.57" d="M 672.7910776550616 243.50609743688898 L 672.7910776550616 275.8878273422884"/><path fill="none" stroke="#840000" stroke-linecap="round" stroke-width="2.57" d="M 672.1940655885687 276.3197480570608 L 672.1940655885687 276.3197480570608 L 670.1859387954513 275.23684898476426 L 668.3794559640463 274.1142417378434 L 666.7678500694826 272.9560369785849 L 665.3443540868891 271.7663453692755 L 664.1022009913944 270.5492775722018 L 663.0346237581275 269.30894424965055 L 662.1348553622171 268.0494560639084 L 661.3961287787921 266.7749236772621 L 660.8116769829812 265.4894577519984 L 660.3747329499134 264.1971689504038 L 660.0785296547174 262.90216793476515 L 659.9163000725221 261.6085653673691 L 659.8812771784562 260.32047191050236 L 659.9666939476485 259.0419982264516 L 660.1657833552281 257.7772549775035 L 660.4717783763235 256.53035282594476 L 660.8779119860636 255.3054024340621 L 661.3774171595774 254.1065144641422 L 661.9635268719934 252.93779957847173 L 662.6294740984407 251.80336843933742 L 663.368491814048 250.70733170902594 L 664.1738129939441 249.65380004982399 L 665.0386706132579 248.64688412401824 L 665.9562976471182 247.69069459389542 L 666.9199270706537 246.78934212174218 L 667.9227918589933 245.94693736984527 L 668.9581249872658 245.1675910004913 L 670.0191594306002 244.45541367596707 L 671.099128164125 243.8145160585592 L 672.1912641629693 243.2490088105544 L 672.1912641629693 243.2490088105544"/><path fill="none" stroke="#840000" stroke-linecap="round" stroke-width="2.57" d="M 690.9851803711041 276.3360425876112 L 690.9851803711041 276.3360425876112 L 692.9933071642215 275.25314351531466 L 694.7997899956264 274.1305362683938 L 696.4113958901901 272.9723315091353 L 697.8348918727837 271.7826398998259 L 699.0770449682784 270.5655721027522 L 700.1446222015453 269.32523878020095 L 701.0443905974557 268.0657505944588 L 701.7831171808807 266.7912182078125 L 702.3675689766916 265.50575228254877 L 702.8045130097594 264.2134634809542 L 703.1007163049553 262.91846246531554 L 703.2629458871507 261.6248598979195 L 703.2979687812166 260.33676644105276 L 703.2125520120242 259.058292757002 L 703.0134626044447 257.7935495080539 L 702.7074675833493 256.54664735649516 L 702.3013339736092 255.3216969646125 L 701.8018288000954 254.1228089946926 L 701.2157190876793 252.95409410902215 L 700.5497718612321 251.81966296988782 L 699.8107541456247 250.72362623957633 L 699.0054329657287 249.67009458037438 L 698.1405753464148 248.66317865456864 L 697.2229483125546 247.7069891244458 L 696.2593188890191 246.8056366522926 L 695.2564541006794 245.96323190039567 L 694.2211209724069 245.18388553104174 L 693.1600865290726 244.4717082065175 L 692.0801177955477 243.8308105891096 L 690.9879817967035 243.26530334110478 L 690.9879817967035 243.26530334110478"/><text x="678.889" y="236.744" fill="#0F0F0F" dominant-baseline="auto" font-family="sans-serif" font-size="23.131" text-anchor="middle">VE</text></g><g data-circuit-json-type="schematic_component" data-schematic-component-id="schematic_component_2"><rect width="34" height="133.678" x="574.635" y="295.298" fill="transparent" class="component-overlay"/><path fill="none" stroke="#840000" stroke-linecap="round" stroke-width="2.57" d="M 591.6349731449516 343.9751143738571 L 608.6352187854981 377.9755928043739"/><path fill="none" stroke="#840000" stroke-linecap="round" stroke-width="2.57" d="M 574.6347275044046 377.9755928043739 L 591.6349731449516 343.9751143738571"/><path fill="none" stroke="#840000" stroke-linecap="round" stroke-width="2.57" d="M 608.6352187854976 377.9755928043739 L 574.6347275044046 377.9755928043739"/><path fill="none" stroke="#840000" stroke-linecap="round" stroke-width="2.57" d="M 574.6347275044046 343.9751143738571 L 608.6352187854976 343.9751143738571"/><path fill="none" stroke="#840000" stroke-linecap="round" stroke-width="2.57" d="M 591.6349731449516 378.25890945661826 L 591.6349731449516 428.97631687543736"/><path fill="none" stroke="#840000" stroke-linecap="round" stroke-width="2.57" d="M 591.6459218358259 295.29831419380696 L 591.6459218358259 343.32195814019155"/><text x="562.103" y="363.201" fill="#0F0F0F" dominant-baseline="middle" font-family="sans-serif" font-size="23.131" text-anchor="end">D1</text></g><g data-circuit-json-type="schematic_component" data-schematic-component-id="schematic_component_3"><rect width="34" height="136.002" x="574.506" y="88.969" fill="transparent" class="component-overlay"/><path fill="none" stroke="#840000" stroke-linecap="round" stroke-width="2.57" d="M 591.5062681995821 224.97103038402076 L 591.5062681995821 190.97055195350393"/><path fill="none" stroke="#840000" stroke-linecap="round" stroke-width="2.57" d="M 591.5062681995821 122.96959509247 L 591.5062681995821 88.96910381137702"/><path fill="none" stroke="#840000" stroke-linecap="round" stroke-width="2.57" d="M 574.5060225590356 156.97008637356313 L 574.5060225590356 122.96960794304628 L 608.5065138401286 122.96960794304628 L 608.5065138401286 190.97057765465635 L 574.5060225590356 190.97057765465635 L 574.5060225590356 156.97008637356336"/><text x="626.925" y="138.634" fill="#0F0F0F" dominant-baseline="middle" font-family="sans-serif" font-size="23.131" text-anchor="start">R5</text><text x="626.925" y="179.756" fill="#0F0F0F" dominant-baseline="middle" font-family="sans-serif" font-size="23.131" text-anchor="start">100kΩ</text></g><g class="trace" data-circuit-json-type="schematic_trace" data-schematic-trace-id="schematic_trace_0"><path fill="none" stroke="#009600" stroke-linecap="round" stroke-linejoin="round" stroke-width="20.561" d="M 437.38024242444 195.4981311934 L 495.207835071945 195.4981311934 L 495.207835071945 324.0038926323" class="trace-invisible-hover-outline" opacity="0"/><path fill="none" stroke="#009600" stroke-linecap="round" stroke-linejoin="round" stroke-width="2.57" d="M 437.38024242444 195.4981311934 L 495.207835071945 195.4981311934 L 495.207835071945 324.0038926323"/></g><g class="trace" data-circuit-json-type="schematic_trace" data-schematic-trace-id="schematic_trace_1"><path fill="none" stroke="#F5F1ED" stroke-linecap="round" stroke-width="3.855" d="M 500.0268011259038 221.19928348118003 Q 495.20783507194506 214.4527310056378 490.3888690179863 221.19928348118003" class="trace-crossing-outline"/><path fill="none" stroke="#009600" stroke-linecap="round" stroke-width="2.57" d="M 500.0268011259038 221.19928348118003 Q 495.20783507194506 214.4527310056378 490.3888690179863 221.19928348118003"/><path fill="none" stroke="#009600" stroke-linecap="round" stroke-linejoin="round" stroke-width="20.561" d="M 624.2532179042793 259.7430188544885 L 530.8167301643596 259.7430188544885 L 530.8167301643596 221.19928348118003 L 500.0268011259038 221.19928348118003M 490.3888690179863 221.19928348118003 L 437.38024242444 221.19928348118003" class="trace-invisible-hover-outline" opacity="0"/><path fill="none" stroke="#009600" stroke-linecap="round" stroke-linejoin="round" stroke-width="2.57" d="M 624.2532179042793 259.7430188544885 L 530.8167301643596 259.7430188544885 L 530.8167301643596 221.19928348118003 L 500.0268011259038 221.19928348118003M 490.3888690179863 221.19928348118003 L 437.38024242444 221.19928348118003"/></g><g class="trace" data-circuit-json-type="schematic_trace" data-schematic-trace-id="schematic_trace_2"><path fill="none" stroke="#009600" stroke-linecap="round" stroke-linejoin="round" stroke-width="20.561" d="M 738.8291604124208 259.75900497121154 L 771.4952221655801 259.75900497121154 L 771.4952221655801 259.75101191285" class="trace-invisible-hover-outline" opacity="0"/><path fill="none" stroke="#009600" stroke-linecap="round" stroke-linejoin="round" stroke-width="2.57" d="M 738.8291604124208 259.75900497121154 L 771.4952221655801 259.75900497121154 L 771.4952221655801 259.75101191285"/></g><g class="trace" data-circuit-json-type="schematic_trace" data-schematic-trace-id="schematic_trace_3"><path fill="none" stroke="#009600" stroke-linecap="round" stroke-linejoin="round" stroke-width="20.561" d="M 591.652989652705 295.8422276796733 L 591.652989652705 259.7430188544885 L 624.2532179042793 259.7430188544885" class="trace-invisible-hover-outline" opacity="0"/><path fill="none" stroke="#009600" stroke-linecap="round" stroke-linejoin="round" stroke-width="2.57" d="M 591.652989652705 295.8422276796733 L 591.652989652705 259.7430188544885 L 624.2532179042793 259.7430188544885"/><circle cx="591.653" cy="259.743" r="3.855" fill="#009600" class="trace-junction"/></g><g class="trace" data-circuit-json-type="schematic_trace" data-schematic-trace-id="schematic_trace_4"><path fill="none" stroke="#009600" stroke-linecap="round" stroke-linejoin="round" stroke-width="20.561" d="M 591.521322649535 429.26901444826683 L 591.58715615112 429.26901444826683 L 591.58715615112 465.36023021509004" class="trace-invisible-hover-outline" opacity="0"/><path fill="none" stroke="#009600" stroke-linecap="round" stroke-linejoin="round" stroke-width="2.57" d="M 591.521322649535 429.26901444826683 L 591.58715615112 429.26901444826683 L 591.58715615112 465.36023021509004"/></g><g class="trace" data-circuit-json-type="schematic_trace" data-schematic-trace-id="schematic_trace_5"><path fill="none" stroke="#009600" stroke-linecap="round" stroke-linejoin="round" stroke-width="20.561" d="M 591.5520419518069 227.79043393941424 L 591.5520419518069 259.7430188544885 L 624.2532179042793 259.7430188544885" class="trace-invisible-hover-outline" opacity="0"/><path fill="none" stroke="#009600" stroke-linecap="round" stroke-linejoin="round" stroke-width="2.57" d="M 591.5520419518069 227.79043393941424 L 591.5520419518069 259.7430188544885 L 624.2532179042793 259.7430188544885"/><circle cx="591.552" cy="259.743" r="3.855" fill="#009600" class="trace-junction"/><circle cx="591.653" cy="259.743" r="3.855" fill="#009600" class="trace-junction"/></g><g class="trace" data-circuit-json-type="schematic_trace" data-schematic-trace-id="schematic_trace_6"><path fill="none" stroke="#009600" stroke-linecap="round" stroke-linejoin="round" stroke-width="20.561" d="M 591.6222703504332 86.10237158404578 L 591.6222703504332 70.67816879144647 L 452.8044452170393 70.67816879144647 L 452.8044452170393 169.79697890562 L 437.38024242444 169.79697890562" class="trace-invisible-hover-outline" opacity="0"/><path fill="none" stroke="#009600" stroke-linecap="round" stroke-linejoin="round" stroke-width="2.57" d="M 591.6222703504332 86.10237158404578 L 591.6222703504332 70.67816879144647 L 452.8044452170393 70.67816879144647 L 452.8044452170393 169.79697890562 L 437.38024242444 169.79697890562"/></g><g class="schematic-port-hover" data-schematic-port-id="source_port_0"><circle cx="437.38" cy="221.199" r="5.14" fill="red" opacity="0"/></g><g class="schematic-port-hover" data-schematic-port-id="source_port_1"><circle cx="437.38" cy="195.498" r="5.14" fill="red" opacity="0"/></g><g class="schematic-port-hover" data-schematic-port-id="source_port_2"><circle cx="437.38" cy="169.797" r="5.14" fill="red" opacity="0"/></g><g class="schematic-port-hover" data-schematic-port-id="source_port_3"><circle cx="624.253" cy="259.743" r="5.14" fill="red" opacity="0"/></g><g class="schematic-port-hover" data-schematic-port-id="source_port_4"><circle cx="738.829" cy="259.759" r="5.14" fill="red" opacity="0"/></g><g class="schematic-port-hover" data-schematic-port-id="source_port_5"><circle cx="591.521" cy="429.269" r="5.14" fill="red" opacity="0"/></g><g class="schematic-port-hover" data-schematic-port-id="source_port_6"><circle cx="591.653" cy="295.842" r="5.14" fill="red" opacity="0"/></g><g class="schematic-port-hover" data-schematic-port-id="source_port_7"><circle cx="591.552" cy="227.79" r="5.14" fill="red" opacity="0"/></g><g class="schematic-port-hover" data-schematic-port-id="source_port_8"><circle cx="591.622" cy="86.102" r="5.14" fill="red" opacity="0"/></g><rect width="57.74" height="62.123" x="465.621" y="323.865" fill="transparent" class="component-overlay"/><path fill="none" stroke="#840000" stroke-linecap="round" stroke-width="2.57" d="M 495.0682521138701 323.86465663978095 L 495.0682521138701 366.22444770247444"/><path fill="none" stroke="#840000" stroke-linecap="round" stroke-width="2.57" d="M 465.6206685582526 366.2202327134993 L 523.3610443454689 366.2202327134993"/><path fill="none" stroke="#840000" stroke-linecap="round" stroke-width="2.57" d="M 472.83822035062076 376.10417625111546 L 516.1434925531007 376.10417625111546"/><path fill="none" stroke="#840000" stroke-linecap="round" stroke-width="2.57" d="M 487.27331108478086 385.9881197887316 L 501.7084018189409 385.9881197887316"/><text x="492.301" y="401.04" fill="#0F0F0F" dominant-baseline="hanging" font-family="sans-serif" font-size="23.131" text-anchor="middle">GND</text><path fill="rgba(255, 255, 255, 0.6)" stroke="#840000" stroke-width="2.57" d="M 771.4952221655801,259.75101191285 L 778.4345332832808,245.8723896774488 L 888.5554037856555,245.8723896774488 L 888.5554037856555,273.6296341482512 L 778.4345332832808,273.6296341482512 Z" class="net-label"/><text x="783.061" y="259.751" fill="#840000" class="net-label-text" dominant-baseline="central" font-family="sans-serif" font-size="23.131" font-variant-numeric="tabular-nums" text-anchor="start">V3_3_EN</text><rect width="57.74" height="62.123" x="562" y="465.221" fill="transparent" class="component-overlay"/><path fill="none" stroke="#840000" stroke-linecap="round" stroke-width="2.57" d="M 591.4475731930452 465.220994222571 L 591.4475731930452 507.5807852852645"/><path fill="none" stroke="#840000" stroke-linecap="round" stroke-width="2.57" d="M 561.9999896374277 507.57657029628933 L 619.740365424644 507.57657029628933"/><path fill="none" stroke="#840000" stroke-linecap="round" stroke-width="2.57" d="M 569.2175414297958 517.4605138339056 L 612.5228136322758 517.4605138339056"/><path fill="none" stroke="#840000" stroke-linecap="round" stroke-width="2.57" d="M 583.6526321639559 527.3444573715216 L 598.087722898116 527.3444573715216"/><text x="588.68" y="542.396" fill="#0F0F0F" dominant-baseline="hanging" font-family="sans-serif" font-size="23.131" text-anchor="middle">GND</text></svg>