<svg xmlns="http://www.w3.org/2000/svg" width="1200" height="600" data-real-to-screen-transform="matrix(129.249378026,0,0,-129.249378026,306.5349788794,257.7821134881)" data-software-used-string="@tscircuit/core@0.0.586" style="background-color:#f5f1ed"><style>.boundary{fill:#f5f1ed}.chip,.component{stroke:#840000}.component{fill:none}.chip{fill:#ffffc2}.component-pin{fill:none;stroke:#840000}.trace:hover,.trace:hover .trace-junction{filter:invert(1)}.pin-number{fill:#a90000}</style><rect width="1200" height="600" x="0" y="0" class="boundary"/><g data-circuit-json-type="schematic_component" data-schematic-component-id="schematic_component_0"><rect width="51.7" height="103.4" x="280.685" y="206.082" fill="#FFFFC2" stroke="#840000" stroke-width="2.585" class="component chip"/><rect width="51.7" height="103.4" x="280.685" y="206.082" fill="transparent" class="component-overlay"/><text x="280.685" y="189.28" fill="#006464" dominant-baseline="middle" font-family="sans-serif" font-size="23.265" text-anchor="start" transform="rotate(0, 280.6851032742, 189.27994313431998)">U1</text><line x1="381.5" x2="332.385" y1="283.632" y2="283.632" stroke-width="2.585" class="component-pin"/><g data-schematic-port-id="source_port_0"><rect width="5.17" height="5.17" x="381.5" y="281.047" opacity="0"/></g><text x="358.235" y="281.047" fill="#A90000" class="pin-number" dominant-baseline="auto" font-size="19.387" text-anchor="middle" style="font-family:sans-serif">6</text><line x1="381.5" x2="332.385" y1="257.782" y2="257.782" stroke-width="2.585" class="component-pin"/><g data-schematic-port-id="source_port_1"><rect width="5.17" height="5.17" x="381.5" y="255.197" opacity="0"/></g><text x="358.235" y="255.197" fill="#A90000" class="pin-number" dominant-baseline="auto" font-size="19.387" text-anchor="middle" style="font-family:sans-serif">8</text><line x1="381.5" x2="332.385" y1="231.932" y2="231.932" stroke-width="2.585" class="component-pin"/><g data-schematic-port-id="source_port_2"><rect width="5.17" height="5.17" x="381.5" y="229.347" opacity="0"/></g><text x="358.235" y="229.347" fill="#A90000" class="pin-number" dominant-baseline="auto" font-size="19.387" text-anchor="middle" style="font-family:sans-serif">1</text></g><g data-circuit-json-type="schematic_component" data-schematic-component-id="schematic_component_1"><rect width="68.394" height="136.789" x="453.206" y="119.106" fill="transparent" class="component-overlay"/><path fill="none" stroke="#840000" stroke-linecap="round" stroke-width="2.585" d="M 487.40275209480143 119.10557017751513 L 487.40275209480143 177.24085471883453"/><path fill="none" stroke="#840000" stroke-linecap="round" stroke-width="2.585" d="M 487.40275209480143 197.75919348046202 L 487.40275209480143 255.8944909467192"/><path fill="none" stroke="#840000" stroke-linecap="round" stroke-width="2.585" d="M 453.20552513373514 177.24085471883458 L 521.5999790558683 177.24085471883453"/><path fill="none" stroke="#840000" stroke-linecap="round" stroke-width="2.585" d="M 453.20552513373514 197.75919348046202 L 521.5999790558683 197.75919348046202"/><text x="516.709" y="160.951" fill="#0F0F0F" dominant-baseline="auto" font-family="sans-serif" font-size="23.265" text-anchor="start">C2</text><text x="516.709" y="212.439" fill="#0F0F0F" dominant-baseline="hanging" font-family="sans-serif" font-size="23.265" text-anchor="start">10F</text></g><g data-circuit-json-type="schematic_component" data-schematic-component-id="schematic_component_2"><rect width="136.789" height="34.197" x="587.09" y="72.578" fill="transparent" class="component-overlay"/><path fill="none" stroke="#840000" stroke-linecap="round" stroke-width="2.585" d="M 587.0900378920346 89.67656603330131 L 621.2872648531012 89.67656603330131"/><path fill="none" stroke="#840000" stroke-linecap="round" stroke-width="2.585" d="M 689.6817187752343 89.67656603330131 L 723.8789586612387 89.67656603330131"/><path fill="none" stroke="#840000" stroke-linecap="round" stroke-width="2.585" d="M 655.4844788892299 72.57794609029918 L 689.6817058502965 72.57794609029918 L 689.6817058502965 106.77518597630345 L 621.2872390032254 106.77518597630345 L 621.2872390032254 72.57794609029918 L 655.4844788892296 72.57794609029918"/><text x="653.246" y="66.012" fill="#0F0F0F" dominant-baseline="auto" font-family="sans-serif" font-size="23.265" text-anchor="middle">R1</text><text x="653.246" y="116.226" fill="#0F0F0F" dominant-baseline="hanging" font-family="sans-serif" font-size="23.265" text-anchor="middle">10kΩ</text></g><g data-circuit-json-type="schematic_component" data-schematic-component-id="schematic_component_3"><rect width="51.7" height="51.7" x="849.382" y="231.932" fill="#FFFFC2" stroke="#840000" stroke-width="2.585" class="component chip"/><rect width="51.7" height="51.7" x="849.382" y="231.932" fill="transparent" class="component-overlay"/><text x="849.382" y="215.13" fill="#006464" dominant-baseline="middle" font-family="sans-serif" font-size="23.265" text-anchor="start" transform="rotate(0, 849.3823665886, 215.12981873951998)">JP5</text><line x1="800.268" x2="849.382" y1="257.782" y2="257.782" stroke-width="2.585" class="component-pin"/><g data-schematic-port-id="source_port_7"><rect width="5.17" height="5.17" x="795.098" y="255.197" opacity="0"/></g><text x="823.532" y="255.197" fill="#A90000" class="pin-number" dominant-baseline="auto" font-size="19.387" text-anchor="middle" style="font-family:sans-serif">1</text></g><g data-circuit-json-type="schematic_component" data-schematic-component-id="schematic_component_4"><rect width="51.7" height="51.7" x="849.382" y="348.257" fill="#FFFFC2" stroke="#840000" stroke-width="2.585" class="component chip"/><rect width="51.7" height="51.7" x="849.382" y="348.257" fill="transparent" class="component-overlay"/><text x="849.382" y="331.454" fill="#006464" dominant-baseline="middle" font-family="sans-serif" font-size="23.265" text-anchor="start" transform="rotate(0, 849.3823665886, 331.45425896292)">JP9</text><line x1="800.268" x2="849.382" y1="374.107" y2="374.107" stroke-width="2.585" class="component-pin"/><g data-schematic-port-id="source_port_8"><rect width="5.17" height="5.17" x="795.098" y="371.522" opacity="0"/></g><text x="823.532" y="371.522" fill="#A90000" class="pin-number" dominant-baseline="auto" font-size="19.387" text-anchor="middle" style="font-family:sans-serif">1</text></g><g data-circuit-json-type="schematic_component" data-schematic-component-id="schematic_component_5"><rect width="114.295" height="61.926" x="507.916" y="367.75" fill="transparent" class="component-overlay"/><path fill="none" stroke="#840000" stroke-linecap="round" stroke-width="2.585" d="M 593.4871453828666 412.97222561919557 L 622.2112169568576 412.97222561919557"/><path fill="none" stroke="#840000" stroke-linecap="round" stroke-width="2.585" d="M 507.9158756440257 413.1938495276969 L 536.5697131059974 413.1938495276969"/><path fill="none" stroke="#840000" stroke-linecap="round" stroke-width="2.585" d="M 565.3708690090428 396.4743050855071 L 565.3708690090428 367.7502335115162"/><path fill="none" stroke="#840000" stroke-linecap="round" stroke-width="2.585" d="M 549.5002086318524 429.4049527666079 L 549.5002086318524 396.83584144572154"/><path fill="none" stroke="#840000" stroke-linecap="round" stroke-width="2.585" d="M 559.4645601813887 428.8482886203877 L 559.4645601813887 397.37297601092195"/><path fill="none" stroke="#840000" stroke-linecap="round" stroke-width="2.585" d="M 571.0358046232336 428.88425872229226 L 571.0358046232336 397.4467257060234"/><path fill="none" stroke="#840000" stroke-linecap="round" stroke-width="2.585" d="M 559.716363819659 428.9425501917821 L 570.932973818076 428.9425501917821"/><path fill="none" stroke="#840000" stroke-linecap="round" stroke-width="2.585" d="M 559.7414640488716 397.33073731418295 L 570.8865345165511 397.33073731418295"/><path fill="none" stroke="#840000" stroke-linecap="round" stroke-width="2.585" d="M 580.6739307426324 429.4173994817118 L 580.6739307426324 396.84828816082546"/><path fill="none" stroke="#840000" stroke-linecap="round" stroke-width="2.585" d="M 581.2743975030656 396.4138680763421 L 581.2743975030656 396.4138680763421 L 583.2941446031299 397.5030334957915 L 585.111080900455 398.6321368667792 L 586.7320125782493 399.79704374009543 L 588.1637458197212 400.9936196665305 L 589.413086808079 402.21773019687464 L 590.4868417265313 403.4652408819181 L 591.3918167582863 404.73201727245106 L 592.1348180865525 406.0139249192639 L 592.7226518945381 407.3068293731467 L 593.1621243654517 408.60659618488984 L 593.4600416825017 409.90909090528345 L 593.6232100288963 411.2101790851179 L 593.658435587844 412.50572627518335 L 593.5725245425532 413.7915980262701 L 593.3722830762323 415.0636598891683 L 593.0645173720895 416.3177774146683 L 592.6560336133335 417.5498161535603 L 592.1536379831725 418.75564165663457 L 591.564136664815 419.93111947468134 L 590.8943358414692 421.0721151584908 L 590.1510416963436 422.1744942588533 L 589.3410604126466 423.23412232655903 L 588.4711981735866 424.2468649123982 L 587.548261162372 425.2085875671611 L 586.5790555622111 426.115155841638 L 585.5703875563123 426.9624352866191 L 584.5290633278842 427.74629145289464 L 583.4618890601348 428.46258989125494 L 582.3756709362729 429.10719615249013 L 581.2772151395066 429.67597578739054 L 581.2772151395066 429.67597578739054"/><path fill="none" stroke="#840000" stroke-linecap="round" stroke-width="2.585" d="M 548.90938387502 396.3974792552085 L 548.90938387502 396.3974792552085 L 546.8896367749558 397.48664467465784 L 545.0727004776306 398.61574804564555 L 543.4517687998363 399.7806549189618 L 542.0200355583644 400.9772308453969 L 540.7706945700065 402.201341375741 L 539.6969396515543 403.4488520607845 L 538.7919646197993 404.71562845131746 L 538.0489632915331 405.99753609813024 L 537.4611294835474 407.2904405520131 L 537.0216570126338 408.5902073637562 L 536.723739695584 409.89270208414985 L 536.5605713491893 411.1937902639843 L 536.5253457902415 412.4893374540497 L 536.6112568355323 413.77520920513643 L 536.8114983018534 415.04727106803466 L 537.119264005996 416.3013885935347 L 537.527747764752 417.5334273324267 L 538.030143394913 418.7392528355009 L 538.6196447132706 419.9147306535477 L 539.2894455366164 421.05572633735716 L 540.032739681742 422.15810543771966 L 540.842720965439 423.2177335054254 L 541.712583204499 424.23047609126456 L 542.6355202157137 425.1921987460275 L 543.6047258158745 426.09876702050434 L 544.6133938217732 426.94604646548544 L 545.6547180502015 427.729902631761 L 546.7218923179507 428.4462010701213 L 547.8081104418127 429.0908073313565 L 548.906566238579 429.6595869662569 L 548.906566238579 429.6595869662569"/><text x="567.701" y="436.196" fill="#0F0F0F" dominant-baseline="hanging" font-family="sans-serif" font-size="23.265" text-anchor="middle">JP8</text></g><g class="trace" data-circuit-json-type="schematic_trace" data-schematic-trace-id="schematic_trace_0"><path fill="none" stroke="#009600" stroke-linecap="round" stroke-linejoin="round" stroke-width="20.68" d="M 487.5194384332833 257.93841476094684 L 487.5194384332833 268.28189803477517 L 394.4280889688283 268.28189803477517 L 394.4280889688283 257.7821134881 L 384.084605695 257.7821134881" class="trace-invisible-hover-outline" opacity="0"/><path fill="none" stroke="#009600" stroke-linecap="round" stroke-linejoin="round" stroke-width="2.585" d="M 487.5194384332833 257.93841476094684 L 487.5194384332833 268.28189803477517 L 394.4280889688283 268.28189803477517 L 394.4280889688283 257.7821134881 L 384.084605695 257.7821134881"/></g><g class="trace" data-circuit-json-type="schematic_trace" data-schematic-trace-id="schematic_trace_1"><path fill="none" stroke="#009600" stroke-linecap="round" stroke-linejoin="round" stroke-width="20.68" d="M 487.44877779831666 115.4514963866531 L 487.44877779831666 89.72260466175447 L 584.2543194630819 89.72260466175447" class="trace-invisible-hover-outline" opacity="0"/><path fill="none" stroke="#009600" stroke-linecap="round" stroke-linejoin="round" stroke-width="2.585" d="M 487.44877779831666 115.4514963866531 L 487.44877779831666 89.72260466175447 L 584.2543194630819 89.72260466175447"/></g><g class="trace" data-circuit-json-type="schematic_trace" data-schematic-trace-id="schematic_trace_2"><path fill="none" stroke="#009600" stroke-linecap="round" stroke-linejoin="round" stroke-width="20.68" d="M 584.2543194630819 89.72260466175447 L 384.084605695 89.72260466175447 L 384.084605695 231.93223788289998" class="trace-invisible-hover-outline" opacity="0"/><path fill="none" stroke="#009600" stroke-linecap="round" stroke-linejoin="round" stroke-width="2.585" d="M 584.2543194630819 89.72260466175447 L 384.084605695 89.72260466175447 L 384.084605695 231.93223788289998"/><circle cx="487.449" cy="89.723" r="3.877" fill="#009600" class="trace-junction"/></g><g class="trace" data-circuit-json-type="schematic_trace" data-schematic-trace-id="schematic_trace_3"><path fill="none" stroke="#009600" stroke-linecap="round" stroke-linejoin="round" stroke-width="20.68" d="M 726.7622796361181 89.79323944684552 L 875.2322421938 89.79323944684552 L 875.2322421938 89.7579220543" class="trace-invisible-hover-outline" opacity="0"/><path fill="none" stroke="#009600" stroke-linecap="round" stroke-linejoin="round" stroke-width="2.585" d="M 726.7622796361181 89.79323944684552 L 875.2322421938 89.79323944684552 L 875.2322421938 89.7579220543"/></g><g class="trace" data-circuit-json-type="schematic_trace" data-schematic-trace-id="schematic_trace_4"><path fill="none" stroke="#009600" stroke-linecap="round" stroke-linejoin="round" stroke-width="20.68" d="M 797.6826153782 257.7821134881 L 762.2224475071591 257.7821134881 L 762.2224475071591 89.79323944684552 L 726.7622796361181 89.79323944684552" class="trace-invisible-hover-outline" opacity="0"/><path fill="none" stroke="#009600" stroke-linecap="round" stroke-linejoin="round" stroke-width="2.585" d="M 797.6826153782 257.7821134881 L 762.2224475071591 257.7821134881 L 762.2224475071591 89.79323944684552 L 726.7622796361181 89.79323944684552"/><circle cx="762.222" cy="89.793" r="3.877" fill="#009600" class="trace-junction"/></g><g class="trace" data-circuit-json-type="schematic_trace" data-schematic-trace-id="schematic_trace_5"><path fill="none" stroke="#009600" stroke-linecap="round" stroke-linejoin="round" stroke-width="20.68" d="M 797.6826153782 374.10655371149994 L 762.2224475071591 374.10655371149994 L 762.2224475071591 89.79323944684552 L 726.7622796361181 89.79323944684552" class="trace-invisible-hover-outline" opacity="0"/><path fill="none" stroke="#009600" stroke-linecap="round" stroke-linejoin="round" stroke-width="2.585" d="M 797.6826153782 374.10655371149994 L 762.2224475071591 374.10655371149994 L 762.2224475071591 89.79323944684552 L 726.7622796361181 89.79323944684552"/><circle cx="762.222" cy="89.793" r="3.877" fill="#009600" class="trace-junction"/><circle cx="762.222" cy="257.782" r="3.877" fill="#009600" class="trace-junction"/></g><g class="trace" data-circuit-json-type="schematic_trace" data-schematic-trace-id="schematic_trace_6"><path fill="none" stroke="#009600" stroke-linecap="round" stroke-linejoin="round" stroke-width="20.68" d="M 565.4851771589692 367.3081618638538 L 384.084605695 367.3081618638538 L 384.084605695 283.6319890933" class="trace-invisible-hover-outline" opacity="0"/><path fill="none" stroke="#009600" stroke-linecap="round" stroke-linejoin="round" stroke-width="2.585" d="M 565.4851771589692 367.3081618638538 L 384.084605695 367.3081618638538 L 384.084605695 283.6319890933"/></g><g class="trace" data-circuit-json-type="schematic_trace" data-schematic-trace-id="schematic_trace_7"><path fill="none" stroke="#009600" stroke-linecap="round" stroke-linejoin="round" stroke-width="20.68" d="M 507.4142588079068 413.0704422215575 L 448.709294708 413.0704422215575 L 448.709294708 379.27652883253995" class="trace-invisible-hover-outline" opacity="0"/><path fill="none" stroke="#009600" stroke-linecap="round" stroke-linejoin="round" stroke-width="2.585" d="M 507.4142588079068 413.0704422215575 L 448.709294708 413.0704422215575 L 448.709294708 379.27652883253995"/></g><g class="trace" data-circuit-json-type="schematic_trace" data-schematic-trace-id="schematic_trace_8"><path fill="none" stroke="#009600" stroke-linecap="round" stroke-linejoin="round" stroke-width="20.68" d="M 622.6532110548932 413.08652084418395 L 668.4332373522 413.08652084418395 L 668.4332373522 464.58111832969996" class="trace-invisible-hover-outline" opacity="0"/><path fill="none" stroke="#009600" stroke-linecap="round" stroke-linejoin="round" stroke-width="2.585" d="M 622.6532110548932 413.08652084418395 L 668.4332373522 413.08652084418395 L 668.4332373522 464.58111832969996"/></g><g class="schematic-port-hover" data-schematic-port-id="source_port_0"><circle cx="384.085" cy="283.632" r="5.17" fill="red" opacity="0"/></g><g class="schematic-port-hover" data-schematic-port-id="source_port_1"><circle cx="384.085" cy="257.782" r="5.17" fill="red" opacity="0"/></g><g class="schematic-port-hover" data-schematic-port-id="source_port_2"><circle cx="384.085" cy="231.932" r="5.17" fill="red" opacity="0"/></g><g class="schematic-port-hover" data-schematic-port-id="source_port_3"><circle cx="487.519" cy="257.938" r="5.17" fill="red" opacity="0"/></g><g class="schematic-port-hover" data-schematic-port-id="source_port_4"><circle cx="487.449" cy="115.451" r="5.17" fill="red" opacity="0"/></g><g class="schematic-port-hover" data-schematic-port-id="source_port_5"><circle cx="584.254" cy="89.723" r="5.17" fill="red" opacity="0"/></g><g class="schematic-port-hover" data-schematic-port-id="source_port_6"><circle cx="726.762" cy="89.793" r="5.17" fill="red" opacity="0"/></g><g class="schematic-port-hover" data-schematic-port-id="source_port_7"><circle cx="797.683" cy="257.782" r="5.17" fill="red" opacity="0"/></g><g class="schematic-port-hover" data-schematic-port-id="source_port_8"><circle cx="797.683" cy="374.107" r="5.17" fill="red" opacity="0"/></g><g class="schematic-port-hover" data-schematic-port-id="source_port_9"><circle cx="622.653" cy="413.087" r="5.17" fill="red" opacity="0"/></g><g class="schematic-port-hover" data-schematic-port-id="source_port_10"><circle cx="565.485" cy="367.308" r="5.17" fill="red" opacity="0"/></g><g class="schematic-port-hover" data-schematic-port-id="source_port_11"><circle cx="507.414" cy="413.07" r="5.17" fill="red" opacity="0"/></g><path fill="rgba(255, 255, 255, 0.6)" stroke="#840000" stroke-width="2.585" d="M 875.2322421938,89.7579220543 L 882.211708607204,75.798989227492 L 942.5797847705477,75.798989227492 L 942.5797847705477,103.71685488110799 L 882.211708607204,103.71685488110799 Z" class="net-label"/><text x="886.865" y="89.758" fill="#840000" class="net-label-text" dominant-baseline="central" font-family="sans-serif" font-size="23.265" font-variant-numeric="tabular-nums" text-anchor="start">PAD</text><rect width="23.947" height="52.936" x="436.639" y="324.409" fill="transparent" class="component-overlay"/><path fill="none" stroke="#840000" stroke-linecap="round" stroke-width="2.585" d="M 448.42373113218963 324.40908216572745 L 436.63927691635297 349.10485129971994"/><path fill="none" stroke="#840000" stroke-linecap="round" stroke-width="2.585" d="M 448.80208283648483 324.42195540377884 L 460.58653705232103 349.1177891624604"/><path fill="none" stroke="#840000" stroke-linecap="round" stroke-width="2.585" d="M 448.56010215094466 325.0607187549212 L 448.56010215094466 377.3447030038744"/><text x="447.982" y="316.835" fill="#0F0F0F" dominant-baseline="ideographic" font-family="sans-serif" font-size="23.265" text-anchor="middle">VCC</text><rect width="58.074" height="62.483" x="638.675" y="464.441" fill="transparent" class="component-overlay"/><path fill="none" stroke="#840000" stroke-linecap="round" stroke-width="2.585" d="M 668.2928466777881 464.4410766286088 L 668.2928466777881 507.0459885552044"/><path fill="none" stroke="#840000" stroke-linecap="round" stroke-width="2.585" d="M 638.6748605554938 507.0417491756052 L 696.7493591143274 507.0417491756052"/><path fill="none" stroke="#840000" stroke-linecap="round" stroke-width="2.585" d="M 645.9341777221997 516.9828875368482 L 689.4900419476214 516.9828875368482"/><path fill="none" stroke="#840000" stroke-linecap="round" stroke-width="2.585" d="M 660.4527991306736 526.9240258980913 L 674.9714205391476 526.9240258980913"/><text x="665.509" y="542.063" fill="#0F0F0F" dominant-baseline="hanging" font-family="sans-serif" font-size="23.265" text-anchor="middle">GND</text></svg>