<svg xmlns="http://www.w3.org/2000/svg" width="1200" height="600" data-real-to-screen-transform="matrix(169.4213320282,0,0,-169.4213320282,329.4793117729,598.6446293438)" data-software-used-string="@tscircuit/core@0.0.555" style="background-color:#f5f1ed"><style>.boundary{fill:#f5f1ed}.chip,.component{stroke:#840000}.component{fill:none}.chip{fill:#ffffc2}.component-pin{fill:none;stroke:#840000}.trace:hover{filter:invert(1)}.pin-number{fill:#a90000}</style><rect width="1200" height="600" x="0" y="0" class="boundary"/><g data-circuit-json-type="schematic_component" data-schematic-component-id="schematic_component_0"><rect width="67.769" height="169.421" x="329.479" y="241.217" fill="#FFFFC2" stroke="#840000" stroke-width="3.388" class="component chip"/><rect width="67.769" height="169.421" x="329.479" y="241.217" fill="transparent" class="component-overlay"/><text x="329.479" y="219.192" fill="#006464" dominant-baseline="middle" font-family="sans-serif" font-size="30.496" text-anchor="start" transform="rotate(0, 329.4793117729, 219.19175642535902)">U1</text><line x1="461.628" x2="397.248" y1="275.101" y2="275.101" stroke-width="3.388" class="component-pin"/><text x="431.132" y="271.712" fill="#A90000" class="pin-number" dominant-baseline="auto" font-size="25.413" text-anchor="middle" style="font-family:sans-serif">1</text><line x1="461.628" x2="397.248" y1="308.985" y2="308.985" stroke-width="3.388" class="component-pin"/><text x="431.132" y="305.597" fill="#A90000" class="pin-number" dominant-baseline="auto" font-size="25.413" text-anchor="middle" style="font-family:sans-serif">2</text><line x1="461.628" x2="397.248" y1="342.869" y2="342.869" stroke-width="3.388" class="component-pin"/><text x="431.132" y="339.481" fill="#A90000" class="pin-number" dominant-baseline="auto" font-size="25.413" text-anchor="middle" style="font-family:sans-serif">3</text><line x1="461.628" x2="397.248" y1="376.754" y2="376.754" stroke-width="3.388" class="component-pin"/><text x="431.132" y="373.365" fill="#A90000" class="pin-number" dominant-baseline="auto" font-size="25.413" text-anchor="middle" style="font-family:sans-serif">4</text></g><g data-circuit-json-type="schematic_component" data-schematic-component-id="schematic_component_1"><rect width="149.819" height="81.173" x="510.715" y="372.684" fill="transparent" class="component-overlay"/><path fill="none" stroke="#840000" stroke-linecap="round" stroke-width="3.388" d="M 548.3665045593661 394.5790347662095 L 510.71471434061584 394.5790347662095"/><path fill="none" stroke="#840000" stroke-linecap="round" stroke-width="3.388" d="M 660.5341507323519 394.28852800818055 L 622.9744240654256 394.28852800818055"/><path fill="none" stroke="#840000" stroke-linecap="round" stroke-width="3.388" d="M 605.9136620459195 394.28984949457043 L 593.2727976206314 394.28984949457043"/><path fill="none" stroke="#840000" stroke-linecap="round" stroke-width="3.388" d="M 585.2215909642539 416.2046682137501 L 585.2215909642539 453.85645843250035"/><path fill="none" stroke="#840000" stroke-linecap="round" stroke-width="3.388" d="M 606.0250057453285 373.03885743854363 L 606.0250057453285 415.73076286380075"/><path fill="none" stroke="#840000" stroke-linecap="round" stroke-width="3.388" d="M 592.9636375739466 373.7685381734559 L 592.9636375739466 415.02668169215804"/><path fill="none" stroke="#840000" stroke-linecap="round" stroke-width="3.388" d="M 577.7959386921237 373.7213882167526 L 577.7959386921237 414.93000988010294"/><path fill="none" stroke="#840000" stroke-linecap="round" stroke-width="3.388" d="M 592.6335709348892 373.6449791960077 L 577.9307303038855 373.6449791960077"/><path fill="none" stroke="#840000" stroke-linecap="round" stroke-width="3.388" d="M 592.6006693122094 415.08204858346494 L 577.9916033884834 415.08204858346494"/><path fill="none" stroke="#840000" stroke-linecap="round" stroke-width="3.388" d="M 565.1621899627809 373.02254216426934 L 565.1621899627809 415.7144475895264"/><path fill="none" stroke="#840000" stroke-linecap="round" stroke-width="3.388" d="M 564.3750923384442 416.2838896286066 L 564.3750923384442 416.2838896286066 L 561.7275883482575 414.8562010858807 L 559.3459307155123 413.3761614908601 L 557.2211978295762 411.8491903194681 L 555.3444680798174 410.2807070476281 L 553.7068198556036 408.6761311512634 L 552.2993315463026 407.0408821062973 L 551.1130815412824 405.3803793886533 L 550.1391482299109 403.70004247425464 L 549.3686100015559 402.00529083902467 L 548.7925452455853 400.3015439588867 L 548.4020323513669 398.5942213097642 L 548.1881497082685 396.8887423675804 L 548.1419757056582 395.19052660825866 L 548.2545887329036 393.5049935077224 L 548.5170671793728 391.83756254189495 L 548.9204894344336 390.19365318669963 L 549.4559338874539 388.57868491805976 L 550.1144789278013 386.99807721189876 L 550.887202944844 385.4572495441399 L 551.7651843279498 383.96162139070657 L 552.7395014664864 382.51661222752216 L 553.8012327498219 381.1276415305099 L 554.941456567324 379.80012877559324 L 556.1512513083607 378.5394934386955 L 557.4216953622997 377.35115499574005 L 558.743867118509 376.2405329226502 L 560.1088449663564 375.21304669534925 L 561.5077072952098 374.2741157897607 L 562.931532494437 373.42915968180773 L 564.371398953406 372.6835978474138 L 564.371398953406 372.6835978474138"/><path fill="none" stroke="#840000" stroke-linecap="round" stroke-width="3.388" d="M 606.7994645382958 416.3053722535077 L 606.7994645382958 416.3053722535077 L 609.4469685284824 414.8776837107818 L 611.8286261612278 413.3976441157612 L 613.9533590471638 411.87067294436923 L 615.8300887969226 410.3021896725292 L 617.4677370211365 408.69761377616453 L 618.8752253304374 407.06236473119844 L 620.0614753354575 405.4018620135544 L 621.0354086468291 403.7215250991557 L 621.8059468751841 402.02677346392574 L 622.3820116311548 400.32302658378785 L 622.7725245253732 398.6157039346653 L 622.9864071684715 396.9102249924815 L 623.0325811710819 395.2120092331598 L 622.9199681438364 393.52647613262354 L 622.6574896973672 391.8590451667961 L 622.2540674423065 390.21513581160076 L 621.7186229892862 388.6001675429609 L 621.0600779489387 387.0195598367999 L 620.287353931896 385.478732169041 L 619.4093725487902 383.9831040156077 L 618.4350554102535 382.5380948524232 L 617.3733241269181 381.149124155411 L 616.233100309416 379.82161140049436 L 615.0233055683793 378.5609760635966 L 613.7528615144404 377.37263762064117 L 612.4306897582311 376.2620155475513 L 611.0657119103837 375.2345293202504 L 609.6668495815303 374.2955984146618 L 608.243024382303 373.45064230670886 L 606.8031579233341 372.70508047231493 L 606.8031579233341 372.70508047231493"/><text x="582.167" y="364.122" fill="#0F0F0F" dominant-baseline="auto" font-family="sans-serif" font-size="30.496" text-anchor="middle">JP1</text></g><g class="trace" data-circuit-json-type="schematic_trace" data-schematic-trace-id="schematic_trace_0"><path fill="none" stroke="#009600" stroke-linecap="round" stroke-linejoin="round" stroke-width="27.107" d="M 510.1353442114789 394.42921548229697 L 487.5758608034695 394.42921548229697 L 487.5758608034695 376.75359521158504 L 465.01637739546004 376.75359521158504" class="trace-invisible-hover-outline" opacity="0"/><path fill="none" stroke="#009600" stroke-linecap="round" stroke-linejoin="round" stroke-width="3.388" d="M 510.1353442114789 394.42921548229697 L 487.5758608034695 394.42921548229697 L 487.5758608034695 376.75359521158504 L 465.01637739546004 376.75359521158504"/></g><g class="trace" data-circuit-json-type="schematic_trace" data-schematic-trace-id="schematic_trace_1"><path fill="none" stroke="#009600" stroke-linecap="round" stroke-linejoin="round" stroke-width="27.107" d="M 465.01637739546004 308.9850624003051 L 583.6113098152 308.9850624003051 L 583.6113098152 276.74409849022004" class="trace-invisible-hover-outline" opacity="0"/><path fill="none" stroke="#009600" stroke-linecap="round" stroke-linejoin="round" stroke-width="3.388" d="M 465.01637739546004 308.9850624003051 L 583.6113098152 308.9850624003051 L 583.6113098152 276.74409849022004"/></g><g class="trace" data-circuit-json-type="schematic_trace" data-schematic-trace-id="schematic_trace_2"><path fill="none" stroke="#009600" stroke-linecap="round" stroke-linejoin="round" stroke-width="27.107" d="M 465.01637739546004 275.100795994665 L 498.90064380110005 275.100795994665 L 498.90064380110005 225.91769888176003" class="trace-invisible-hover-outline" opacity="0"/><path fill="none" stroke="#009600" stroke-linecap="round" stroke-linejoin="round" stroke-width="3.388" d="M 465.01637739546004 275.100795994665 L 498.90064380110005 275.100795994665 L 498.90064380110005 225.91769888176003"/></g><g class="trace" data-circuit-json-type="schematic_trace" data-schematic-trace-id="schematic_trace_3"><path fill="none" stroke="#009600" stroke-linecap="round" stroke-linejoin="round" stroke-width="27.107" d="M 465.01637739546004 342.8693288059451 L 668.3219758293001 342.8693288059451 L 668.3219758293001 310.62836489586005" class="trace-invisible-hover-outline" opacity="0"/><path fill="none" stroke="#009600" stroke-linecap="round" stroke-linejoin="round" stroke-width="3.388" d="M 465.01637739546004 342.8693288059451 L 668.3219758293001 342.8693288059451 L 668.3219758293001 310.62836489586005"/></g><g class="trace" data-circuit-json-type="schematic_trace" data-schematic-trace-id="schematic_trace_4"><path fill="none" stroke="#009600" stroke-linecap="round" stroke-linejoin="round" stroke-width="27.107" d="M 661.1916749219533 394.4502914960013 L 769.97477504622 394.4502914960013 L 769.97477504622 393.64481758967804" class="trace-invisible-hover-outline" opacity="0"/><path fill="none" stroke="#009600" stroke-linecap="round" stroke-linejoin="round" stroke-width="3.388" d="M 661.1916749219533 394.4502914960013 L 769.97477504622 394.4502914960013 L 769.97477504622 393.64481758967804"/></g><g class="trace" data-circuit-json-type="schematic_trace" data-schematic-trace-id="schematic_trace_5"><path fill="none" stroke="#009600" stroke-linecap="round" stroke-linejoin="round" stroke-width="27.107" d="M 585.071754738208 454.4359302144365 L 753.0326418434 454.4359302144365 L 753.0326418434 496.99183012688" class="trace-invisible-hover-outline" opacity="0"/><path fill="none" stroke="#009600" stroke-linecap="round" stroke-linejoin="round" stroke-width="3.388" d="M 585.071754738208 454.4359302144365 L 753.0326418434 454.4359302144365 L 753.0326418434 496.99183012688"/></g><rect width="31.39" height="69.389" x="567.79" y="204.823" fill="transparent" class="component-overlay"/><path fill="none" stroke="#840000" stroke-linecap="round" stroke-width="3.388" d="M 583.2369903242172 204.82331990506003 L 567.7898140130806 237.19477241062071"/><path fill="none" stroke="#840000" stroke-linecap="round" stroke-width="3.388" d="M 583.732937389463 204.84019426973003 L 599.1801137005991 237.21173148595673"/><path fill="none" stroke="#840000" stroke-linecap="round" stroke-width="3.388" d="M 583.41574677164 205.67749143474668 L 583.41574677164 274.2118425510606"/><text x="582.658" y="194.895" fill="#0F0F0F" dominant-baseline="ideographic" font-family="sans-serif" font-size="30.496" text-anchor="middle">V_USB</text><rect width="31.39" height="69.389" x="483.079" y="153.997" fill="transparent" class="component-overlay"/><path fill="none" stroke="#840000" stroke-linecap="round" stroke-width="3.388" d="M 498.5263243101172 153.99692029660002 L 483.0791479989805 186.3683728021607"/><path fill="none" stroke="#840000" stroke-linecap="round" stroke-width="3.388" d="M 499.022271375363 154.01379466127003 L 514.469447686499 186.38533187749672"/><path fill="none" stroke="#840000" stroke-linecap="round" stroke-width="3.388" d="M 498.7050807575399 154.85109182628668 L 498.7050807575399 223.3854429426006"/><text x="497.947" y="144.069" fill="#0F0F0F" dominant-baseline="ideographic" font-family="sans-serif" font-size="30.496" text-anchor="middle">V_BATT</text><rect width="31.39" height="69.389" x="652.5" y="238.708" fill="transparent" class="component-overlay"/><path fill="none" stroke="#840000" stroke-linecap="round" stroke-width="3.388" d="M 667.9476563383172 238.70758631069998 L 652.5004800271805 271.07903881626066"/><path fill="none" stroke="#840000" stroke-linecap="round" stroke-width="3.388" d="M 668.443603403563 238.72446067536998 L 683.8907797146991 271.0959978915967"/><path fill="none" stroke="#840000" stroke-linecap="round" stroke-width="3.388" d="M 668.12641278574 239.56175784038663 L 668.12641278574 308.09610895670056"/><text x="667.369" y="228.779" fill="#0F0F0F" dominant-baseline="ideographic" font-family="sans-serif" font-size="30.496" text-anchor="middle">V3_3</text><path fill="rgba(255, 255, 255, 0.6)" stroke="#840000" stroke-width="3.388" d="M 769.97477504622,393.64481758967804 L 779.1235269757427,375.34731373063244 L 833.8353224653828,375.34731373063244 L 833.8353224653828,411.94232144872365 L 779.1235269757427,411.94232144872365 Z" class="net-label"/><text x="785.223" y="393.645" fill="#840000" class="net-label-text" dominant-baseline="central" font-family="sans-serif" font-size="30.496" font-variant-numeric="tabular-nums" text-anchor="start">A0</text><path fill="rgba(255, 255, 255, 0.6)" stroke="#840000" stroke-width="3.388" d="M 753.0326418434,496.99183012688 L 762.1813937729228,478.6943262678344 L 901.0165279922985,478.6943262678344 L 901.0165279922985,515.2893339859256 L 762.1813937729228,515.2893339859256 Z" class="net-label"/><text x="768.281" y="496.992" fill="#840000" class="net-label-text" dominant-baseline="central" font-family="sans-serif" font-size="30.496" font-variant-numeric="tabular-nums" text-anchor="start">NRESET</text></svg>