<svg xmlns="http://www.w3.org/2000/svg" width="1200" height="600" data-real-to-screen-transform="matrix(92.5754489909,0,0,-92.5754489909,387.8227369756,327.1122631611)" data-software-used-string="@tscircuit/core@0.0.586" style="background-color:#f5f1ed"><style>.boundary{fill:#f5f1ed}.chip,.component{stroke:#840000}.component{fill:none}.chip{fill:#ffffc2}.component-pin{fill:none;stroke:#840000}.trace:hover,.trace:hover .trace-junction{filter:invert(1)}.pin-number{fill:#a90000}</style><rect width="1200" height="600" x="0" y="0" class="boundary"/><g data-circuit-json-type="schematic_component" data-schematic-component-id="schematic_component_0"><rect width="37.03" height="74.06" x="369.308" y="290.082" fill="#FFFFC2" stroke="#840000" stroke-width="1.852" class="component chip"/><rect width="37.03" height="74.06" x="369.308" y="290.082" fill="transparent" class="component-overlay"/><text x="369.308" y="278.047" fill="#006464" dominant-baseline="middle" font-family="sans-serif" font-size="16.664" text-anchor="start" transform="rotate(0, 369.30764717742, 278.04727519592296)">U1</text><line x1="441.516" x2="406.338" y1="308.597" y2="308.597" stroke-width="1.852" class="component-pin"/><g data-schematic-port-id="source_port_0"><rect width="3.703" height="3.703" x="441.516" y="306.746" opacity="0"/></g><text x="424.853" y="306.746" fill="#A90000" class="pin-number" dominant-baseline="auto" font-size="13.886" text-anchor="middle" style="font-family:sans-serif">1</text><line x1="441.516" x2="406.338" y1="327.112" y2="327.112" stroke-width="1.852" class="component-pin"/><g data-schematic-port-id="source_port_1"><rect width="3.703" height="3.703" x="441.516" y="325.261" opacity="0"/></g><text x="424.853" y="325.261" fill="#A90000" class="pin-number" dominant-baseline="auto" font-size="13.886" text-anchor="middle" style="font-family:sans-serif">2</text><line x1="441.516" x2="406.338" y1="345.627" y2="345.627" stroke-width="1.852" class="component-pin"/><g data-schematic-port-id="source_port_2"><rect width="3.703" height="3.703" x="441.516" y="343.776" opacity="0"/></g><text x="424.853" y="343.776" fill="#A90000" class="pin-number" dominant-baseline="auto" font-size="13.886" text-anchor="middle" style="font-family:sans-serif">3</text></g><g data-circuit-json-type="schematic_component" data-schematic-component-id="schematic_component_1"><rect width="81.577" height="23.836" x="559.041" y="277.3" fill="transparent" class="component-overlay"/><path fill="none" stroke="#840000" stroke-linecap="round" stroke-width="1.852" d="M 583.0793042577906 289.2639836741971 L 559.0412464907175 289.2639836741971"/><path fill="none" stroke="#840000" stroke-linecap="round" stroke-width="1.852" d="M 640.6184636726965 289.10524455181235 L 616.7092894457087 289.10524455181235"/><path fill="none" stroke="#840000" stroke-linecap="round" stroke-width="1.852" d="M 606.0560585625421 289.1059666403145 L 593.731183539402 289.1059666403145"/><path fill="none" stroke="#840000" stroke-linecap="round" stroke-width="1.852" d="M 606.2319796882595 277.4939688621287 L 606.2319796882595 300.821741496819"/><path fill="none" stroke="#840000" stroke-linecap="round" stroke-width="1.852" d="M 593.5481433616571 277.4850538463909 L 593.5481433616571 300.8128264810812"/><path fill="none" stroke="#840000" stroke-linecap="round" stroke-width="1.852" d="M 593.1180563407352 301.1239818226846 L 593.1180563407352 301.1239818226846 L 591.6714033858644 300.3438621867463 L 590.3700145816653 299.5351368131875 L 589.2090149687682 298.700767019871 L 588.1835295878034 297.8437141246598 L 587.2886834794012 296.96693944541687 L 586.519601684192 296.0734043000051 L 585.8714092428062 295.16607000628744 L 585.339231195874 294.24789788212695 L 584.9181925840259 293.3218492453864 L 584.6034184478921 292.39088541392886 L 584.3900338281029 291.45796770561725 L 584.2731637652888 290.52605743831447 L 584.24793330008 289.59811592988353 L 584.3094674731069 288.67710449818736 L 584.4528913249999 287.76598446108886 L 584.6733298963892 286.867717136451 L 584.9659082279053 285.98526384213676 L 585.3257513601783 285.1215858960091 L 585.7479843338388 284.2796446159309 L 586.2277321895169 283.46240131976515 L 586.7601199678431 282.67281732537475 L 587.3402727094477 281.9138539506227 L 587.963315454961 281.18847251337195 L 588.6243732450134 280.49963433148537 L 589.3185711202352 279.85030072282603 L 590.0410341212568 279.24343300525675 L 590.7868872887084 278.68199249664053 L 591.5512556632204 278.16894051484036 L 592.3292642854233 277.7072383777191 L 593.1160381959471 277.2998474031398 L 593.1160381959471 277.2998474031398"/><path fill="none" stroke="#840000" stroke-linecap="round" stroke-width="1.852" d="M 606.6551605806868 301.13572038961655 L 606.6551605806868 301.13572038961655 L 608.1018135355575 300.35560075367835 L 609.4032023397567 299.5468753801195 L 610.5642019526538 298.712505586803 L 611.5896873336186 297.85545269159184 L 612.4845334420207 296.9786780123489 L 613.25361523723 296.08514286693713 L 613.9018076786158 295.17780857321947 L 614.4339857255479 294.2596364490589 L 614.8550243373961 293.3335878123184 L 615.1697984735299 292.4026239808609 L 615.3831830933191 291.4697062725492 L 615.5000531561332 290.5377960052465 L 615.5252836213419 289.60985449681556 L 615.463749448315 288.68884306511933 L 615.3203255964221 287.7777230280209 L 615.0998870250328 286.87945570338303 L 614.8073086935167 285.9970024090688 L 614.4474655612437 285.1333244629411 L 614.0252325875832 284.2913831828629 L 613.545484731905 283.4741398866972 L 613.0130969535788 282.6845558923068 L 612.4329442119742 281.9255925175547 L 611.8099014664609 281.200211080304 L 611.1488436764085 280.5113728984174 L 610.4546458011866 279.862039289758 L 609.7321828001651 279.2551715721888 L 608.9863296327135 278.69373106357256 L 608.2219612582015 278.1806790817724 L 607.4439526359987 277.7189769446511 L 606.6571787254749 277.3115859700718 L 606.6571787254749 277.3115859700718"/><text x="597.941" y="272.621" fill="#0F0F0F" dominant-baseline="auto" font-family="sans-serif" font-size="16.664" text-anchor="middle">JP1</text></g><g data-circuit-json-type="schematic_component" data-schematic-component-id="schematic_component_2"><rect width="65.189" height="98.561" x="769.639" y="153.459" fill="transparent" class="component-overlay"/><path fill="none" stroke="#840000" stroke-linecap="round" stroke-width="1.852" d="M 769.6388969810262 212.30280199369938 L 810.7290654683311 212.5456273964025"/><path fill="none" stroke="#840000" stroke-linecap="round" stroke-width="1.852" d="M 834.1239830761746 153.45908786670344 L 834.06843780678 192.9262606124795"/><path fill="none" stroke="#840000" stroke-linecap="round" stroke-width="1.852" d="M 834.772363005817 252.02056722234894 L 834.8279082752116 203.28379625402425"/><path fill="none" stroke="#840000" stroke-linecap="round" stroke-width="1.852" d="M 814.6843978141918 192.75242243436435 L 834.7928777253134 192.87165961266464"/><path fill="none" stroke="#840000" stroke-linecap="round" stroke-width="1.852" d="M 814.7441089787909 189.1523483740062 L 814.6246866495926 196.35249649472246"/><path fill="none" stroke="#840000" stroke-linecap="round" stroke-width="1.852" d="M 814.6843978141918 212.2122261744067 L 834.7928777253134 212.331463352707"/><path fill="none" stroke="#840000" stroke-linecap="round" stroke-width="1.852" d="M 814.73685106359 209.8710486146962 L 814.6174287343918 217.07119673541246"/><path fill="none" stroke="#840000" stroke-linecap="round" stroke-width="1.852" d="M 814.7441089787909 199.5116984943512 L 814.6246866495926 206.71184661506746"/><path fill="none" stroke="#840000" stroke-linecap="round" stroke-width="1.852" d="M 824.7386562848424 199.90555148453808 L 824.7386562848424 206.51470719644132 L 831.3814076271844 203.24884902203013 L 824.7386562848424 199.90555148453808"/><path fill="none" stroke="#840000" stroke-linecap="round" stroke-width="1.852" d="M 814.6843978141918 203.11177255470932 L 834.7928777253134 203.2310097330096"/><path fill="none" stroke="#840000" stroke-linecap="round" stroke-width="1.852" d="M 810.7846107377258 192.6977936619148 L 810.7290654683312 212.5456273964025"/><text x="805.997" y="169.327" fill="#0F0F0F" dominant-baseline="middle" font-family="sans-serif" font-size="16.664" text-anchor="end">M1</text><circle cx="820.644" cy="202.42" r="26.712" fill="none" stroke="#840000" stroke-width="1.852"/></g><g data-circuit-json-type="schematic_component" data-schematic-component-id="schematic_component_3"><rect width="96.302" height="24.494" x="669.507" y="276.64" fill="transparent" class="component-overlay"/><path fill="none" stroke="#840000" stroke-linecap="round" stroke-width="1.852" d="M 704.5734452453871 288.8865383729359 L 729.067363038381 276.6395748476665"/><path fill="none" stroke="#840000" stroke-linecap="round" stroke-width="1.852" d="M 729.067363038381 301.1335018982056 L 704.5734452453871 288.8865383729359"/><path fill="none" stroke="#840000" stroke-linecap="round" stroke-width="1.852" d="M 729.067363038381 276.63957484766684 L 729.067363038381 301.1335018982056"/><path fill="none" stroke="#840000" stroke-linecap="round" stroke-width="1.852" d="M 704.5734452453871 301.1335018982057 L 704.5734452453871 276.63957484766684"/><path fill="none" stroke="#840000" stroke-linecap="round" stroke-width="1.852" d="M 729.2714641307713 288.8865383729359 L 765.8082443566444 288.8865383729359"/><path fill="none" stroke="#840000" stroke-linecap="round" stroke-width="1.852" d="M 669.5067168617649 288.87865094468214 L 704.102912010801 288.87865094468214"/><text x="718.424" y="310.135" fill="#0F0F0F" dominant-baseline="hanging" font-family="sans-serif" font-size="16.664" text-anchor="middle">D1</text></g><g data-circuit-json-type="schematic_component" data-schematic-component-id="schematic_component_4"><rect width="97.976" height="24.494" x="484.039" y="314.676" fill="transparent" class="component-overlay"/><path fill="none" stroke="#840000" stroke-linecap="round" stroke-width="1.852" d="M 484.0394354615264 326.9228457871635 L 508.53335325452036 326.9228457871635"/><path fill="none" stroke="#840000" stroke-linecap="round" stroke-width="1.852" d="M 557.5211888405084 326.9228457871635 L 582.0151158910472 326.9228457871635"/><path fill="none" stroke="#840000" stroke-linecap="round" stroke-width="1.852" d="M 533.0272617899694 314.67588226189406 L 557.5211795829634 314.67588226189406 L 557.5211795829634 339.1698093124329 L 508.5333347394305 339.1698093124329 L 508.5333347394305 314.67588226189406 L 533.0272617899693 314.67588226189406"/><text x="531.424" y="309.981" fill="#0F0F0F" dominant-baseline="auto" font-family="sans-serif" font-size="16.664" text-anchor="middle">R2</text><text x="531.424" y="345.931" fill="#0F0F0F" dominant-baseline="hanging" font-family="sans-serif" font-size="16.664" text-anchor="middle">1kΩ</text></g><g data-circuit-json-type="schematic_component" data-schematic-component-id="schematic_component_5"><rect width="24.494" height="97.976" x="754.25" y="323.939" fill="transparent" class="component-overlay"/><path fill="none" stroke="#840000" stroke-linecap="round" stroke-width="1.852" d="M 766.4973735204733 421.9150719745819 L 766.4973735204733 397.421154181588"/><path fill="none" stroke="#840000" stroke-linecap="round" stroke-width="1.852" d="M 766.4973735204733 348.4333185955999 L 766.4973735204733 323.9393915450611"/><path fill="none" stroke="#840000" stroke-linecap="round" stroke-width="1.852" d="M 754.2504099952039 372.9272456461389 L 754.2504099952039 348.43332785314493 L 778.7443370457428 348.43332785314493 L 778.7443370457428 397.4211726966779 L 754.2504099952039 397.4211726966779 L 754.2504099952039 372.92724564613906"/><text x="792.013" y="359.718" fill="#0F0F0F" dominant-baseline="middle" font-family="sans-serif" font-size="16.664" text-anchor="start">R3</text><text x="792.013" y="389.342" fill="#0F0F0F" dominant-baseline="middle" font-family="sans-serif" font-size="16.664" text-anchor="start">1kΩ</text></g><g data-circuit-json-type="schematic_component" data-schematic-component-id="schematic_component_6"><rect width="48.988" height="97.976" x="561.269" y="366.15" fill="transparent" class="component-overlay"/><path fill="none" stroke="#840000" stroke-linecap="round" stroke-width="1.852" d="M 585.7631601999466 366.1499183842018 L 585.7631601999466 407.7895777065371"/><path fill="none" stroke="#840000" stroke-linecap="round" stroke-width="1.852" d="M 585.7631601999466 422.48593023384245 L 585.7631601999466 464.12559881372266"/><path fill="none" stroke="#840000" stroke-linecap="round" stroke-width="1.852" d="M 561.2692424069527 407.7895777065371 L 610.2570779929407 407.7895777065371"/><path fill="none" stroke="#840000" stroke-linecap="round" stroke-width="1.852" d="M 561.2692424069527 422.48593023384245 L 610.2570779929407 422.48593023384245"/><text x="606.754" y="396.152" fill="#0F0F0F" dominant-baseline="auto" font-family="sans-serif" font-size="16.664" text-anchor="start">C13</text><text x="606.754" y="432.97" fill="#0F0F0F" dominant-baseline="hanging" font-family="sans-serif" font-size="16.664" text-anchor="start">1µF</text></g><g class="trace" data-circuit-json-type="schematic_trace" data-schematic-trace-id="schematic_trace_0"><path fill="none" stroke="#009600" stroke-linecap="round" stroke-linejoin="round" stroke-width="14.812" d="M 558.5815075534838 289.1821192046545 L 500.97475696181186 289.1821192046545 L 500.97475696181186 308.59717336292 L 443.36800637014 308.59717336292" class="trace-invisible-hover-outline" opacity="0"/><path fill="none" stroke="#009600" stroke-linecap="round" stroke-linejoin="round" stroke-width="1.852" d="M 558.5815075534838 289.1821192046545 L 500.97475696181186 289.1821192046545 L 500.97475696181186 308.59717336292 L 443.36800637014 308.59717336292"/></g><g class="trace" data-circuit-json-type="schematic_trace" data-schematic-trace-id="schematic_trace_1"><path fill="none" stroke="#009600" stroke-linecap="round" stroke-linejoin="round" stroke-width="14.812" d="M 669.8985517071637 288.8735592949877 L 655.5102388508261 288.8735592949877 L 655.5102388508261 289.19363559050896 L 641.1219259944886 289.19363559050896" class="trace-invisible-hover-outline" opacity="0"/><path fill="none" stroke="#009600" stroke-linecap="round" stroke-linejoin="round" stroke-width="1.852" d="M 669.8985517071637 288.8735592949877 L 655.5102388508261 288.8735592949877 L 655.5102388508261 289.19363559050896 L 641.1219259944886 289.19363559050896"/></g><g class="trace" data-circuit-json-type="schematic_trace" data-schematic-trace-id="schematic_trace_2"><path fill="none" stroke="#009600" stroke-linecap="round" stroke-linejoin="round" stroke-width="14.812" d="M 669.8985517071637 288.8735592949877 L 669.8985517071637 253.83449056987655 L 834.7582545073908 253.83449056987655" class="trace-invisible-hover-outline" opacity="0"/><path fill="none" stroke="#009600" stroke-linecap="round" stroke-linejoin="round" stroke-width="1.852" d="M 669.8985517071637 288.8735592949877 L 669.8985517071637 253.83449056987655 L 834.7582545073908 253.83449056987655"/><circle cx="669.899" cy="288.874" r="2.777" fill="#009600" class="trace-junction"/></g><g class="trace" data-circuit-json-type="schematic_trace" data-schematic-trace-id="schematic_trace_3"><path fill="none" stroke="#009600" stroke-linecap="round" stroke-linejoin="round" stroke-width="14.812" d="M 766.0191034568111 288.96841210002344 L 767.3820778382899 288.96841210002344 L 767.3820778382899 188.24908967474997" class="trace-invisible-hover-outline" opacity="0"/><path fill="none" stroke="#009600" stroke-linecap="round" stroke-linejoin="round" stroke-width="1.852" d="M 766.0191034568111 288.96841210002344 L 767.3820778382899 288.96841210002344 L 767.3820778382899 188.24908967474997"/></g><g class="trace" data-circuit-json-type="schematic_trace" data-schematic-trace-id="schematic_trace_4"><path fill="none" stroke="#009600" stroke-linecap="round" stroke-linejoin="round" stroke-width="14.812" d="M 767.2454605803603 212.22936189001496 L 767.3820778382899 212.22936189001496 L 767.3820778382899 188.24908967474997" class="trace-invisible-hover-outline" opacity="0"/><path fill="none" stroke="#009600" stroke-linecap="round" stroke-linejoin="round" stroke-width="1.852" d="M 767.2454605803603 212.22936189001496 L 767.3820778382899 212.22936189001496 L 767.3820778382899 188.24908967474997"/></g><g class="trace" data-circuit-json-type="schematic_trace" data-schematic-trace-id="schematic_trace_5"><path fill="none" stroke="#009600" stroke-linecap="round" stroke-linejoin="round" stroke-width="14.812" d="M 834.1381286047804 151.64510897390642 L 834.0364011117381 151.64510897390642 L 834.0364011117381 123.44627538111996" class="trace-invisible-hover-outline" opacity="0"/><path fill="none" stroke="#009600" stroke-linecap="round" stroke-linejoin="round" stroke-width="1.852" d="M 834.1381286047804 151.64510897390642 L 834.0364011117381 151.64510897390642 L 834.0364011117381 123.44627538111996"/></g><g class="trace" data-circuit-json-type="schematic_trace" data-schematic-trace-id="schematic_trace_6"><path fill="none" stroke="#009600" stroke-linecap="round" stroke-linejoin="round" stroke-width="14.812" d="M 443.36800637014 345.62735295927996 L 461.88309616832 345.62735295927996 L 461.88309616832 401.17262235382" class="trace-invisible-hover-outline" opacity="0"/><path fill="none" stroke="#009600" stroke-linecap="round" stroke-linejoin="round" stroke-width="1.852" d="M 443.36800637014 345.62735295927996 L 461.88309616832 345.62735295927996 L 461.88309616832 401.17262235382"/></g><g class="trace" data-circuit-json-type="schematic_trace" data-schematic-trace-id="schematic_trace_7"><path fill="none" stroke="#009600" stroke-linecap="round" stroke-linejoin="round" stroke-width="14.812" d="M 585.8467373152955 465.589568448975 L 585.934197816126 465.589568448975 L 585.934197816126 503.00561624381" class="trace-invisible-hover-outline" opacity="0"/><path fill="none" stroke="#009600" stroke-linecap="round" stroke-linejoin="round" stroke-width="1.852" d="M 585.8467373152955 465.589568448975 L 585.934197816126 465.589568448975 L 585.934197816126 503.00561624381"/></g><g class="trace" data-circuit-json-type="schematic_trace" data-schematic-trace-id="schematic_trace_8"><path fill="none" stroke="#009600" stroke-linecap="round" stroke-linejoin="round" stroke-width="14.812" d="M 766.5303488954041 423.9461680678975 L 766.4563233483809 423.9461680678975 L 766.4563233483809 456.71789174836" class="trace-invisible-hover-outline" opacity="0"/><path fill="none" stroke="#009600" stroke-linecap="round" stroke-linejoin="round" stroke-width="1.852" d="M 766.5303488954041 423.9461680678975 L 766.4563233483809 423.9461680678975 L 766.4563233483809 456.71789174836"/></g><g class="trace" data-circuit-json-type="schematic_trace" data-schematic-trace-id="schematic_trace_9"><path fill="none" stroke="#009600" stroke-linecap="round" stroke-linejoin="round" stroke-width="14.812" d="M 443.36800637014 327.1122631611 L 461.88309616832 327.1122631611 L 461.88309616832 262.30944886747" class="trace-invisible-hover-outline" opacity="0"/><path fill="none" stroke="#009600" stroke-linecap="round" stroke-linejoin="round" stroke-width="1.852" d="M 443.36800637014 327.1122631611 L 461.88309616832 327.1122631611 L 461.88309616832 262.30944886747"/></g><g class="trace" data-circuit-json-type="schematic_trace" data-schematic-trace-id="schematic_trace_10"><path fill="none" stroke="#009600" stroke-linecap="round" stroke-linejoin="round" stroke-width="14.812" d="M 482.00833936821084 326.9558211620943 L 461.88309616832 326.9558211620943 L 461.88309616832 262.30944886747" class="trace-invisible-hover-outline" opacity="0"/><path fill="none" stroke="#009600" stroke-linecap="round" stroke-linejoin="round" stroke-width="1.852" d="M 482.00833936821084 326.9558211620943 L 461.88309616832 326.9558211620943 L 461.88309616832 262.30944886747"/></g><g class="trace" data-circuit-json-type="schematic_trace" data-schematic-trace-id="schematic_trace_11"><path fill="none" stroke="#009600" stroke-linecap="round" stroke-linejoin="round" stroke-width="14.812" d="M 766.5809413782775 321.8741999138823 L 766.5809413782775 288.96841210002344 L 766.0191034568111 288.96841210002344" class="trace-invisible-hover-outline" opacity="0"/><path fill="none" stroke="#009600" stroke-linecap="round" stroke-linejoin="round" stroke-width="1.852" d="M 766.5809413782775 321.8741999138823 L 766.5809413782775 288.96841210002344 L 766.0191034568111 288.96841210002344"/><circle cx="766.581" cy="288.968" r="2.777" fill="#009600" class="trace-junction"/></g><g class="trace" data-circuit-json-type="schematic_trace" data-schematic-trace-id="schematic_trace_12"><path fill="none" stroke="#009600" stroke-linecap="round" stroke-linejoin="round" stroke-width="14.812" d="M 585.7961263173323 363.53267157805556 L 585.7961263173323 327.00641364496767 L 584.080307522226 327.00641364496767" class="trace-invisible-hover-outline" opacity="0"/><path fill="none" stroke="#009600" stroke-linecap="round" stroke-linejoin="round" stroke-width="1.852" d="M 585.7961263173323 363.53267157805556 L 585.7961263173323 327.00641364496767 L 584.080307522226 327.00641364496767"/></g><g class="schematic-port-hover" data-schematic-port-id="source_port_0"><circle cx="443.368" cy="308.597" r="3.703" fill="red" opacity="0"/></g><g class="schematic-port-hover" data-schematic-port-id="source_port_1"><circle cx="443.368" cy="327.112" r="3.703" fill="red" opacity="0"/></g><g class="schematic-port-hover" data-schematic-port-id="source_port_2"><circle cx="443.368" cy="345.627" r="3.703" fill="red" opacity="0"/></g><g class="schematic-port-hover" data-schematic-port-id="source_port_3"><circle cx="558.582" cy="289.182" r="3.703" fill="red" opacity="0"/></g><g class="schematic-port-hover" data-schematic-port-id="source_port_4"><circle cx="641.122" cy="289.194" r="3.703" fill="red" opacity="0"/></g><g class="schematic-port-hover" data-schematic-port-id="source_port_5"><circle cx="834.138" cy="151.645" r="3.703" fill="red" opacity="0"/></g><g class="schematic-port-hover" data-schematic-port-id="source_port_6"><circle cx="834.758" cy="253.834" r="3.703" fill="red" opacity="0"/></g><g class="schematic-port-hover" data-schematic-port-id="source_port_7"><circle cx="767.245" cy="212.229" r="3.703" fill="red" opacity="0"/></g><g class="schematic-port-hover" data-schematic-port-id="source_port_8"><circle cx="766.019" cy="288.968" r="3.703" fill="red" opacity="0"/></g><g class="schematic-port-hover" data-schematic-port-id="source_port_9"><circle cx="669.899" cy="288.874" r="3.703" fill="red" opacity="0"/></g><g class="schematic-port-hover" data-schematic-port-id="source_port_10"><circle cx="482.008" cy="326.956" r="3.703" fill="red" opacity="0"/></g><g class="schematic-port-hover" data-schematic-port-id="source_port_11"><circle cx="584.08" cy="327.006" r="3.703" fill="red" opacity="0"/></g><g class="schematic-port-hover" data-schematic-port-id="source_port_12"><circle cx="766.53" cy="423.946" r="3.703" fill="red" opacity="0"/></g><g class="schematic-port-hover" data-schematic-port-id="source_port_13"><circle cx="766.581" cy="321.874" r="3.703" fill="red" opacity="0"/></g><g class="schematic-port-hover" data-schematic-port-id="source_port_14"><circle cx="585.847" cy="465.59" r="3.703" fill="red" opacity="0"/></g><g class="schematic-port-hover" data-schematic-port-id="source_port_15"><circle cx="585.796" cy="363.533" r="3.703" fill="red" opacity="0"/></g><rect width="17.152" height="37.915" x="758.737" y="148.95" fill="transparent" class="component-overlay"/><path fill="none" stroke="#840000" stroke-linecap="round" stroke-width="1.852" d="M 767.1775416412896 148.95003394434136 L 758.7368732465502 166.63848978584696"/><path fill="none" stroke="#840000" stroke-linecap="round" stroke-width="1.852" d="M 767.4485377531205 148.95925445906084 L 775.8892061478596 166.64775658829095"/><path fill="none" stroke="#840000" stroke-linecap="round" stroke-width="1.852" d="M 767.2752179975198 149.4167715855188 L 767.2752179975198 186.8654107264075"/><text x="766.861" y="143.525" fill="#0F0F0F" dominant-baseline="ideographic" font-family="sans-serif" font-size="16.664" text-anchor="middle">V_USB</text><rect width="17.152" height="37.915" x="825.391" y="84.147" fill="transparent" class="component-overlay"/><path fill="none" stroke="#840000" stroke-linecap="round" stroke-width="1.852" d="M 833.8318649147377 84.14721965071135 L 825.3911965199983 101.83567549221695"/><path fill="none" stroke="#840000" stroke-linecap="round" stroke-width="1.852" d="M 834.1028610265686 84.15644016543084 L 842.5435294213077 101.84494229466094"/><path fill="none" stroke="#840000" stroke-linecap="round" stroke-width="1.852" d="M 833.9295412709679 84.61395729188881 L 833.9295412709679 122.0625964327775"/><text x="833.515" y="78.722" fill="#0F0F0F" dominant-baseline="ideographic" font-family="sans-serif" font-size="16.664" text-anchor="middle">V_BATT</text><rect width="41.596" height="44.754" x="440.569" y="401.072" fill="transparent" class="component-overlay"/><path fill="none" stroke="#840000" stroke-linecap="round" stroke-width="1.852" d="M 461.7825407156261 401.07231685483833 L 461.7825407156261 431.5882768622352"/><path fill="none" stroke="#840000" stroke-linecap="round" stroke-width="1.852" d="M 440.5685247926552 431.58524038750835 L 482.16464588133 431.58524038750835"/><path fill="none" stroke="#840000" stroke-linecap="round" stroke-width="1.852" d="M 445.7680434003189 438.7056255013741 L 476.9651272736662 438.7056255013741"/><path fill="none" stroke="#840000" stroke-linecap="round" stroke-width="1.852" d="M 456.1670713581014 445.82601061523974 L 466.5660993158839 445.82601061523974"/><text x="459.789" y="456.669" fill="#0F0F0F" dominant-baseline="hanging" font-family="sans-serif" font-size="16.664" text-anchor="middle">GND</text><rect width="41.596" height="44.754" x="564.62" y="502.905" fill="transparent" class="component-overlay"/><path fill="none" stroke="#840000" stroke-linecap="round" stroke-width="1.852" d="M 585.8336423634322 502.90531074482834 L 585.8336423634322 533.4212707522253"/><path fill="none" stroke="#840000" stroke-linecap="round" stroke-width="1.852" d="M 564.6196264404612 533.4182342774983 L 606.215747529136 533.4182342774983"/><path fill="none" stroke="#840000" stroke-linecap="round" stroke-width="1.852" d="M 569.8191450481249 540.5386193913641 L 601.0162289214722 540.5386193913641"/><path fill="none" stroke="#840000" stroke-linecap="round" stroke-width="1.852" d="M 580.2181730059075 547.6590045052297 L 590.6172009636899 547.6590045052297"/><text x="583.84" y="558.502" fill="#0F0F0F" dominant-baseline="hanging" font-family="sans-serif" font-size="16.664" text-anchor="middle">GND</text><rect width="41.596" height="44.754" x="745.142" y="456.618" fill="transparent" class="component-overlay"/><path fill="none" stroke="#840000" stroke-linecap="round" stroke-width="1.852" d="M 766.3557678956871 456.61758624937835 L 766.3557678956871 487.1335462567752"/><path fill="none" stroke="#840000" stroke-linecap="round" stroke-width="1.852" d="M 745.1417519727161 487.13050978204836 L 786.7378730613909 487.13050978204836"/><path fill="none" stroke="#840000" stroke-linecap="round" stroke-width="1.852" d="M 750.3412705803798 494.2508948959141 L 781.5383544537272 494.2508948959141"/><path fill="none" stroke="#840000" stroke-linecap="round" stroke-width="1.852" d="M 760.7402985381624 501.37128000977975 L 771.1393264959448 501.37128000977975"/><text x="764.362" y="512.215" fill="#0F0F0F" dominant-baseline="hanging" font-family="sans-serif" font-size="16.664" text-anchor="middle">GND</text><path fill="rgba(255, 255, 255, 0.6)" stroke="#840000" stroke-width="1.852" d="M 461.88309616832,262.30944886747 L 451.88494767730276,257.3103746219614 L 451.88494767730276,224.94599765474277 L 471.8812446593372,224.94599765474277 L 471.8812446593372,257.3103746219614 Z" class="net-label"/><text x="461.883" y="253.978" fill="#840000" class="net-label-text" dominant-baseline="central" font-family="sans-serif" font-size="16.664" font-variant-numeric="tabular-nums" text-anchor="start" transform="rotate(-90 461.88309616832 253.977658458289)">EN</text></svg>