<svg xmlns="http://www.w3.org/2000/svg" width="1200" height="600" data-real-to-screen-transform="matrix(139.9159313797,0,0,-139.9159313797,441.2057386523,242.5396031823)" data-software-used-string="@tscircuit/core@0.0.586" style="background-color:#f5f1ed"><style>.boundary{fill:#f5f1ed}.chip,.component{stroke:#840000}.component{fill:none}.chip{fill:#ffffc2}.component-pin{fill:none;stroke:#840000}.trace:hover{filter:invert(1)}.pin-number{fill:#a90000}</style><rect width="1200" height="600" x="0" y="0" class="boundary"/><g data-circuit-json-type="schematic_component" data-schematic-component-id="schematic_component_0"><rect width="55.966" height="83.95" x="413.223" y="200.565" fill="#FFFFC2" stroke="#840000" stroke-width="2.798" class="component chip"/><rect width="55.966" height="83.95" x="413.223" y="200.565" fill="transparent" class="component-overlay"/><text x="413.223" y="182.376" fill="#006464" dominant-baseline="middle" font-family="sans-serif" font-size="25.185" text-anchor="start" transform="rotate(0, 413.22255237636, 182.37575268902899)">U1</text><line x1="522.357" x2="469.189" y1="228.548" y2="228.548" stroke-width="2.798" class="component-pin"/><g data-schematic-port-id="source_port_0"><rect width="5.597" height="5.597" x="522.357" y="225.75" opacity="0"/></g><text x="497.172" y="225.75" fill="#A90000" class="pin-number" dominant-baseline="auto" font-size="20.987" text-anchor="middle" style="font-family:sans-serif">1</text><line x1="522.357" x2="469.189" y1="256.531" y2="256.531" stroke-width="2.798" class="component-pin"/><g data-schematic-port-id="source_port_1"><rect width="5.597" height="5.597" x="522.357" y="253.733" opacity="0"/></g><text x="497.172" y="253.733" fill="#A90000" class="pin-number" dominant-baseline="auto" font-size="20.987" text-anchor="middle" style="font-family:sans-serif">2</text></g><g data-circuit-json-type="schematic_component" data-schematic-component-id="schematic_component_1"><rect width="147.214" height="64.285" x="613.142" y="439.525" fill="transparent" class="component-overlay"/><path fill="none" stroke="#840000" stroke-linecap="round" stroke-width="2.798" d="M 667.8072789934572 485.30080911792834 L 704.8266978404718 503.81052553723265"/><path fill="none" stroke="#840000" stroke-linecap="round" stroke-width="2.798" d="M 668.9574998821435 485.3321223033712 L 613.1422785109329 485.3321223033712"/><path fill="none" stroke="#840000" stroke-linecap="round" stroke-width="2.798" d="M 704.8266978404718 466.79109269862454 L 667.8072789934572 485.30080911792834"/><path fill="none" stroke="#840000" stroke-linecap="round" stroke-width="2.798" d="M 704.8266978404718 503.81052553723265 L 704.8266978404718 466.79109269862454"/><path fill="none" stroke="#840000" stroke-linecap="round" stroke-width="2.798" d="M 667.8072789934572 466.79109269862454 L 667.8072789934572 503.81052553723265"/><path fill="none" stroke="#840000" stroke-linecap="round" stroke-width="2.798" d="M 705.1126580210256 485.30080911792834 L 760.3558331067902 485.30080911792834"/><path fill="none" stroke="#840000" stroke-linecap="round" stroke-width="2.798" d="M 665.0248548156682 444.84422949223364 L 651.4051162485259 442.48256050328916 L 656.2046244594575 455.46155406267786"/><path fill="none" stroke="#840000" stroke-linecap="round" stroke-width="2.798" d="M 675.6220035088078 461.57045152583356 L 673.939724307864 460.3205825108183 L 656.9040502088314 447.66437500512234 L 656.8159031720623 447.53145487031173"/><path fill="none" stroke="#840000" stroke-linecap="round" stroke-width="2.798" d="M 689.8552174686774 441.8868824170337 L 676.2354789015352 439.5252134280892 L 681.0349871124669 452.5042069874779"/><path fill="none" stroke="#840000" stroke-linecap="round" stroke-width="2.798" d="M 700.452366161817 458.6131044506336 L 698.7700869608732 457.36323543561844 L 681.7344128618408 444.70702792992245 L 681.6462658250715 444.5741077951118"/><text x="686.816" y="427.652" fill="#0F0F0F" dominant-baseline="auto" font-family="sans-serif" font-size="25.185" text-anchor="middle">LED1</text></g><g data-circuit-json-type="schematic_component" data-schematic-component-id="schematic_component_2"><rect width="36.025" height="123.294" x="772.428" y="228.707" fill="transparent" class="component-overlay"/><path fill="none" stroke="#840000" stroke-linecap="round" stroke-width="2.798" d="M 790.5097890428203 315.670398621856 L 790.5097890428203 352.00084343957076"/><path fill="none" stroke="#840000" stroke-linecap="round" stroke-width="2.798" d="M 790.2698751952835 228.7073304639801 L 790.2698751952835 264.84298432202786"/><path fill="none" stroke="#840000" stroke-linecap="round" stroke-width="2.798" d="M 790.2709665395482 280.94397802466455 L 790.2709665395482 299.5714476918175"/><path fill="none" stroke="#840000" stroke-linecap="round" stroke-width="2.798" d="M 772.7209195019846 280.6780957802637 L 807.9778593361884 280.6780957802637"/><path fill="none" stroke="#840000" stroke-linecap="round" stroke-width="2.798" d="M 772.7074455977927 299.84808947134155 L 807.9643854319966 299.84808947134155"/><path fill="none" stroke="#840000" stroke-linecap="round" stroke-width="2.798" d="M 808.434656868957 300.49811090534536 L 808.434656868957 300.49811090534536 L 807.2556059797669 302.68454151702764 L 806.0333211828225 304.6514239746491 L 804.7722781307014 306.4061261547697 L 803.4769524759813 307.9560159339493 L 802.1518198712399 309.30846118874786 L 800.801355969055 310.47082979572525 L 799.4300364220039 311.4504896314415 L 798.0423368826646 312.25480857245645 L 796.6427330036147 312.89115449533 L 795.2357004374318 313.3668952766222 L 793.8257148366937 313.68939879289286 L 792.417251853978 313.8660329207019 L 791.0147871418623 313.90416553660936 L 789.6227963529244 313.8111645171751 L 788.245755139742 313.59439773895895 L 786.8881391548925 313.26123307852095 L 785.5544240509539 312.81903841242104 L 784.2490854805038 312.27518161721906 L 782.9765990961198 311.637030569475 L 781.7414405503796 310.9119531457487 L 780.5480854958608 310.1073172226002 L 779.4010095851412 309.23049067658934 L 778.3046884707984 308.2888413842761 L 777.2635978054101 307.28973722222037 L 776.282213241554 306.24054606698206 L 775.3650104318077 305.1486357951211 L 774.5164650287489 304.0213742831975 L 773.7410526849554 302.86612940777104 L 773.0432490530047 301.69026904540175 L 772.4275297854746 300.5011610726495 L 772.4275297854746 300.5011610726495"/><path fill="none" stroke="#840000" stroke-linecap="round" stroke-width="2.798" d="M 808.4523982090559 280.0385120747407 L 808.4523982090559 280.0385120747407 L 807.2733473198658 277.85208146305837 L 806.0510625229214 275.8851990054369 L 804.7900194708003 274.13049682531636 L 803.4946938160803 272.5806070461367 L 802.1695612113389 271.2281617913382 L 800.8190973091538 270.06579318436076 L 799.4477777621028 269.0861333486445 L 798.0600782227635 268.2818144076296 L 796.6604743437135 267.645468484756 L 795.2534417775307 267.1697277034639 L 793.8434561767926 266.8472241871932 L 792.4349931940768 266.6705900593841 L 791.0325284819612 266.63245744347665 L 789.6405376930234 266.725458462911 L 788.2634964798408 266.94222524112706 L 786.9058804949915 267.27538990156506 L 785.5721653910529 267.71758456766497 L 784.2668268206027 268.26144136286695 L 782.9943404362186 268.89959241061104 L 781.7591818904784 269.6246698343373 L 780.5658268359597 270.42930575748585 L 779.4187509252401 271.30613230349667 L 778.3224298108973 272.24778159580995 L 777.281339145509 273.2468857578657 L 776.2999545816529 274.296076913104 L 775.3827517719067 275.3879871849649 L 774.5342063688479 276.5152486968886 L 773.7587940250543 277.670493572315 L 773.0609903931036 278.8463539346843 L 772.4452711255734 280.03546190743657 L 772.4452711255734 280.03546190743657"/><text x="765.317" y="293.208" fill="#0F0F0F" dominant-baseline="middle" font-family="sans-serif" font-size="25.185" text-anchor="end">JP1</text></g><g data-circuit-json-type="schematic_component" data-schematic-component-id="schematic_component_3"><rect width="41.975" height="27.983" x="628.679" y="242.6" fill="transparent" class="component-overlay"/><path fill="none" stroke="#840000" stroke-linecap="round" stroke-width="2.798" d="M 628.6785121437637 256.59122144390994 L 656.6616984197036 256.59122144390994"/><path fill="none" stroke="#840000" stroke-linecap="round" stroke-width="2.798" d="M 670.6532915576736 242.59962830593994 L 664.5825668107597 243.98523161424185 L 659.714223552525 247.86760581062902 L 657.012496871575 253.4777990713121 L 657.012496871575 259.70464381650777 L 659.714223552525 265.3148370771909 L 664.5825668107597 269.19721127357803 L 670.6532915576736 270.5828145818799"/><text x="674.151" y="256.591" fill="#0F0F0F" dominant-baseline="middle" font-family="sans-serif" font-size="25.185" text-anchor="start">TP1</text></g><g data-circuit-json-type="schematic_component" data-schematic-component-id="schematic_component_4"><rect width="37.019" height="148.078" x="561.475" y="259.381" fill="transparent" class="component-overlay"/><path fill="none" stroke="#840000" stroke-linecap="round" stroke-width="2.798" d="M 579.9846099418614 407.4590725304579 L 579.9846099418614 370.4396536834434"/><path fill="none" stroke="#840000" stroke-linecap="round" stroke-width="2.798" d="M 579.9846099418614 296.4008159894141 L 579.9846099418614 259.38138315080647"/><path fill="none" stroke="#840000" stroke-linecap="round" stroke-width="2.798" d="M 561.4748935225576 333.4202488280219 L 561.4748935225576 296.4008299810074 L 598.4943263611652 296.4008299810074 L 598.4943263611652 370.4396816666298 L 561.4748935225576 370.4396816666298 L 561.4748935225576 333.4202488280222"/><text x="618.548" y="313.456" fill="#0F0F0F" dominant-baseline="middle" font-family="sans-serif" font-size="25.185" text-anchor="start">R7</text><text x="618.548" y="358.23" fill="#0F0F0F" dominant-baseline="middle" font-family="sans-serif" font-size="25.185" text-anchor="start">1kΩ</text></g><g class="trace" data-circuit-json-type="schematic_trace" data-schematic-trace-id="schematic_trace_0"><path fill="none" stroke="#009600" stroke-linecap="round" stroke-linejoin="round" stroke-width="22.387" d="M 790.3860613847012 352.69567994639544 L 790.3860613847012 485.40385720138977 L 761.8401312648318 485.40385720138977" class="trace-invisible-hover-outline" opacity="0"/><path fill="none" stroke="#009600" stroke-linecap="round" stroke-linejoin="round" stroke-width="2.798" d="M 790.3860613847012 352.69567994639544 L 790.3860613847012 485.40385720138977 L 761.8401312648318 485.40385720138977"/></g><g class="trace" data-circuit-json-type="schematic_trace" data-schematic-trace-id="schematic_trace_1"><path fill="none" stroke="#009600" stroke-linecap="round" stroke-linejoin="round" stroke-width="22.387" d="M 580.1109120531181 256.2601105704019 L 580.1109120531181 250.76454911310208 L 530.6508589374198 250.76454911310208 L 530.6508589374198 256.53119632027 L 525.15529748012 256.53119632027" class="trace-invisible-hover-outline" opacity="0"/><path fill="none" stroke="#009600" stroke-linecap="round" stroke-linejoin="round" stroke-width="2.798" d="M 580.1109120531181 256.2601105704019 L 580.1109120531181 250.76454911310208 L 530.6508589374198 250.76454911310208 L 530.6508589374198 256.53119632027 L 525.15529748012 256.53119632027"/></g><g class="trace" data-circuit-json-type="schematic_trace" data-schematic-trace-id="schematic_trace_2"><path fill="none" stroke="#009600" stroke-linecap="round" stroke-linejoin="round" stroke-width="22.387" d="M 580.1109120531181 256.2601105704019 L 580.1109120531181 256.59122144390994 L 628.6785121437636 256.59122144390994" class="trace-invisible-hover-outline" opacity="0"/><path fill="none" stroke="#009600" stroke-linecap="round" stroke-linejoin="round" stroke-width="2.798" d="M 580.1109120531181 256.2601105704019 L 580.1109120531181 256.59122144390994 L 628.6785121437636 256.59122144390994"/></g><g class="trace" data-circuit-json-type="schematic_trace" data-schematic-trace-id="schematic_trace_3"><path fill="none" stroke="#009600" stroke-linecap="round" stroke-linejoin="round" stroke-width="22.387" d="M 580.0344479966193 410.5288140733355 L 580.0344479966193 485.46730907627085 L 611.791684016918 485.46730907627085" class="trace-invisible-hover-outline" opacity="0"/><path fill="none" stroke="#009600" stroke-linecap="round" stroke-linejoin="round" stroke-width="2.798" d="M 580.0344479966193 410.5288140733355 L 580.0344479966193 485.46730907627085 L 611.791684016918 485.46730907627085"/></g><g class="trace" data-circuit-json-type="schematic_trace" data-schematic-trace-id="schematic_trace_4"><path fill="none" stroke="#009600" stroke-linecap="round" stroke-linejoin="round" stroke-width="22.387" d="M 525.15529748012 228.54801004433 L 721.0376014117 228.54801004433 L 721.0376014117 186.57323063042" class="trace-invisible-hover-outline" opacity="0"/><path fill="none" stroke="#009600" stroke-linecap="round" stroke-linejoin="round" stroke-width="2.798" d="M 525.15529748012 228.54801004433 L 721.0376014117 228.54801004433 L 721.0376014117 186.57323063042"/></g><g class="trace" data-circuit-json-type="schematic_trace" data-schematic-trace-id="schematic_trace_5"><path fill="none" stroke="#009600" stroke-linecap="round" stroke-linejoin="round" stroke-width="22.387" d="M 790.4034669265648 227.94641166276472 L 721.0376014117 227.94641166276472 L 721.0376014117 186.57323063042" class="trace-invisible-hover-outline" opacity="0"/><path fill="none" stroke="#009600" stroke-linecap="round" stroke-linejoin="round" stroke-width="2.798" d="M 790.4034669265648 227.94641166276472 L 721.0376014117 227.94641166276472 L 721.0376014117 186.57323063042"/></g><g class="schematic-port-hover" data-schematic-port-id="source_port_0"><circle cx="525.155" cy="228.548" r="5.597" fill="red" opacity="0"/></g><g class="schematic-port-hover" data-schematic-port-id="source_port_1"><circle cx="525.155" cy="256.531" r="5.597" fill="red" opacity="0"/></g><g class="schematic-port-hover" data-schematic-port-id="source_port_2"><circle cx="761.84" cy="485.404" r="5.597" fill="red" opacity="0"/></g><g class="schematic-port-hover" data-schematic-port-id="source_port_3"><circle cx="611.792" cy="485.467" r="5.597" fill="red" opacity="0"/></g><g class="schematic-port-hover" data-schematic-port-id="source_port_4"><circle cx="790.386" cy="352.696" r="5.597" fill="red" opacity="0"/></g><g class="schematic-port-hover" data-schematic-port-id="source_port_5"><circle cx="790.403" cy="227.946" r="5.597" fill="red" opacity="0"/></g><g class="schematic-port-hover" data-schematic-port-id="source_port_6"><circle cx="628.679" cy="256.591" r="5.597" fill="red" opacity="0"/></g><g class="schematic-port-hover" data-schematic-port-id="source_port_7"><circle cx="580.034" cy="410.529" r="5.597" fill="red" opacity="0"/></g><g class="schematic-port-hover" data-schematic-port-id="source_port_8"><circle cx="580.111" cy="256.26" r="5.597" fill="red" opacity="0"/></g><rect width="25.924" height="57.304" x="707.971" y="127.178" fill="transparent" class="component-overlay"/><path fill="none" stroke="#840000" stroke-linecap="round" stroke-width="2.798" d="M 720.72847115291 127.17774246591367 L 707.971482201841 153.911577415785"/><path fill="none" stroke="#840000" stroke-linecap="round" stroke-width="2.798" d="M 721.1380470588374 127.1916780926791 L 733.8950360099059 153.9255830005161"/><path fill="none" stroke="#840000" stroke-linecap="round" stroke-width="2.798" d="M 720.8760964521084 127.88315661715077 L 720.8760964521084 184.48197716205334"/><text x="720.25" y="118.979" fill="#0F0F0F" dominant-baseline="ideographic" font-family="sans-serif" font-size="25.185" text-anchor="middle">V_BATT</text></svg>