<svg xmlns="http://www.w3.org/2000/svg" width="1200" height="600" data-real-to-screen-transform="matrix(125.4915084079,0,0,-125.4915084079,445.7499707186,343.0268551828)" data-software-used-string="@tscircuit/core@0.0.586" style="background-color:#f5f1ed"><style>.boundary{fill:#f5f1ed}.chip,.component{stroke:#840000}.component{fill:none}.chip{fill:#ffffc2}.component-pin{fill:none;stroke:#840000}.trace:hover,.trace:hover .trace-junction{filter:invert(1)}.pin-number{fill:#a90000}</style><rect width="1200" height="600" x="0" y="0" class="boundary"/><g data-circuit-json-type="schematic_component" data-schematic-component-id="schematic_component_0"><rect width="50.197" height="125.492" x="420.652" y="280.281" fill="#FFFFC2" stroke="#840000" stroke-width="2.51" class="component chip"/><rect width="50.197" height="125.492" x="420.652" y="280.281" fill="transparent" class="component-overlay"/><text x="420.652" y="263.967" fill="#006464" dominant-baseline="middle" font-family="sans-serif" font-size="22.588" text-anchor="start" transform="rotate(0, 420.65166903702004, 263.967204885823)">U1</text><line x1="518.535" x2="470.848" y1="305.379" y2="305.379" stroke-width="2.51" class="component-pin"/><g data-schematic-port-id="source_port_0"><rect width="5.02" height="5.02" x="518.535" y="302.87" opacity="0"/></g><text x="495.947" y="302.87" fill="#A90000" class="pin-number" dominant-baseline="auto" font-size="18.824" text-anchor="middle" style="font-family:sans-serif">1</text><line x1="518.535" x2="470.848" y1="330.478" y2="330.478" stroke-width="2.51" class="component-pin"/><g data-schematic-port-id="source_port_1"><rect width="5.02" height="5.02" x="518.535" y="327.968" opacity="0"/></g><text x="495.947" y="327.968" fill="#A90000" class="pin-number" dominant-baseline="auto" font-size="18.824" text-anchor="middle" style="font-family:sans-serif">2</text><line x1="518.535" x2="470.848" y1="355.576" y2="355.576" stroke-width="2.51" class="component-pin"/><g data-schematic-port-id="source_port_2"><rect width="5.02" height="5.02" x="518.535" y="353.066" opacity="0"/></g><text x="495.947" y="353.066" fill="#A90000" class="pin-number" dominant-baseline="auto" font-size="18.824" text-anchor="middle" style="font-family:sans-serif">3</text><line x1="518.535" x2="470.848" y1="380.674" y2="380.674" stroke-width="2.51" class="component-pin"/><g data-schematic-port-id="source_port_3"><rect width="5.02" height="5.02" x="518.535" y="378.164" opacity="0"/></g><text x="495.947" y="378.164" fill="#A90000" class="pin-number" dominant-baseline="auto" font-size="18.824" text-anchor="middle" style="font-family:sans-serif">4</text></g><g data-circuit-json-type="schematic_component" data-schematic-component-id="schematic_component_1"><rect width="110.972" height="60.125" x="540.825" y="176.131" fill="transparent" class="component-overlay"/><path fill="none" stroke="#840000" stroke-linecap="round" stroke-width="2.51" d="M 568.7136409268855 192.34882826490872 L 540.8247092779341 192.34882826490872"/><path fill="none" stroke="#840000" stroke-linecap="round" stroke-width="2.51" d="M 651.7969631053976 192.1336479754416 L 623.9762235421148 192.1336479754416"/><path fill="none" stroke="#840000" stroke-linecap="round" stroke-width="2.51" d="M 596.012448757549 208.36707891327745 L 596.012448757549 236.25601056222894"/><path fill="none" stroke="#840000" stroke-linecap="round" stroke-width="2.51" d="M 611.4216765664634 176.39387553338076 L 611.4216765664634 208.01605406595883"/><path fill="none" stroke="#840000" stroke-linecap="round" stroke-width="2.51" d="M 601.7470342172647 176.9343549109428 L 601.7470342172647 207.49453645531733"/><path fill="none" stroke="#840000" stroke-linecap="round" stroke-width="2.51" d="M 590.5122186897848 176.89943062415293 L 590.5122186897848 207.4229310006199"/><path fill="none" stroke="#840000" stroke-linecap="round" stroke-width="2.51" d="M 601.5025516605846 176.84283395386083 L 590.6120597338742 176.84283395386083"/><path fill="none" stroke="#840000" stroke-linecap="round" stroke-width="2.51" d="M 601.4781812096518 207.5355470802651 L 590.6571488328453 207.5355470802651"/><path fill="none" stroke="#840000" stroke-linecap="round" stroke-width="2.51" d="M 581.1543169078077 176.3817907011211 L 581.1543169078077 208.00396923369914"/><path fill="none" stroke="#840000" stroke-linecap="round" stroke-width="2.51" d="M 580.5713084580462 208.42575874260905 L 580.5713084580462 208.42575874260905 L 578.6102846290685 207.3682603354219 L 576.8461749666875 206.27198515531862 L 575.2723711745205 205.14094744419106 L 573.8822649561841 203.97916144393108 L 572.6692480152956 202.79064139643052 L 571.6267120554717 201.57940154358124 L 570.7480487803294 200.34945612727506 L 570.0266498934858 199.1048193894039 L 569.4559070985576 197.84950557185957 L 569.029212099162 196.58752891653393 L 568.7399565989157 195.32290366531885 L 568.5815323014358 194.05964406010614 L 568.5473309103393 192.8017643427877 L 568.6307441292429 191.55327875525535 L 568.8251636617637 190.31820153940095 L 569.1239812115186 189.10054693711638 L 569.5205884821247 187.90432919029348 L 570.0083771771989 186.73356254082407 L 570.5807390003579 185.59226123060006 L 571.2310656552189 184.48443950151326 L 571.9527488453988 183.41411159545552 L 572.7391802745145 182.38529175431873 L 573.5837516461829 181.40199421999472 L 574.4798546640211 180.46823323437536 L 575.420881031646 179.5880230393525 L 576.4002224526744 178.76537787681795 L 577.4112706307234 178.0043119886636 L 578.4474172694098 177.3088396167813 L 579.5020540723507 176.68297500306295 L 580.5685727431629 176.13073238940032 L 580.5685727431629 176.13073238940032"/><path fill="none" stroke="#840000" stroke-linecap="round" stroke-width="2.51" d="M 611.9953233496975 208.4416710658751 L 611.9953233496975 208.4416710658751 L 613.9563471786753 207.384172658688 L 615.7204568410563 206.2878974785847 L 617.2942606332233 205.15685976745715 L 618.6843668515596 203.99507376719717 L 619.8973837924482 202.80655371969658 L 620.9399197522721 201.5953138668473 L 621.8185830274143 200.36536845054115 L 622.539981914258 199.12073171267 L 623.1107247091861 197.86541789512566 L 623.5374197085818 196.60344123980002 L 623.8266752088281 195.3388159885849 L 623.985099506308 194.0755563833722 L 624.0193008974045 192.81767666605376 L 623.9358876785009 191.5691910785214 L 623.7414681459801 190.33411386266704 L 623.4426505962251 189.11645926038247 L 623.046043325619 187.92024151355955 L 622.5582546305449 186.74947486409016 L 621.9858928073859 185.60817355386612 L 621.3355661525248 184.50035182477933 L 620.613882962345 183.43002391872162 L 619.8274515332292 182.40120407758482 L 618.9828801615608 181.4179065432608 L 618.0867771437227 180.48414555764145 L 617.1457507760978 179.60393536261856 L 616.1664093550694 178.78129020008402 L 615.1553611770205 178.0202243119297 L 614.119214538334 177.3247519400474 L 613.0645777353931 176.69888732632901 L 611.9980590645808 176.1466447126664 L 611.9980590645808 176.1466447126664"/><path fill="none" stroke="#840000" stroke-linecap="round" stroke-width="2.51" d="M 590.5024429012799 192.13462680920722 L 581.1392704759496 192.13462680920722"/><text x="593.75" y="169.801" fill="#0F0F0F" dominant-baseline="auto" font-family="sans-serif" font-size="22.588" text-anchor="middle">JP1</text></g><g data-circuit-json-type="schematic_component" data-schematic-component-id="schematic_component_2"><rect width="66.406" height="132.812" x="701.098" y="289.952" fill="transparent" class="component-overlay"/><path fill="none" stroke="#840000" stroke-linecap="round" stroke-width="2.51" d="M 734.3014494268025 289.95175269808124 L 734.3014494268025 346.39677905128406"/><path fill="none" stroke="#840000" stroke-linecap="round" stroke-width="2.51" d="M 734.3014494268025 366.31855601103814 L 734.3014494268025 422.7635949133918"/><path fill="none" stroke="#840000" stroke-linecap="round" stroke-width="2.51" d="M 701.0984920102628 346.39677905128406 L 767.5044068433426 346.39677905128406"/><path fill="none" stroke="#840000" stroke-linecap="round" stroke-width="2.51" d="M 701.0984920102628 366.31855601103814 L 767.5044068433426 366.31855601103814"/><text x="762.755" y="330.584" fill="#0F0F0F" dominant-baseline="auto" font-family="sans-serif" font-size="22.588" text-anchor="start">C17</text><text x="762.755" y="380.568" fill="#0F0F0F" dominant-baseline="hanging" font-family="sans-serif" font-size="22.588" text-anchor="start">100nF</text></g><g class="trace" data-circuit-json-type="schematic_trace" data-schematic-trace-id="schematic_trace_0"><path fill="none" stroke="#009600" stroke-linecap="round" stroke-linejoin="round" stroke-width="20.079" d="M 521.0448757633401 305.37940266042995 L 595.901464067513 305.37940266042995 L 595.901464067513 261.3056178365473 L 595.901464067513 236.68522916843654" class="trace-invisible-hover-outline" opacity="0"/><path fill="none" stroke="#009600" stroke-linecap="round" stroke-linejoin="round" stroke-width="2.51" d="M 521.0448757633401 305.37940266042995 L 595.901464067513 305.37940266042995 L 595.901464067513 261.3056178365473 L 595.901464067513 236.68522916843654"/></g><g class="trace" data-circuit-json-type="schematic_trace" data-schematic-trace-id="schematic_trace_1"><path fill="none" stroke="#009600" stroke-linecap="round" stroke-linejoin="round" stroke-width="20.079" d="M 734.3461369529468 286.4039195181273 L 734.3461369529468 250.78659332387517 L 595.901464067513 250.78659332387517 L 595.901464067513 236.68522916843654" class="trace-invisible-hover-outline" opacity="0"/><path fill="none" stroke="#009600" stroke-linecap="round" stroke-linejoin="round" stroke-width="2.51" d="M 734.3461369529468 286.4039195181273 L 734.3461369529468 250.78659332387517 L 595.901464067513 250.78659332387517 L 595.901464067513 236.68522916843654"/><circle cx="595.901" cy="250.787" r="3.765" fill="#009600" class="trace-junction"/></g><g class="trace" data-circuit-json-type="schematic_trace" data-schematic-trace-id="schematic_trace_2"><path fill="none" stroke="#009600" stroke-linecap="round" stroke-linejoin="round" stroke-width="20.079" d="M 540.3955659666315 192.23785612402366 L 508.49572492255004 192.23785612402366 L 508.49572492255004 167.33874341173998" class="trace-invisible-hover-outline" opacity="0"/><path fill="none" stroke="#009600" stroke-linecap="round" stroke-linejoin="round" stroke-width="2.51" d="M 540.3955659666315 192.23785612402366 L 508.49572492255004 192.23785612402366 L 508.49572492255004 167.33874341173998"/></g><g class="trace" data-circuit-json-type="schematic_trace" data-schematic-trace-id="schematic_trace_3"><path fill="none" stroke="#009600" stroke-linecap="round" stroke-linejoin="round" stroke-width="20.079" d="M 734.4147431605932 424.74809252905266 L 734.38044005677 424.74809252905266 L 734.38044005677 468.5183635907" class="trace-invisible-hover-outline" opacity="0"/><path fill="none" stroke="#009600" stroke-linecap="round" stroke-linejoin="round" stroke-width="2.51" d="M 734.4147431605932 424.74809252905266 L 734.38044005677 424.74809252905266 L 734.38044005677 468.5183635907"/></g><g class="schematic-port-hover" data-schematic-port-id="source_port_0"><circle cx="521.045" cy="305.379" r="5.02" fill="red" opacity="0"/></g><g class="schematic-port-hover" data-schematic-port-id="source_port_1"><circle cx="521.045" cy="330.478" r="5.02" fill="red" opacity="0"/></g><g class="schematic-port-hover" data-schematic-port-id="source_port_2"><circle cx="521.045" cy="355.576" r="5.02" fill="red" opacity="0"/></g><g class="schematic-port-hover" data-schematic-port-id="source_port_3"><circle cx="521.045" cy="380.674" r="5.02" fill="red" opacity="0"/></g><g class="schematic-port-hover" data-schematic-port-id="source_port_4"><circle cx="540.396" cy="192.238" r="5.02" fill="red" opacity="0"/></g><g class="schematic-port-hover" data-schematic-port-id="source_port_5"><circle cx="595.901" cy="236.685" r="5.02" fill="red" opacity="0"/></g><g class="schematic-port-hover" data-schematic-port-id="source_port_6"><circle cx="652.284" cy="192.253" r="5.02" fill="red" opacity="0"/></g><g class="schematic-port-hover" data-schematic-port-id="source_port_7"><circle cx="734.415" cy="424.748" r="5.02" fill="red" opacity="0"/></g><g class="schematic-port-hover" data-schematic-port-id="source_port_8"><circle cx="734.346" cy="286.404" r="5.02" fill="red" opacity="0"/></g><rect width="23.251" height="51.397" x="496.777" y="114.067" fill="transparent" class="component-overlay"/><path fill="none" stroke="#840000" stroke-linecap="round" stroke-width="2.51" d="M 508.21846398387385 114.06654396391572 L 496.77663766412405 138.04429431946912"/><path fill="none" stroke="#840000" stroke-linecap="round" stroke-width="2.51" d="M 508.58581527643605 114.07904291815315 L 520.0276415961854 138.05685601946075"/><path fill="none" stroke="#840000" stroke-linecap="round" stroke-width="2.51" d="M 508.35087007439483 114.6992345018559 L 508.35087007439483 165.4630845813213"/><text x="507.79" y="106.713" fill="#0F0F0F" dominant-baseline="ideographic" font-family="sans-serif" font-size="22.588" text-anchor="middle">V_BATT</text><rect width="56.386" height="60.666" x="705.487" y="468.382" fill="transparent" class="component-overlay"/><path fill="none" stroke="#840000" stroke-linecap="round" stroke-width="2.51" d="M 734.2441311803374 468.38239354134 L 734.2441311803374 509.74858612896463"/><path fill="none" stroke="#840000" stroke-linecap="round" stroke-width="2.51" d="M 705.487275160935 509.74447000748887 L 761.8732828577336 509.74447000748887"/><path fill="none" stroke="#840000" stroke-linecap="round" stroke-width="2.51" d="M 712.5355308289666 519.3965740817775 L 754.8250271897022 519.3965740817775"/><path fill="none" stroke="#840000" stroke-linecap="round" stroke-width="2.51" d="M 726.6320296158785 529.0486781560661 L 740.7285284027904 529.0486781560661"/><text x="731.542" y="543.748" fill="#0F0F0F" dominant-baseline="hanging" font-family="sans-serif" font-size="22.588" text-anchor="middle">GND</text><path fill="rgba(255, 255, 255, 0.6)" stroke="#840000" stroke-width="2.51" d="M 521.0448757633401,330.47770434201 L 527.8214172173667,316.92462143395676 L 670.697682590041,316.92462143395676 L 670.697682590041,344.0307872500632 L 527.8214172173667,344.0307872500632 Z" class="net-label"/><text x="532.339" y="330.478" fill="#840000" class="net-label-text" dominant-baseline="central" font-family="sans-serif" font-size="22.588" font-variant-numeric="tabular-nums" text-anchor="start">FLASH_SHD</text><path fill="rgba(255, 255, 255, 0.6)" stroke="#840000" stroke-width="2.51" d="M 521.0448757633401,355.57600602358997 L 527.8214172173667,342.02292311553674 L 669.8610725339885,342.02292311553674 L 669.8610725339885,369.1290889316432 L 527.8214172173667,369.1290889316432 Z" class="net-label"/><text x="532.339" y="355.576" fill="#840000" class="net-label-text" dominant-baseline="central" font-family="sans-serif" font-size="22.588" font-variant-numeric="tabular-nums" text-anchor="start">FLASH_SCK</text><path fill="rgba(255, 255, 255, 0.6)" stroke="#840000" stroke-width="2.51" d="M 521.0448757633401,380.67430770517 L 527.8214172173667,367.1212247971168 L 662.3315820295145,367.1212247971168 L 662.3315820295145,394.22739061322324 L 527.8214172173667,394.22739061322324 Z" class="net-label"/><text x="532.339" y="380.674" fill="#840000" class="net-label-text" dominant-baseline="central" font-family="sans-serif" font-size="22.588" font-variant-numeric="tabular-nums" text-anchor="start">FLASH_SDI</text><path fill="rgba(255, 255, 255, 0.6)" stroke="#840000" stroke-width="2.51" d="M 652.2839956495286,192.2534672676696 L 659.0605371035552,178.7003843596164 L 801.9368024762296,178.7003843596164 L 801.9368024762296,205.8065501757228 L 659.0605371035552,205.8065501757228 Z" class="net-label"/><text x="663.578" y="192.253" fill="#840000" class="net-label-text" dominant-baseline="central" font-family="sans-serif" font-size="22.588" font-variant-numeric="tabular-nums" text-anchor="start">FLASH_VDD</text></svg>