<svg xmlns="http://www.w3.org/2000/svg" width="1200" height="600" data-real-to-screen-transform="matrix(125.7967125126,0,0,-125.7967125126,437.0932572962,323.5323716874)" data-software-used-string="@tscircuit/core@0.0.586" style="background-color:#f5f1ed"><style>.boundary{fill:#f5f1ed}.chip,.component{stroke:#840000}.component{fill:none}.chip{fill:#ffffc2}.component-pin{fill:none;stroke:#840000}.trace:hover{filter:invert(1)}.pin-number{fill:#a90000}</style><rect width="1200" height="600" x="0" y="0" class="boundary"/><g data-circuit-json-type="schematic_component" data-schematic-component-id="schematic_component_0"><rect width="50.319" height="125.797" x="411.934" y="260.634" fill="#FFFFC2" stroke="#840000" stroke-width="2.516" class="component chip"/><rect width="50.319" height="125.797" x="411.934" y="260.634" fill="transparent" class="component-overlay"/><text x="411.934" y="244.28" fill="#006464" dominant-baseline="middle" font-family="sans-serif" font-size="22.643" text-anchor="start" transform="rotate(0, 411.93391479368, 244.28044280446198)">U1</text><line x1="510.055" x2="462.253" y1="285.793" y2="285.793" stroke-width="2.516" class="component-pin"/><g data-schematic-port-id="source_port_0"><rect width="5.032" height="5.032" x="510.055" y="283.277" opacity="0"/></g><text x="487.412" y="283.277" fill="#A90000" class="pin-number" dominant-baseline="auto" font-size="18.87" text-anchor="middle" style="font-family:sans-serif">1</text><line x1="510.055" x2="462.253" y1="310.953" y2="310.953" stroke-width="2.516" class="component-pin"/><g data-schematic-port-id="source_port_1"><rect width="5.032" height="5.032" x="510.055" y="308.437" opacity="0"/></g><text x="487.412" y="308.437" fill="#A90000" class="pin-number" dominant-baseline="auto" font-size="18.87" text-anchor="middle" style="font-family:sans-serif">2</text><line x1="510.055" x2="462.253" y1="336.112" y2="336.112" stroke-width="2.516" class="component-pin"/><g data-schematic-port-id="source_port_2"><rect width="5.032" height="5.032" x="510.055" y="333.596" opacity="0"/></g><text x="487.412" y="333.596" fill="#A90000" class="pin-number" dominant-baseline="auto" font-size="18.87" text-anchor="middle" style="font-family:sans-serif">3</text><line x1="510.055" x2="462.253" y1="361.271" y2="361.271" stroke-width="2.516" class="component-pin"/><g data-schematic-port-id="source_port_3"><rect width="5.032" height="5.032" x="510.055" y="358.755" opacity="0"/></g><text x="487.412" y="358.755" fill="#A90000" class="pin-number" dominant-baseline="auto" font-size="18.87" text-anchor="middle" style="font-family:sans-serif">4</text></g><g data-circuit-json-type="schematic_component" data-schematic-component-id="schematic_component_1"><rect width="33.284" height="133.135" x="582.696" y="169.182" fill="transparent" class="component-overlay"/><path fill="none" stroke="#840000" stroke-linecap="round" stroke-width="2.516" d="M 599.3383551526567 302.3169781395533 L 599.3383551526567 269.0332688138184"/><path fill="none" stroke="#840000" stroke-linecap="round" stroke-width="2.516" d="M 599.3383551526567 202.46585016234826 L 599.3383551526567 169.18212825694212"/><path fill="none" stroke="#840000" stroke-linecap="round" stroke-width="2.516" d="M 582.6964941999537 235.74957206775463 L 582.6964941999537 202.46586274201968 L 615.9802161053599 202.46586274201968 L 615.9802161053599 269.033293973161 L 582.6964941999537 269.033293973161 L 582.6964941999537 235.74957206775483"/><text x="634.01" y="217.8" fill="#0F0F0F" dominant-baseline="middle" font-family="sans-serif" font-size="22.643" text-anchor="start">R7</text><text x="634.01" y="258.055" fill="#0F0F0F" dominant-baseline="middle" font-family="sans-serif" font-size="22.643" text-anchor="start">2.2kΩ</text></g><g data-circuit-json-type="schematic_component" data-schematic-component-id="schematic_component_2"><rect width="32.39" height="110.852" x="628.362" y="343.568" fill="transparent" class="component-overlay"/><path fill="none" stroke="#840000" stroke-linecap="round" stroke-width="2.516" d="M 644.6192612819168 421.75577702724775 L 644.6192612819168 454.4200381812283"/><path fill="none" stroke="#840000" stroke-linecap="round" stroke-width="2.516" d="M 644.4035576589713 343.56833992559143 L 644.4035576589713 376.05746689641177"/><path fill="none" stroke="#840000" stroke-linecap="round" stroke-width="2.516" d="M 644.404538873329 390.53367454485425 L 644.404538873329 407.281406010808"/><path fill="none" stroke="#840000" stroke-linecap="round" stroke-width="2.516" d="M 628.6255049920785 390.2946230520666 L 660.3245908693059 390.2946230520666"/><path fill="none" stroke="#840000" stroke-linecap="round" stroke-width="2.516" d="M 628.6133907686635 407.53013127078793 L 660.3124766458909 407.53013127078793"/><path fill="none" stroke="#840000" stroke-linecap="round" stroke-width="2.516" d="M 660.7352919763172 408.114557637779 L 660.7352919763172 408.114557637779 L 659.6752216592162 410.0803508135406 L 658.5762802613815 411.84875091371237 L 657.4424917876216 413.42638230651517 L 656.2778802427446 414.81986936017 L 655.0864696315588 416.03583644289785 L 653.8722839588722 417.08090792291966 L 652.6393472294934 417.96170816845637 L 651.3916834482304 418.68486154772893 L 650.1333166198915 419.25699242895826 L 648.8682707492849 419.6847251803654 L 647.6005698412188 419.97468417017126 L 646.3342379005014 420.13349376659676 L 645.073298931941 420.16777833786296 L 643.8217769403459 420.0841622521907 L 642.5836959305243 419.88926987780104 L 641.3630799072843 419.58972558291487 L 640.1639528754342 419.19215373575315 L 638.9903388397823 418.70317870453687 L 637.8462618051368 418.1294248574869 L 636.7357457763059 417.47751656282435 L 635.6628147580977 416.75407818877 L 634.6314927553208 415.96573410354495 L 633.645803772783 415.11910867537006 L 632.7097718152928 414.22082627246635 L 631.8274208876585 413.27751126305475 L 631.002774994688 412.2957880153562 L 630.2398581411899 411.2822808975917 L 629.542694331972 410.24361427798215 L 628.9153075718431 409.18641252474856 L 628.3617218656109 408.1173000061118 L 628.3617218656109 408.1173000061118"/><path fill="none" stroke="#840000" stroke-linecap="round" stroke-width="2.516" d="M 660.7512429994638 389.71958111982883 L 660.7512429994638 389.71958111982883 L 659.6911726823627 387.7537879440672 L 658.5922312845281 385.98538784389547 L 657.4584428107681 384.40775645109267 L 656.2938312658912 383.01426939743783 L 655.1024206547053 381.79830231471 L 653.8882349820188 380.75323083468817 L 652.65529825264 379.87243058915146 L 651.4076344713769 379.1492772098789 L 650.149267643038 378.5771463286496 L 648.8842217724314 378.14941357724246 L 647.6165208643653 377.8594545874366 L 646.3501889236479 377.700644991011 L 645.0892499550876 377.6663604197449 L 643.8377279634925 377.7499765054171 L 642.5996469536708 377.9448688798068 L 641.3790309304309 378.24441317469297 L 640.1799038985807 378.6419850218547 L 639.0062898629288 379.13096005307096 L 637.8622128282833 379.7047139001209 L 636.7516967994524 380.3566221947835 L 635.6787657812444 381.08006056883784 L 634.6474437784673 381.8684046540629 L 633.6617547959296 382.7150300822378 L 632.7257228384394 383.6133124851415 L 631.843371910805 384.5566274945531 L 631.0187260178345 385.5383507422516 L 630.2558091643364 386.5518578600162 L 629.5586453551186 387.5905244796257 L 628.9312585949896 388.6477262328593 L 628.3776728887574 389.716838751496 L 628.3776728887574 389.716838751496"/><text x="621.969" y="401.56" fill="#0F0F0F" dominant-baseline="middle" font-family="sans-serif" font-size="22.643" text-anchor="end">JP1</text></g><g class="trace" data-circuit-json-type="schematic_trace" data-schematic-trace-id="schematic_trace_0"><path fill="none" stroke="#009600" stroke-linecap="round" stroke-linejoin="round" stroke-width="20.127" d="M 599.3831639416541 305.07694543240865 L 599.3831639416541 310.95270043614 L 512.57128480376 310.95270043614" class="trace-invisible-hover-outline" opacity="0"/><path fill="none" stroke="#009600" stroke-linecap="round" stroke-linejoin="round" stroke-width="2.516" d="M 599.3831639416541 305.07694543240865 L 599.3831639416541 310.95270043614 L 512.57128480376 310.95270043614"/></g><g class="trace" data-circuit-json-type="schematic_trace" data-schematic-trace-id="schematic_trace_1"><path fill="none" stroke="#009600" stroke-linecap="round" stroke-linejoin="round" stroke-width="20.127" d="M 644.5236683600785 342.88420708426287 L 644.5236683600785 336.11204293865995 L 512.57128480376 336.11204293865995" class="trace-invisible-hover-outline" opacity="0"/><path fill="none" stroke="#009600" stroke-linecap="round" stroke-linejoin="round" stroke-width="2.516" d="M 644.5236683600785 342.88420708426287 L 644.5236683600785 336.11204293865995 L 512.57128480376 336.11204293865995"/></g><g class="trace" data-circuit-json-type="schematic_trace" data-schematic-trace-id="schematic_trace_2"><path fill="none" stroke="#009600" stroke-linecap="round" stroke-linejoin="round" stroke-width="20.127" d="M 599.3831639416541 305.07694543240865 L 650.94766856762 305.07694543240865 L 650.94766856762 304.66286481051" class="trace-invisible-hover-outline" opacity="0"/><path fill="none" stroke="#009600" stroke-linecap="round" stroke-linejoin="round" stroke-width="2.516" d="M 599.3831639416541 305.07694543240865 L 650.94766856762 305.07694543240865 L 650.94766856762 304.66286481051"/></g><g class="trace" data-circuit-json-type="schematic_trace" data-schematic-trace-id="schematic_trace_3"><path fill="none" stroke="#009600" stroke-linecap="round" stroke-linejoin="round" stroke-width="20.127" d="M 644.5080192490419 455.04475723523706 L 644.65783294199 455.04475723523706 L 644.65783294199 468.19859107688995" class="trace-invisible-hover-outline" opacity="0"/><path fill="none" stroke="#009600" stroke-linecap="round" stroke-linejoin="round" stroke-width="2.516" d="M 644.5080192490419 455.04475723523706 L 644.65783294199 455.04475723523706 L 644.65783294199 468.19859107688995"/></g><g class="trace" data-circuit-json-type="schematic_trace" data-schematic-trace-id="schematic_trace_4"><path fill="none" stroke="#009600" stroke-linecap="round" stroke-linejoin="round" stroke-width="20.127" d="M 512.57128480376 285.79335793362 L 537.73062730628 285.79335793362 L 537.73062730628 222.89500167731995" class="trace-invisible-hover-outline" opacity="0"/><path fill="none" stroke="#009600" stroke-linecap="round" stroke-linejoin="round" stroke-width="2.516" d="M 512.57128480376 285.79335793362 L 537.73062730628 285.79335793362 L 537.73062730628 222.89500167731995"/></g><g class="trace" data-circuit-json-type="schematic_trace" data-schematic-trace-id="schematic_trace_5"><path fill="none" stroke="#009600" stroke-linecap="round" stroke-linejoin="round" stroke-width="20.127" d="M 599.451911845042 166.37583003486856 L 599.371016437454 166.37583003486856 L 599.371016437454 134.83730291849997" class="trace-invisible-hover-outline" opacity="0"/><path fill="none" stroke="#009600" stroke-linecap="round" stroke-linejoin="round" stroke-width="2.516" d="M 599.451911845042 166.37583003486856 L 599.371016437454 166.37583003486856 L 599.371016437454 134.83730291849997"/></g><g class="trace" data-circuit-json-type="schematic_trace" data-schematic-trace-id="schematic_trace_6"><path fill="none" stroke="#009600" stroke-linecap="round" stroke-linejoin="round" stroke-width="20.127" d="M 512.57128480376 361.27138544118 L 562.8899698088001 361.27138544118 L 562.8899698088001 421.65380744722796" class="trace-invisible-hover-outline" opacity="0"/><path fill="none" stroke="#009600" stroke-linecap="round" stroke-linejoin="round" stroke-width="2.516" d="M 512.57128480376 361.27138544118 L 562.8899698088001 361.27138544118 L 562.8899698088001 421.65380744722796"/></g><g class="trace" data-circuit-json-type="schematic_trace" data-schematic-trace-id="schematic_trace_7"><path fill="none" stroke="#009600" stroke-linecap="round" stroke-linejoin="round" stroke-width="20.127" d="M 512.57128480376 361.27138544118 L 562.8899698088001 361.27138544118 L 562.8899698088001 421.65380744722796" class="trace-invisible-hover-outline" opacity="0"/><path fill="none" stroke="#009600" stroke-linecap="round" stroke-linejoin="round" stroke-width="2.516" d="M 512.57128480376 361.27138544118 L 562.8899698088001 361.27138544118 L 562.8899698088001 421.65380744722796"/></g><g class="schematic-port-hover" data-schematic-port-id="source_port_0"><circle cx="512.571" cy="285.793" r="5.032" fill="red" opacity="0"/></g><g class="schematic-port-hover" data-schematic-port-id="source_port_1"><circle cx="512.571" cy="310.953" r="5.032" fill="red" opacity="0"/></g><g class="schematic-port-hover" data-schematic-port-id="source_port_2"><circle cx="512.571" cy="336.112" r="5.032" fill="red" opacity="0"/></g><g class="schematic-port-hover" data-schematic-port-id="source_port_3"><circle cx="512.571" cy="361.271" r="5.032" fill="red" opacity="0"/></g><g class="schematic-port-hover" data-schematic-port-id="source_port_4"><circle cx="599.383" cy="305.077" r="5.032" fill="red" opacity="0"/></g><g class="schematic-port-hover" data-schematic-port-id="source_port_5"><circle cx="599.452" cy="166.376" r="5.032" fill="red" opacity="0"/></g><g class="schematic-port-hover" data-schematic-port-id="source_port_6"><circle cx="644.508" cy="455.045" r="5.032" fill="red" opacity="0"/></g><g class="schematic-port-hover" data-schematic-port-id="source_port_7"><circle cx="644.524" cy="342.884" r="5.032" fill="red" opacity="0"/></g><path fill="rgba(255, 255, 255, 0.6)" stroke="#840000" stroke-width="2.516" d="M 650.94766856762,304.66286481051 L 657.7406910433003,291.07681985914917 L 810.709493458622,291.07681985914917 L 810.709493458622,318.2489097618708 L 657.7406910433003,318.2489097618708 Z" class="net-label"/><text x="662.269" y="304.663" fill="#840000" class="net-label-text" dominant-baseline="central" font-family="sans-serif" font-size="22.643" font-variant-numeric="tabular-nums" text-anchor="start">SD_CS_PA07</text><rect width="56.523" height="60.814" x="615.694" y="468.062" fill="transparent" class="component-overlay"/><path fill="none" stroke="#840000" stroke-linecap="round" stroke-width="2.516" d="M 644.5211925528589 468.0622903388825 L 644.5211925528589 509.52908839323334"/><path fill="none" stroke="#840000" stroke-linecap="round" stroke-width="2.516" d="M 615.694397853089 509.52496226106297 L 672.2175402549766 509.52496226106297"/><path fill="none" stroke="#840000" stroke-linecap="round" stroke-width="2.516" d="M 622.7597953707017 519.2005409259422 L 665.1521427373638 519.2005409259422"/><path fill="none" stroke="#840000" stroke-linecap="round" stroke-width="2.516" d="M 636.8905778262558 528.8761195908213 L 651.02136028181 528.8761195908213"/><text x="641.812" y="543.611" fill="#0F0F0F" dominant-baseline="hanging" font-family="sans-serif" font-size="22.643" text-anchor="middle">GND</text><rect width="23.308" height="51.522" x="525.983" y="169.493" fill="transparent" class="component-overlay"/><path fill="none" stroke="#840000" stroke-linecap="round" stroke-width="2.516" d="M 537.4526920496548 169.49324052333608 L 525.9830384099346 193.5293064408174"/><path fill="none" stroke="#840000" stroke-linecap="round" stroke-width="2.516" d="M 537.8209367661927 169.50576987590236 L 549.2905904059127 193.5418986917399"/><path fill="none" stroke="#840000" stroke-linecap="round" stroke-width="2.516" d="M 537.5854201610267 170.12746980881093 L 537.5854201610267 221.01478111375042"/><text x="537.023" y="162.121" fill="#0F0F0F" dominant-baseline="ideographic" font-family="sans-serif" font-size="22.643" text-anchor="middle">V3_3</text><rect width="23.308" height="51.522" x="587.623" y="81.436" fill="transparent" class="component-overlay"/><path fill="none" stroke="#840000" stroke-linecap="round" stroke-width="2.516" d="M 599.0930811808289 81.43554176451612 L 587.6234275411086 105.47160768199741"/><path fill="none" stroke="#840000" stroke-linecap="round" stroke-width="2.516" d="M 599.4613258973668 81.44807111708236 L 610.9309795370867 105.48419993291994"/><path fill="none" stroke="#840000" stroke-linecap="round" stroke-width="2.516" d="M 599.2258092922008 82.06977104999095 L 599.2258092922008 132.95708235493044"/><text x="598.663" y="74.064" fill="#0F0F0F" dominant-baseline="ideographic" font-family="sans-serif" font-size="22.643" text-anchor="middle">V3_3</text><rect width="56.523" height="60.814" x="533.927" y="421.518" fill="transparent" class="component-overlay"/><path fill="none" stroke="#840000" stroke-linecap="round" stroke-width="2.516" d="M 562.753329419669 421.5175067092205 L 562.753329419669 462.98430476357134"/><path fill="none" stroke="#840000" stroke-linecap="round" stroke-width="2.516" d="M 533.926534719899 462.980178631401 L 590.4496771217866 462.980178631401"/><path fill="none" stroke="#840000" stroke-linecap="round" stroke-width="2.516" d="M 540.9919322375117 472.65575729628017 L 583.3842796041738 472.65575729628017"/><path fill="none" stroke="#840000" stroke-linecap="round" stroke-width="2.516" d="M 555.1227146930659 482.33133596115925 L 569.25349714862 482.33133596115925"/><text x="560.044" y="497.066" fill="#0F0F0F" dominant-baseline="hanging" font-family="sans-serif" font-size="22.643" text-anchor="middle">GND</text><rect width="56.523" height="60.814" x="533.927" y="421.518" fill="transparent" class="component-overlay"/><path fill="none" stroke="#840000" stroke-linecap="round" stroke-width="2.516" d="M 562.753329419669 421.5175067092205 L 562.753329419669 462.98430476357134"/><path fill="none" stroke="#840000" stroke-linecap="round" stroke-width="2.516" d="M 533.926534719899 462.980178631401 L 590.4496771217866 462.980178631401"/><path fill="none" stroke="#840000" stroke-linecap="round" stroke-width="2.516" d="M 540.9919322375117 472.65575729628017 L 583.3842796041738 472.65575729628017"/><path fill="none" stroke="#840000" stroke-linecap="round" stroke-width="2.516" d="M 555.1227146930659 482.33133596115925 L 569.25349714862 482.33133596115925"/><text x="560.044" y="497.066" fill="#0F0F0F" dominant-baseline="hanging" font-family="sans-serif" font-size="22.643" text-anchor="middle">GND</text></svg>