<svg xmlns="http://www.w3.org/2000/svg" width="1200" height="600" data-real-to-screen-transform="matrix(89.2910292279,0,0,-89.2910292279,482.5348473123,131.4244895529)" data-software-used-string="@tscircuit/core@0.0.586" style="background-color:#f5f1ed"><style>.boundary{fill:#f5f1ed}.chip,.component{stroke:#840000}.component{fill:none}.chip{fill:#ffffc2}.component-pin{fill:none;stroke:#840000}.trace:hover,.trace:hover .trace-junction{filter:invert(1)}.pin-number{fill:#a90000}</style><rect width="1200" height="600" x="0" y="0" class="boundary"/><g data-circuit-json-type="schematic_component" data-schematic-component-id="schematic_component_0"><rect width="35.716" height="53.575" x="455.748" y="95.708" fill="#FFFFC2" stroke="#840000" stroke-width="1.786" class="component chip"/><rect width="35.716" height="53.575" x="455.748" y="95.708" fill="transparent" class="component-overlay"/><text x="455.748" y="84.1" fill="#006464" dominant-baseline="middle" font-family="sans-serif" font-size="16.072" text-anchor="start" transform="rotate(0, 455.74753854393, 84.100244062113)">U1</text><line x1="525.395" x2="491.464" y1="113.566" y2="113.566" stroke-width="1.786" class="component-pin"/><g data-schematic-port-id="source_port_0"><rect width="3.572" height="3.572" x="525.395" y="111.78" opacity="0"/></g><text x="509.322" y="111.78" fill="#A90000" class="pin-number" dominant-baseline="auto" font-size="13.394" text-anchor="middle" style="font-family:sans-serif">1</text><line x1="525.395" x2="491.464" y1="131.424" y2="131.424" stroke-width="1.786" class="component-pin"/><g data-schematic-port-id="source_port_1"><circle cx="527.18" cy="131.424" r="1.786" stroke-width="1.786" class="component-pin"/><rect width="3.572" height="3.572" x="525.395" y="129.639" opacity="0"/></g><text x="509.322" y="129.639" fill="#A90000" class="pin-number" dominant-baseline="auto" font-size="13.394" text-anchor="middle" style="font-family:sans-serif">2</text></g><g data-circuit-json-type="schematic_component" data-schematic-component-id="schematic_component_1"><rect width="22.99" height="78.683" x="721.083" y="127.82" fill="transparent" class="component-overlay"/><path fill="none" stroke="#840000" stroke-linecap="round" stroke-width="1.786" d="M 732.6231353055482 183.3182570390423 L 732.6231353055482 206.50348532643255"/><path fill="none" stroke="#840000" stroke-linecap="round" stroke-width="1.786" d="M 732.470027977731 127.82048931479184 L 732.470027977731 150.88140663129093"/><path fill="none" stroke="#840000" stroke-linecap="round" stroke-width="1.786" d="M 732.470724447759 161.1566789689266 L 732.470724447759 173.04428835043336"/><path fill="none" stroke="#840000" stroke-linecap="round" stroke-width="1.786" d="M 721.2707006368216 160.9869992260848 L 743.7708435024607 160.98699922608483"/><path fill="none" stroke="#840000" stroke-linecap="round" stroke-width="1.786" d="M 721.262101910707 173.22083457342282 L 743.762244776346 173.22083457342282"/><path fill="none" stroke="#840000" stroke-linecap="round" stroke-width="1.786" d="M 744.0623608546841 173.6356628370098 L 744.0623608546841 173.6356628370098 L 743.3099185390042 175.03099100105348 L 742.5298853687099 176.28620873987347 L 741.7251175991339 177.40601805755736 L 740.898471485609 178.39512095819265 L 740.0528032834676 179.25821944586687 L 739.1909692480425 180.00001552466762 L 738.3158256346663 180.6252111986824 L 737.4302286986717 181.13850847199876 L 736.5370346953914 181.54460934870426 L 735.639099880158 181.8482158328864 L 734.7392805083042 182.05402992863276 L 733.8404328351626 182.16675364003092 L 732.9454131160659 182.19108897116834 L 732.0570776063466 182.13173792613262 L 731.1782825613377 181.99340250901128 L 730.3118842363715 181.78078472389186 L 729.4607388867809 181.49858657486192 L 728.6277027678984 181.151510066009 L 727.8156321350568 180.74425720142062 L 727.0273832435887 180.28152998518436 L 726.2658123488267 179.76803042138778 L 725.5337757061035 179.20846051411834 L 724.8341295707518 178.60752226746365 L 724.1697301981042 177.96991768551123 L 723.5434338434933 177.30034877234866 L 722.9580967622519 176.60351753206342 L 722.4165752097126 175.8841259687431 L 721.921725441208 175.14687608647523 L 721.4764037120708 174.39646988934734 L 721.0834662776338 173.637609381447 L 721.0834662776338 173.637609381447"/><path fill="none" stroke="#840000" stroke-linecap="round" stroke-width="1.786" d="M 744.0736829571902 160.57883207327816 L 744.0736829571902 160.57883207327816 L 743.3212406415103 159.18350390923447 L 742.541207471216 157.92828617041448 L 741.73643970164 156.8084768527306 L 740.909793588115 155.8193739520953 L 740.0641253859736 154.95627546442105 L 739.2022913505485 154.21447938562034 L 738.3271477371724 153.58928371160556 L 737.4415508011779 153.0759864382892 L 736.5483567978976 152.6698855615837 L 735.650421982664 152.36627907740154 L 734.7506026108102 152.16046498165517 L 733.8517549376686 152.04774127025703 L 732.9567352185719 152.0234059391196 L 732.0683997088528 152.08275698415534 L 731.1896046638437 152.22109240127668 L 730.3232063388776 152.4337101863961 L 729.472060989287 152.71590833542604 L 728.6390248704045 153.06298484427896 L 727.8269542375629 153.47023770886733 L 727.0387053460947 153.9329649251036 L 726.2771344513327 154.4464644889002 L 725.5450978086095 155.0060343961696 L 724.8454516732578 155.6069726428243 L 724.1810523006102 156.24457722477672 L 723.5547559459993 156.9141461379393 L 722.9694188647579 157.61097737822453 L 722.4278973122186 158.33036894154486 L 721.9330475437141 159.06761882381275 L 721.487725814577 159.8180250209406 L 721.0947883801398 160.57688552884096 L 721.0947883801398 160.57688552884096"/><text x="716.546" y="168.983" fill="#0F0F0F" dominant-baseline="middle" font-family="sans-serif" font-size="16.072" text-anchor="end">JP1</text></g><g data-circuit-json-type="schematic_component" data-schematic-component-id="schematic_component_2"><rect width="47.25" height="94.5" x="557.074" y="147.235" fill="transparent" class="component-overlay"/><path fill="none" stroke="#840000" stroke-linecap="round" stroke-width="1.786" d="M 580.6987752246424 147.23455562825623 L 580.6987752246424 187.39691053032016"/><path fill="none" stroke="#840000" stroke-linecap="round" stroke-width="1.786" d="M 580.6987752246424 201.5718614202493 L 580.6987752246424 241.73422525141612"/><path fill="none" stroke="#840000" stroke-linecap="round" stroke-width="1.786" d="M 557.0738600511283 187.3969105303202 L 604.3236903981568 187.39691053032016"/><path fill="none" stroke="#840000" stroke-linecap="round" stroke-width="1.786" d="M 557.0738600511283 201.5718614202493 L 604.3236903981568 201.5718614202493"/><text x="600.944" y="176.176" fill="#0F0F0F" dominant-baseline="auto" font-family="sans-serif" font-size="16.072" text-anchor="start">C17</text><text x="600.944" y="211.681" fill="#0F0F0F" dominant-baseline="hanging" font-family="sans-serif" font-size="16.072" text-anchor="start">100nF</text></g><g data-circuit-json-type="schematic_component" data-schematic-component-id="schematic_component_3"><rect width="23.625" height="94.5" x="720.681" y="244.915" fill="transparent" class="component-overlay"/><path fill="none" stroke="#840000" stroke-linecap="round" stroke-width="1.786" d="M 732.4935249120723 339.4146199177322 L 732.4935249120723 315.789704744218"/><path fill="none" stroke="#840000" stroke-linecap="round" stroke-width="1.786" d="M 732.4935249120723 268.53987439718946 L 732.4935249120723 244.91495029457235"/><path fill="none" stroke="#840000" stroke-linecap="round" stroke-width="1.786" d="M 720.6810628607637 292.1647984998067 L 720.6810628607637 268.53988332629245 L 744.3059869633807 268.53988332629245 L 744.3059869633807 315.7897226024239 L 720.6810628607637 315.7897226024239 L 720.6810628607637 292.1647984998068"/><text x="757.104" y="279.424" fill="#0F0F0F" dominant-baseline="middle" font-family="sans-serif" font-size="16.072" text-anchor="start">R4</text><text x="757.104" y="307.997" fill="#0F0F0F" dominant-baseline="middle" font-family="sans-serif" font-size="16.072" text-anchor="start">1kΩ</text></g><g data-circuit-json-type="schematic_component" data-schematic-component-id="schematic_component_4"><rect width="41.025" height="93.948" x="703.667" y="379.153" fill="transparent" class="component-overlay"/><path fill="none" stroke="#840000" stroke-linecap="round" stroke-width="1.786" d="M 732.8797845108579 438.2157420082994 L 744.6922465621667 414.5908268347852"/><path fill="none" stroke="#840000" stroke-linecap="round" stroke-width="1.786" d="M 732.8997678431991 437.48169831522273 L 732.8997678431991 473.1016489075078"/><path fill="none" stroke="#840000" stroke-linecap="round" stroke-width="1.786" d="M 721.0673224595494 414.5908268347852 L 732.8797845108579 438.2157420082994"/><path fill="none" stroke="#840000" stroke-linecap="round" stroke-width="1.786" d="M 744.6922465621667 414.5908268347852 L 721.0673224595494 414.5908268347852"/><path fill="none" stroke="#840000" stroke-linecap="round" stroke-width="1.786" d="M 721.0673224595494 438.2157420082994 L 744.6922465621667 438.2157420082994"/><path fill="none" stroke="#840000" stroke-linecap="round" stroke-width="1.786" d="M 732.8797845108579 414.4083338292492 L 732.8797845108579 379.15344960996237"/><path fill="none" stroke="#840000" stroke-linecap="round" stroke-width="1.786" d="M 707.0613548424342 439.99141913193705 L 705.5541937018905 448.683213286348 L 713.8370795879523 445.62028096894926"/><path fill="none" stroke="#840000" stroke-linecap="round" stroke-width="1.786" d="M 717.7356330732777 433.2285701528334 L 716.9379963091847 434.30216084275503 L 708.8611048275515 445.1739240429419 L 708.776278349785 445.2301773913554"/><path fill="none" stroke="#840000" stroke-linecap="round" stroke-width="1.786" d="M 705.1740460740559 424.14527055166974 L 703.6668849335122 432.83706470608075 L 711.949770819574 429.77413238868195"/><path fill="none" stroke="#840000" stroke-linecap="round" stroke-width="1.786" d="M 715.8483243048994 417.3824215725661 L 715.0506875408064 418.4560122624878 L 706.9737960591732 429.3277754626746 L 706.8889695814067 429.38402881108817"/><text x="750.408" y="443.943" fill="#0F0F0F" dominant-baseline="middle" font-family="sans-serif" font-size="16.072" text-anchor="start">RED</text><text x="750.408" y="409.12" fill="#0F0F0F" dominant-baseline="middle" font-family="sans-serif" font-size="16.072" text-anchor="start">D3</text></g><g class="trace" data-circuit-json-type="schematic_trace" data-schematic-trace-id="schematic_trace_0"><path fill="none" stroke="#009600" stroke-linecap="round" stroke-linejoin="round" stroke-width="14.287" d="M 732.555283052438 127.33488898143881 L 732.555283052438 113.56628370732001 L 527.1803619262499 113.56628370732001" class="trace-invisible-hover-outline" opacity="0"/><path fill="none" stroke="#009600" stroke-linecap="round" stroke-linejoin="round" stroke-width="1.786" d="M 732.555283052438 127.33488898143881 L 732.555283052438 113.56628370732001 L 527.1803619262499 113.56628370732001"/></g><g class="trace" data-circuit-json-type="schematic_trace" data-schematic-trace-id="schematic_trace_1"><path fill="none" stroke="#009600" stroke-linecap="round" stroke-linejoin="round" stroke-width="14.287" d="M 732.544175248402 206.9469135066812 L 732.544175248402 224.9349708315159 L 732.5741279241564 224.9349708315159 L 732.5741279241564 242.92302815635054" class="trace-invisible-hover-outline" opacity="0"/><path fill="none" stroke="#009600" stroke-linecap="round" stroke-linejoin="round" stroke-width="1.786" d="M 732.544175248402 206.9469135066812 L 732.544175248402 224.9349708315159 L 732.5741279241564 224.9349708315159 L 732.5741279241564 242.92302815635054"/></g><g class="trace" data-circuit-json-type="schematic_trace" data-schematic-trace-id="schematic_trace_2"><path fill="none" stroke="#009600" stroke-linecap="round" stroke-linejoin="round" stroke-width="14.287" d="M 580.7305717601506 144.71016429543968 L 580.7305717601506 113.56628370732001 L 527.1803619262499 113.56628370732001" class="trace-invisible-hover-outline" opacity="0"/><path fill="none" stroke="#009600" stroke-linecap="round" stroke-linejoin="round" stroke-width="1.786" d="M 580.7305717601506 144.71016429543968 L 580.7305717601506 113.56628370732001 L 527.1803619262499 113.56628370732001"/><circle cx="580.731" cy="113.566" r="2.679" fill="#009600" class="trace-junction"/></g><g class="trace" data-circuit-json-type="schematic_trace" data-schematic-trace-id="schematic_trace_3"><path fill="none" stroke="#009600" stroke-linecap="round" stroke-linejoin="round" stroke-width="14.287" d="M 732.5253303766835 341.3736561698895 L 732.5253303766835 359.7899309481438 L 732.9455473538844 359.7899309481438 L 732.9455473538844 378.2062057263982" class="trace-invisible-hover-outline" opacity="0"/><path fill="none" stroke="#009600" stroke-linecap="round" stroke-linejoin="round" stroke-width="1.786" d="M 732.5253303766835 341.3736561698895 L 732.5253303766835 359.7899309481438 L 732.9455473538844 359.7899309481438 L 732.9455473538844 378.2062057263982"/></g><g class="trace" data-circuit-json-type="schematic_trace" data-schematic-trace-id="schematic_trace_4"><path fill="none" stroke="#009600" stroke-linecap="round" stroke-linejoin="round" stroke-width="14.287" d="M 527.1803619262499 113.56628370732001 L 558.432222156015 113.56628370732001 L 558.432222156015 95.70807786174001" class="trace-invisible-hover-outline" opacity="0"/><path fill="none" stroke="#009600" stroke-linecap="round" stroke-linejoin="round" stroke-width="1.786" d="M 527.1803619262499 113.56628370732001 L 558.432222156015 113.56628370732001 L 558.432222156015 95.70807786174001"/></g><g class="trace" data-circuit-json-type="schematic_trace" data-schematic-trace-id="schematic_trace_5"><path fill="none" stroke="#009600" stroke-linecap="round" stroke-linejoin="round" stroke-width="14.287" d="M 580.7793871658293 243.14625572942032 L 580.7549794629899 243.14625572942032 L 580.7549794629899 265.36103339475" class="trace-invisible-hover-outline" opacity="0"/><path fill="none" stroke="#009600" stroke-linecap="round" stroke-linejoin="round" stroke-width="1.786" d="M 580.7793871658293 243.14625572942032 L 580.7549794629899 243.14625572942032 L 580.7549794629899 265.36103339475"/></g><g class="trace" data-circuit-json-type="schematic_trace" data-schematic-trace-id="schematic_trace_6"><path fill="none" stroke="#009600" stroke-linecap="round" stroke-linejoin="round" stroke-width="14.287" d="M 732.9860408356395 473.96356628354175 L 732.5497291504199 473.96356628354175 L 732.5497291504199 506.44681231008" class="trace-invisible-hover-outline" opacity="0"/><path fill="none" stroke="#009600" stroke-linecap="round" stroke-linejoin="round" stroke-width="1.786" d="M 732.9860408356395 473.96356628354175 L 732.5497291504199 473.96356628354175 L 732.5497291504199 506.44681231008"/></g><g class="schematic-port-hover" data-schematic-port-id="source_port_0"><circle cx="527.18" cy="113.566" r="3.572" fill="red" opacity="0"/></g><g class="schematic-port-hover" data-schematic-port-id="source_port_1"><circle cx="527.18" cy="131.424" r="3.572" fill="red" opacity="0"/></g><g class="schematic-port-hover" data-schematic-port-id="source_port_2"><circle cx="732.544" cy="206.947" r="3.572" fill="red" opacity="0"/></g><g class="schematic-port-hover" data-schematic-port-id="source_port_3"><circle cx="732.555" cy="127.335" r="3.572" fill="red" opacity="0"/></g><g class="schematic-port-hover" data-schematic-port-id="source_port_4"><circle cx="580.779" cy="243.146" r="3.572" fill="red" opacity="0"/></g><g class="schematic-port-hover" data-schematic-port-id="source_port_5"><circle cx="580.731" cy="144.71" r="3.572" fill="red" opacity="0"/></g><g class="schematic-port-hover" data-schematic-port-id="source_port_6"><circle cx="732.525" cy="341.374" r="3.572" fill="red" opacity="0"/></g><g class="schematic-port-hover" data-schematic-port-id="source_port_7"><circle cx="732.574" cy="242.923" r="3.572" fill="red" opacity="0"/></g><g class="schematic-port-hover" data-schematic-port-id="source_port_8"><circle cx="732.946" cy="378.206" r="3.572" fill="red" opacity="0"/></g><g class="schematic-port-hover" data-schematic-port-id="source_port_9"><circle cx="732.986" cy="473.964" r="3.572" fill="red" opacity="0"/></g><rect width="16.544" height="36.57" x="550.094" y="57.803" fill="transparent" class="component-overlay"/><path fill="none" stroke="#840000" stroke-linecap="round" stroke-width="1.786" d="M 558.234942556039 57.8032859098509 L 550.0937347460529 74.86418536814625"/><path fill="none" stroke="#840000" stroke-linecap="round" stroke-width="1.786" d="M 558.4963241858976 57.812179296362004 L 566.6375319958834 74.87312340017198"/><path fill="none" stroke="#840000" stroke-linecap="round" stroke-width="1.786" d="M 558.3291535209772 58.25346449190925 L 558.3291535209772 94.37348949338524"/><text x="557.93" y="52.571" fill="#0F0F0F" dominant-baseline="ideographic" font-family="sans-serif" font-size="16.072" text-anchor="middle">V3_3</text><rect width="40.12" height="43.166" x="560.197" y="265.264" fill="transparent" class="component-overlay"/><path fill="none" stroke="#840000" stroke-linecap="round" stroke-width="1.786" d="M 580.6579915470427 265.2642865645816 L 580.6579915470427 294.6975921184736"/><path fill="none" stroke="#840000" stroke-linecap="round" stroke-width="1.786" d="M 560.1966128935583 294.69466337271496 L 600.3169742245763 294.69466337271496"/><path fill="none" stroke="#840000" stroke-linecap="round" stroke-width="1.786" d="M 565.2116614083492 301.5624293111614 L 595.3019257097853 301.5624293111614"/><path fill="none" stroke="#840000" stroke-linecap="round" stroke-width="1.786" d="M 575.241749508828 308.4301952496078 L 585.2718376093067 308.4301952496078"/><text x="578.735" y="318.889" fill="#0F0F0F" dominant-baseline="hanging" font-family="sans-serif" font-size="16.072" text-anchor="middle">GND</text><rect width="40.12" height="43.166" x="711.991" y="506.35" fill="transparent" class="component-overlay"/><path fill="none" stroke="#840000" stroke-linecap="round" stroke-width="1.786" d="M 732.4527412344727 506.3500654799116 L 732.4527412344727 535.7833710338036"/><path fill="none" stroke="#840000" stroke-linecap="round" stroke-width="1.786" d="M 711.9913625809883 535.780442288045 L 752.1117239120063 535.780442288045"/><path fill="none" stroke="#840000" stroke-linecap="round" stroke-width="1.786" d="M 717.0064110957792 542.6482082264914 L 747.0966753972153 542.6482082264914"/><path fill="none" stroke="#840000" stroke-linecap="round" stroke-width="1.786" d="M 727.036499196258 549.5159741649378 L 737.0665872967367 549.5159741649378"/><text x="730.53" y="559.975" fill="#0F0F0F" dominant-baseline="hanging" font-family="sans-serif" font-size="16.072" text-anchor="middle">GND</text></svg>