<svg xmlns="http://www.w3.org/2000/svg" width="1200" height="600" data-real-to-screen-transform="matrix(130.7507590681,0,0,-130.7507590681,356.2805850971,177.9604998089)" data-software-used-string="@tscircuit/core@0.0.586" style="background-color:#f5f1ed"><style>.boundary{fill:#f5f1ed}.chip,.component{stroke:#840000}.component{fill:none}.chip{fill:#ffffc2}.component-pin{fill:none;stroke:#840000}.trace:hover,.trace:hover .trace-junction{filter:invert(1)}.pin-number{fill:#a90000}</style><rect width="1200" height="600" x="0" y="0" class="boundary"/><g data-circuit-json-type="schematic_component" data-schematic-component-id="schematic_component_0"><rect width="52.3" height="78.45" x="330.13" y="138.735" fill="#FFFFC2" stroke="#840000" stroke-width="2.615" class="component chip"/><rect width="52.3" height="78.45" x="330.13" y="138.735" fill="transparent" class="component-overlay"/><text x="330.13" y="121.738" fill="#006464" dominant-baseline="middle" font-family="sans-serif" font-size="23.535" text-anchor="start" transform="rotate(0, 330.13043328348, 121.737673409617)">U1</text><line x1="432.116" x2="382.431" y1="164.885" y2="164.885" stroke-width="2.615" class="component-pin"/><g data-schematic-port-id="source_port_0"><rect width="5.23" height="5.23" x="432.116" y="162.27" opacity="0"/></g><text x="408.581" y="162.27" fill="#A90000" class="pin-number" dominant-baseline="auto" font-size="19.613" text-anchor="middle" style="font-family:sans-serif">1</text><line x1="432.116" x2="382.431" y1="191.036" y2="191.036" stroke-width="2.615" class="component-pin"/><g data-schematic-port-id="source_port_1"><rect width="5.23" height="5.23" x="432.116" y="188.421" opacity="0"/></g><text x="408.581" y="188.421" fill="#A90000" class="pin-number" dominant-baseline="auto" font-size="19.613" text-anchor="middle" style="font-family:sans-serif">2</text></g><g data-circuit-json-type="schematic_component" data-schematic-component-id="schematic_component_1"><rect width="34.594" height="138.378" x="534.182" y="356.199" fill="transparent" class="component-overlay"/><path fill="none" stroke="#840000" stroke-linecap="round" stroke-width="2.615" d="M 551.4796442140558 494.57737786137216 L 551.4796442140558 459.9829105496294"/><path fill="none" stroke="#840000" stroke-linecap="round" stroke-width="2.615" d="M 551.4796442140558 390.7939759261437 L 551.4796442140558 356.199495539325"/><path fill="none" stroke="#840000" stroke-linecap="round" stroke-width="2.615" d="M 534.1824040206465 425.3884563129625 L 534.1824040206465 390.79398900121976 L 568.7768844074651 390.79398900121976 L 568.7768844074651 459.98293669978136 L 534.1824040206465 459.98293669978136 L 534.1824040206465 425.3884563129627"/><text x="587.517" y="406.732" fill="#0F0F0F" dominant-baseline="middle" font-family="sans-serif" font-size="23.535" text-anchor="start">R7</text><text x="587.517" y="448.573" fill="#0F0F0F" dominant-baseline="middle" font-family="sans-serif" font-size="23.535" text-anchor="start">1kΩ</text></g><g data-circuit-json-type="schematic_component" data-schematic-component-id="schematic_component_2"><rect width="69.189" height="138.378" x="637.158" y="168.833" fill="transparent" class="component-overlay"/><path fill="none" stroke="#840000" stroke-linecap="round" stroke-width="2.615" d="M 671.7529647818944 168.8326686470652 L 671.7529647818944 227.64326176952042"/><path fill="none" stroke="#840000" stroke-linecap="round" stroke-width="2.615" d="M 671.7529647818944 248.3999447715813 L 671.7529647818943 307.21055096911243"/><path fill="none" stroke="#840000" stroke-linecap="round" stroke-width="2.615" d="M 637.1584974701518 227.64326176952048 L 706.3474320936374 227.64326176952042"/><path fill="none" stroke="#840000" stroke-linecap="round" stroke-width="2.615" d="M 637.1584974701518 248.3999447715813 L 706.3474320936374 248.3999447715813"/><text x="701.399" y="211.163" fill="#0F0F0F" dominant-baseline="auto" font-family="sans-serif" font-size="23.535" text-anchor="start">C1</text><text x="701.399" y="263.252" fill="#0F0F0F" dominant-baseline="hanging" font-family="sans-serif" font-size="23.535" text-anchor="start">100mF</text></g><g data-circuit-json-type="schematic_component" data-schematic-component-id="schematic_component_3"><rect width="115.217" height="33.665" x="720.531" y="148.347" fill="transparent" class="component-overlay"/><path fill="none" stroke="#840000" stroke-linecap="round" stroke-width="2.615" d="M 754.4815726383134 165.2450300221412 L 720.5309482143737 165.2450300221412"/><path fill="none" stroke="#840000" stroke-linecap="round" stroke-width="2.615" d="M 835.748137927982 165.020831695567 L 801.9795447108171 165.020831695567"/><path fill="none" stroke="#840000" stroke-linecap="round" stroke-width="2.615" d="M 786.9332442101446 165.0218515514878 L 769.5259641779035 165.0218515514878"/><path fill="none" stroke="#840000" stroke-linecap="round" stroke-width="2.615" d="M 787.1817098776016 148.62141773945058 L 787.1817098776016 181.56885696444022"/><path fill="none" stroke="#840000" stroke-linecap="round" stroke-width="2.615" d="M 769.2674437770739 148.60882644135233 L 769.2674437770739 181.55626566634194"/><path fill="none" stroke="#840000" stroke-linecap="round" stroke-width="2.615" d="M 768.6600019005954 181.99573204264587 L 768.6600019005954 181.99573204264587 L 766.6167931015103 180.8939147068976 L 764.7787509872508 179.75169549410344 L 763.1389903129169 178.5732568798835 L 761.6906258336091 177.36278133985786 L 760.4267723044276 176.12445134964656 L 759.3405444804724 174.86244938486976 L 758.425057116844 173.58095792114744 L 757.6734249686424 172.28415943409973 L 757.0787627909679 170.9762363993467 L 756.6341853389206 169.66137129250842 L 756.3328073676009 168.34374658920498 L 756.1677436321089 167.02754476505646 L 756.132108887545 165.7169482956829 L 756.2190178890091 164.41613965670442 L 756.4215853916018 163.1293013237411 L 756.7329261504229 161.86061577241298 L 757.146154920573 160.61426547834014 L 757.6543864571521 159.3944329171427 L 758.2507355152604 158.2053005644407 L 758.9283168499984 157.05105089585425 L 759.680245216466 155.9358663870034 L 760.4996353697635 154.86392951350822 L 761.3796020649912 153.8394227509888 L 762.3132600572492 152.86652857506525 L 763.2937241016378 151.9494294613576 L 764.3141089532573 151.09230788548592 L 765.3675293672078 150.29934632307032 L 766.4471000985895 149.5747272497309 L 767.5459359025027 148.9226331410877 L 768.6571515340477 148.3472464727608 L 768.6571515340477 148.34724647276076"/><path fill="none" stroke="#840000" stroke-linecap="round" stroke-width="2.615" d="M 787.7793977474539 182.01231123889565 L 787.7793977474539 182.01231123889565 L 789.822606546539 180.91049390314737 L 791.6606486607985 179.76827469035322 L 793.3004093351323 178.58983607613328 L 794.74877381444 177.37936053610764 L 796.0126273436216 176.14103054589637 L 797.0988551675767 174.87902858111954 L 798.0143425312053 173.59753711739722 L 798.7659746794069 172.3007386303495 L 799.3606368570814 170.99281559559648 L 799.8052143091287 169.67795048875823 L 800.1065922804484 168.36032578545476 L 800.2716560159404 167.04412396130624 L 800.3072907605043 165.7335274919327 L 800.2203817590402 164.43271885295422 L 800.0178142564475 163.14588051999087 L 799.7064734976263 161.87719496866276 L 799.2932447274762 160.63084467458995 L 798.7850131908972 159.4110121133925 L 798.1886641327887 158.2218797606905 L 797.5110827980509 157.06763009210403 L 796.7591544315833 155.9524455832532 L 795.9397642782858 154.880508709758 L 795.0597975830581 153.8560019472386 L 794.1261395908 152.88310777131503 L 793.1456755464113 151.96600865760738 L 792.1252906947919 151.1088870817357 L 791.0718702808414 150.31592551932013 L 789.9922995494597 149.59130644598068 L 788.8934637455465 148.93921233733747 L 787.7822481140016 148.36382566901057 L 787.7822481140016 148.36382566901057"/><text x="775.472" y="141.729" fill="#0F0F0F" dominant-baseline="auto" font-family="sans-serif" font-size="23.535" text-anchor="middle">JP1</text></g><g data-circuit-json-type="schematic_component" data-schematic-component-id="schematic_component_4"><rect width="60.074" height="137.57" x="508.424" y="166.388" fill="transparent" class="component-overlay"/><path fill="none" stroke="#840000" stroke-linecap="round" stroke-width="2.615" d="M 551.2007847404079 252.87442189724123 L 568.4980249338178 218.27995458549842"/><path fill="none" stroke="#840000" stroke-linecap="round" stroke-width="2.615" d="M 551.2300467602875 251.79954605709423 L 551.2300467602875 303.958599639313"/><path fill="none" stroke="#840000" stroke-linecap="round" stroke-width="2.615" d="M 533.9035445469987 218.27995458549842 L 551.2007847404079 252.87442189724123"/><path fill="none" stroke="#840000" stroke-linecap="round" stroke-width="2.615" d="M 568.4980249338178 218.27995458549842 L 533.9035445469987 218.27995458549842"/><path fill="none" stroke="#840000" stroke-linecap="round" stroke-width="2.615" d="M 533.9035445469987 252.87442189724123 L 568.4980249338178 252.87442189724123"/><path fill="none" stroke="#840000" stroke-linecap="round" stroke-width="2.615" d="M 551.2007847404079 218.01272618411502 L 551.2007847404079 166.38824708034622"/><path fill="none" stroke="#840000" stroke-linecap="round" stroke-width="2.615" d="M 513.3943073564744 255.47458379237298 L 511.18733914401196 268.20216340680764 L 523.3161456572942 263.71704626864647"/><path fill="none" stroke="#840000" stroke-linecap="round" stroke-width="2.615" d="M 529.0248806991186 245.5715997510105 L 527.856884168363 247.14368150266574 L 516.0297196562507 263.06343629914096 L 515.905506435136 263.1458092773538"/><path fill="none" stroke="#840000" stroke-linecap="round" stroke-width="2.615" d="M 510.63068086235586 232.27073035836577 L 508.4237126498934 244.9983099728005 L 520.5525191631756 240.51319283463926"/><path fill="none" stroke="#840000" stroke-linecap="round" stroke-width="2.615" d="M 526.2612542050001 222.3677463170033 L 525.0932576742443 223.9398280686586 L 513.266093162132 239.85958286513375 L 513.1418799410174 239.94195584334668"/><text x="576.868" y="210.268" fill="#0F0F0F" dominant-baseline="middle" font-family="sans-serif" font-size="23.535" text-anchor="start">LED1</text></g><g class="trace" data-circuit-json-type="schematic_trace" data-schematic-trace-id="schematic_trace_0"><path fill="none" stroke="#009600" stroke-linecap="round" stroke-linejoin="round" stroke-width="20.92" d="M 434.73104053796004 164.88542390209 L 551.2970826744618 164.88542390209 L 551.2970826744618 165.00117765277227" class="trace-invisible-hover-outline" opacity="0"/><path fill="none" stroke="#009600" stroke-linecap="round" stroke-linejoin="round" stroke-width="2.615" d="M 434.73104053796004 164.88542390209 L 551.2970826744618 164.88542390209 L 551.2970826744618 165.00117765277227"/></g><g class="trace" data-circuit-json-type="schematic_trace" data-schematic-trace-id="schematic_trace_1"><path fill="none" stroke="#009600" stroke-linecap="round" stroke-linejoin="round" stroke-width="20.92" d="M 434.73104053796004 191.03557571571002 L 465.37208661041404 191.03557571571002 L 465.37208661041404 528.0870825127047 L 551.5262176344362 528.0870825127047 L 551.5262176344362 497.4460364402505" class="trace-invisible-hover-outline" opacity="0"/><path fill="none" stroke="#009600" stroke-linecap="round" stroke-linejoin="round" stroke-width="2.615" d="M 434.73104053796004 191.03557571571002 L 465.37208661041404 191.03557571571002 L 465.37208661041404 528.0870825127047 L 551.5262176344362 528.0870825127047 L 551.5262176344362 497.4460364402505"/></g><g class="trace" data-circuit-json-type="schematic_trace" data-schematic-trace-id="schematic_trace_2"><path fill="none" stroke="#009600" stroke-linecap="round" stroke-linejoin="round" stroke-width="20.92" d="M 719.8816268697656 165.1294071258973 L 671.7995251271989 165.1294071258973 L 671.7995251271989 165.13614856207144" class="trace-invisible-hover-outline" opacity="0"/><path fill="none" stroke="#009600" stroke-linecap="round" stroke-linejoin="round" stroke-width="2.615" d="M 719.8816268697656 165.1294071258973 L 671.7995251271989 165.1294071258973 L 671.7995251271989 165.13614856207144"/></g><g class="trace" data-circuit-json-type="schematic_trace" data-schematic-trace-id="schematic_trace_3"><path fill="none" stroke="#009600" stroke-linecap="round" stroke-linejoin="round" stroke-width="20.92" d="M 551.2970826744618 165.00117765277227 L 551.2970826744618 152.95093340749858 L 671.7995251271989 152.95093340749858 L 671.7995251271989 165.13614856207144" class="trace-invisible-hover-outline" opacity="0"/><path fill="none" stroke="#009600" stroke-linecap="round" stroke-linejoin="round" stroke-width="2.615" d="M 551.2970826744618 165.00117765277227 L 551.2970826744618 152.95093340749858 L 671.7995251271989 152.95093340749858 L 671.7995251271989 165.13614856207144"/><circle cx="551.297" cy="164.885" r="3.923" fill="#009600" class="trace-junction"/><circle cx="671.8" cy="165.129" r="3.923" fill="#009600" class="trace-junction"/></g><g class="trace" data-circuit-json-type="schematic_trace" data-schematic-trace-id="schematic_trace_4"><path fill="none" stroke="#009600" stroke-linecap="round" stroke-linejoin="round" stroke-width="20.92" d="M 551.3563781436995 305.2207236415214 L 551.3563781436995 329.2517025487017 L 551.5976729242667 329.2517025487017 L 551.5976729242667 353.2826814558821" class="trace-invisible-hover-outline" opacity="0"/><path fill="none" stroke="#009600" stroke-linecap="round" stroke-linejoin="round" stroke-width="2.615" d="M 551.3563781436995 305.2207236415214 L 551.3563781436995 329.2517025487017 L 551.5976729242667 329.2517025487017 L 551.5976729242667 353.2826814558821"/></g><g class="trace" data-circuit-json-type="schematic_trace" data-schematic-trace-id="schematic_trace_5"><path fill="none" stroke="#009600" stroke-linecap="round" stroke-linejoin="round" stroke-width="20.92" d="M 671.7995251271989 165.13614856207144 L 671.8352658471899 165.13614856207144 L 671.8352658471899 125.66019618166001" class="trace-invisible-hover-outline" opacity="0"/><path fill="none" stroke="#009600" stroke-linecap="round" stroke-linejoin="round" stroke-width="2.615" d="M 671.7995251271989 165.13614856207144 L 671.8352658471899 165.13614856207144 L 671.8352658471899 125.66019618166001"/></g><g class="trace" data-circuit-json-type="schematic_trace" data-schematic-trace-id="schematic_trace_6"><path fill="none" stroke="#009600" stroke-linecap="round" stroke-linejoin="round" stroke-width="20.92" d="M 836.4592128560981 165.14567252032538 L 879.2836213695 165.14567252032538 L 879.2836213695 125.66019618166001" class="trace-invisible-hover-outline" opacity="0"/><path fill="none" stroke="#009600" stroke-linecap="round" stroke-linejoin="round" stroke-width="2.615" d="M 836.4592128560981 165.14567252032538 L 879.2836213695 165.14567252032538 L 879.2836213695 125.66019618166001"/></g><g class="trace" data-circuit-json-type="schematic_trace" data-schematic-trace-id="schematic_trace_7"><path fill="none" stroke="#009600" stroke-linecap="round" stroke-linejoin="round" stroke-width="20.92" d="M 671.8710065671812 309.2782173228636 L 671.8352658471899 309.2782173228636 L 671.8352658471899 368.6772425137884" class="trace-invisible-hover-outline" opacity="0"/><path fill="none" stroke="#009600" stroke-linecap="round" stroke-linejoin="round" stroke-width="2.615" d="M 671.8710065671812 309.2782173228636 L 671.8352658471899 309.2782173228636 L 671.8352658471899 368.6772425137884"/></g><g class="schematic-port-hover" data-schematic-port-id="source_port_0"><circle cx="434.731" cy="164.885" r="5.23" fill="red" opacity="0"/></g><g class="schematic-port-hover" data-schematic-port-id="source_port_1"><circle cx="434.731" cy="191.036" r="5.23" fill="red" opacity="0"/></g><g class="schematic-port-hover" data-schematic-port-id="source_port_2"><circle cx="551.526" cy="497.446" r="5.23" fill="red" opacity="0"/></g><g class="schematic-port-hover" data-schematic-port-id="source_port_3"><circle cx="551.598" cy="353.283" r="5.23" fill="red" opacity="0"/></g><g class="schematic-port-hover" data-schematic-port-id="source_port_4"><circle cx="671.871" cy="309.278" r="5.23" fill="red" opacity="0"/></g><g class="schematic-port-hover" data-schematic-port-id="source_port_5"><circle cx="671.8" cy="165.136" r="5.23" fill="red" opacity="0"/></g><g class="schematic-port-hover" data-schematic-port-id="source_port_6"><circle cx="719.882" cy="165.129" r="5.23" fill="red" opacity="0"/></g><g class="schematic-port-hover" data-schematic-port-id="source_port_7"><circle cx="836.459" cy="165.146" r="5.23" fill="red" opacity="0"/></g><g class="schematic-port-hover" data-schematic-port-id="source_port_8"><circle cx="551.297" cy="165.001" r="5.23" fill="red" opacity="0"/></g><g class="schematic-port-hover" data-schematic-port-id="source_port_9"><circle cx="551.356" cy="305.221" r="5.23" fill="red" opacity="0"/></g><rect width="24.225" height="53.551" x="659.625" y="70.155" fill="transparent" class="component-overlay"/><path fill="none" stroke="#840000" stroke-linecap="round" stroke-width="2.615" d="M 671.5463851201052 70.15540065087532 L 659.6250408362359 95.13803971154859"/><path fill="none" stroke="#840000" stroke-linecap="round" stroke-width="2.615" d="M 671.929131817125 70.1684234264785 L 683.8504761009938 95.15112786253131"/><path fill="none" stroke="#840000" stroke-linecap="round" stroke-width="2.615" d="M 671.6843402459978 70.81460675286903 L 671.6843402459978 123.70592996124869"/><text x="671.1" y="62.493" fill="#0F0F0F" dominant-baseline="ideographic" font-family="sans-serif" font-size="23.535" text-anchor="middle">V5</text><rect width="24.225" height="53.551" x="867.073" y="70.155" fill="transparent" class="component-overlay"/><path fill="none" stroke="#840000" stroke-linecap="round" stroke-width="2.615" d="M 878.9947406424152 70.15540065087532 L 867.0733963585459 95.13803971154859"/><path fill="none" stroke="#840000" stroke-linecap="round" stroke-width="2.615" d="M 879.377487339435 70.1684234264785 L 891.2988316233037 95.15112786253131"/><path fill="none" stroke="#840000" stroke-linecap="round" stroke-width="2.615" d="M 879.1326957683077 70.81460675286903 L 879.1326957683077 123.70592996124869"/><text x="878.548" y="62.493" fill="#0F0F0F" dominant-baseline="ideographic" font-family="sans-serif" font-size="23.535" text-anchor="middle">VIN</text><rect width="58.749" height="63.209" x="641.731" y="368.536" fill="transparent" class="component-overlay"/><path fill="none" stroke="#840000" stroke-linecap="round" stroke-width="2.615" d="M 671.6932443726903 368.53557406633814 L 671.6932443726903 411.6353913305367"/><path fill="none" stroke="#840000" stroke-linecap="round" stroke-width="2.615" d="M 641.7312110793506 411.63110270563936 L 700.4803121198161 411.63110270563936"/><path fill="none" stroke="#840000" stroke-linecap="round" stroke-width="2.615" d="M 649.0748536125624 421.6877188889069 L 693.1366695866043 421.6877188889069"/><path fill="none" stroke="#840000" stroke-linecap="round" stroke-width="2.615" d="M 663.7621256039097 431.7443350721743 L 678.4493975952571 431.7443350721743"/><text x="668.878" y="447.059" fill="#0F0F0F" dominant-baseline="hanging" font-family="sans-serif" font-size="23.535" text-anchor="middle">GND</text></svg>