<svg xmlns="http://www.w3.org/2000/svg" width="1200" height="600" data-real-to-screen-transform="matrix(121.9611350516,0,0,-121.9611350516,372.8002422191,216.0988698268)" data-software-used-string="@tscircuit/core@0.0.586" style="background-color:#f5f1ed"><style>.boundary{fill:#f5f1ed}.chip,.component{stroke:#840000}.component{fill:none}.chip{fill:#ffffc2}.component-pin{fill:none;stroke:#840000}.trace:hover{filter:invert(1)}.pin-number{fill:#a90000}</style><rect width="1200" height="600" x="0" y="0" class="boundary"/><g data-circuit-json-type="schematic_component" data-schematic-component-id="schematic_component_0"><rect width="48.784" height="97.569" x="348.408" y="167.314" fill="#FFFFC2" stroke="#840000" stroke-width="2.439" class="component chip"/><rect width="48.784" height="97.569" x="348.408" y="167.314" fill="transparent" class="component-overlay"/><text x="348.408" y="151.459" fill="#006464" dominant-baseline="middle" font-family="sans-serif" font-size="21.953" text-anchor="start" transform="rotate(0, 348.40801520878006, 151.45946824945202)">U1</text><line x1="443.538" x2="397.192" y1="191.707" y2="191.707" stroke-width="2.439" class="component-pin"/><g data-schematic-port-id="source_port_0"><rect width="4.878" height="4.878" x="443.538" y="189.267" opacity="0"/></g><text x="421.585" y="189.267" fill="#A90000" class="pin-number" dominant-baseline="auto" font-size="18.294" text-anchor="middle" style="font-family:sans-serif">1</text><line x1="443.538" x2="397.192" y1="216.099" y2="216.099" stroke-width="2.439" class="component-pin"/><g data-schematic-port-id="source_port_1"><rect width="4.878" height="4.878" x="443.538" y="213.66" opacity="0"/></g><text x="421.585" y="213.66" fill="#A90000" class="pin-number" dominant-baseline="auto" font-size="18.294" text-anchor="middle" style="font-family:sans-serif">2</text><line x1="443.538" x2="397.192" y1="240.491" y2="240.491" stroke-width="2.439" class="component-pin"/><g data-schematic-port-id="source_port_2"><rect width="4.878" height="4.878" x="443.538" y="238.052" opacity="0"/></g><text x="421.585" y="238.052" fill="#A90000" class="pin-number" dominant-baseline="auto" font-size="18.294" text-anchor="middle" style="font-family:sans-serif">3</text></g><g data-circuit-json-type="schematic_component" data-schematic-component-id="schematic_component_1"><rect width="32.269" height="129.076" x="547.783" y="314.424" fill="transparent" class="component-overlay"/><path fill="none" stroke="#840000" stroke-linecap="round" stroke-width="2.439" d="M 563.9171850391685 443.4998878096915 L 563.9171850391685 411.2310082259935"/><path fill="none" stroke="#840000" stroke-linecap="round" stroke-width="2.439" d="M 563.9171850391685 346.6932490585974 L 563.9171850391685 314.42435727878603"/><path fill="none" stroke="#840000" stroke-linecap="round" stroke-width="2.439" d="M 547.7827391492629 378.962140838409 L 547.7827391492629 346.69326125471105 L 580.0516309290742 346.69326125471105 L 580.0516309290742 411.23103261822064 L 547.7827391492629 411.23103261822064 L 547.7827391492629 378.96214083840925"/><text x="597.532" y="361.56" fill="#0F0F0F" dominant-baseline="middle" font-family="sans-serif" font-size="21.953" text-anchor="start">R7</text><text x="597.532" y="400.588" fill="#0F0F0F" dominant-baseline="middle" font-family="sans-serif" font-size="21.953" text-anchor="start">2.2kΩ</text></g><g data-circuit-json-type="schematic_component" data-schematic-component-id="schematic_component_2"><rect width="32.269" height="129.076" x="702.705" y="314.424" fill="transparent" class="component-overlay"/><path fill="none" stroke="#840000" stroke-linecap="round" stroke-width="2.439" d="M 718.8395583002434 443.4998878096915 L 718.8395583002434 411.2310082259935"/><path fill="none" stroke="#840000" stroke-linecap="round" stroke-width="2.439" d="M 718.8395583002434 346.6932490585974 L 718.8395583002434 314.42435727878603"/><path fill="none" stroke="#840000" stroke-linecap="round" stroke-width="2.439" d="M 702.7051124103377 378.962140838409 L 702.7051124103377 346.69326125471105 L 734.9740041901491 346.69326125471105 L 734.9740041901491 411.23103261822064 L 702.7051124103377 411.23103261822064 L 702.7051124103377 378.96214083840925"/><text x="752.454" y="361.56" fill="#0F0F0F" dominant-baseline="middle" font-family="sans-serif" font-size="21.953" text-anchor="start">R8</text><text x="752.454" y="400.588" fill="#0F0F0F" dominant-baseline="middle" font-family="sans-serif" font-size="21.953" text-anchor="start">2.2kΩ</text></g><g data-circuit-json-type="schematic_component" data-schematic-component-id="schematic_component_3"><rect width="64.538" height="129.076" x="808.93" y="175.401" fill="transparent" class="component-overlay"/><path fill="none" stroke="#840000" stroke-linecap="round" stroke-width="2.439" d="M 841.1993410802933 175.4014812202401 L 841.1993410802933 230.2585752929154"/><path fill="none" stroke="#840000" stroke-linecap="round" stroke-width="2.439" d="M 841.1993410802933 249.61990548235687 L 841.1993410802933 304.4770117511456"/><path fill="none" stroke="#840000" stroke-linecap="round" stroke-width="2.439" d="M 808.9304614965955 230.25857529291542 L 873.4682206639915 230.2585752929154"/><path fill="none" stroke="#840000" stroke-linecap="round" stroke-width="2.439" d="M 808.9304614965955 249.61990548235687 L 873.4682206639915 249.61990548235687"/><text x="868.853" y="214.893" fill="#0F0F0F" dominant-baseline="auto" font-family="sans-serif" font-size="21.953" text-anchor="start">C16</text><text x="868.853" y="263.466" fill="#0F0F0F" dominant-baseline="hanging" font-family="sans-serif" font-size="21.953" text-anchor="start">4.7µF</text></g><g data-circuit-json-type="schematic_component" data-schematic-component-id="schematic_component_4"><rect width="107.85" height="58.434" x="586.114" y="211.053" fill="transparent" class="component-overlay"/><path fill="none" stroke="#840000" stroke-linecap="round" stroke-width="2.439" d="M 666.8598624843178 253.7250141649149 L 693.9642124314613 253.7250141649149"/><path fill="none" stroke="#840000" stroke-linecap="round" stroke-width="2.439" d="M 586.1138709403099 253.934140923188 L 613.1519472066664 253.934140923188"/><path fill="none" stroke="#840000" stroke-linecap="round" stroke-width="2.439" d="M 625.4334578985895 253.93318962633455 L 634.5332221070595 253.93318962633455"/><path fill="none" stroke="#840000" stroke-linecap="round" stroke-width="2.439" d="M 640.3290347747544 238.15739484627508 L 640.3290347747544 211.05304489913166"/><path fill="none" stroke="#840000" stroke-linecap="round" stroke-width="2.439" d="M 625.3533050406335 269.2311162870349 L 625.3533050406335 238.49854453324147"/><path fill="none" stroke="#840000" stroke-linecap="round" stroke-width="2.439" d="M 634.7557767863015 268.7058418744811 L 634.7557767863015 239.00539061828886"/><path fill="none" stroke="#840000" stroke-linecap="round" stroke-width="2.439" d="M 645.6745303434986 268.7397836583659 L 645.6745303434986 239.07498164194917"/><path fill="none" stroke="#840000" stroke-linecap="round" stroke-width="2.439" d="M 634.993381469609 268.7947881302743 L 645.5774980644516 268.7947881302743"/><path fill="none" stroke="#840000" stroke-linecap="round" stroke-width="2.439" d="M 635.017066322036 238.9655337193539 L 645.5336774286274 238.9655337193539"/><path fill="none" stroke="#840000" stroke-linecap="round" stroke-width="2.439" d="M 654.7691721842965 269.24286114434034 L 654.7691721842965 238.51028939054694"/><path fill="none" stroke="#840000" stroke-linecap="round" stroke-width="2.439" d="M 655.3357792255192 238.1003658195249 L 655.3357792255192 238.1003658195249 L 657.2416348095319 239.1281142918485 L 658.9561158888423 240.19354865462387 L 660.4856448528047 241.2927675960913 L 661.8366440907731 242.42186980449097 L 663.0155359921018 243.57695396806315 L 664.0287429461448 244.75411877504806 L 664.8826873422563 245.94946291368595 L 665.5837915697904 247.15908507221707 L 666.1384780181013 248.37908393888162 L 666.5531690765432 249.60555820191988 L 666.8342871344702 250.83460654957204 L 666.9882545812363 252.06232767007836 L 667.0214938061958 253.2848202516791 L 666.940427198703 254.49818298261448 L 666.7514771481117 255.6985145511247 L 666.4610660437763 256.8819136454501 L 666.0756162750508 258.0444789538308 L 665.6015502312895 259.18230916450705 L 665.0452903018464 260.2915029657192 L 664.4132588760757 261.36815904570733 L 663.7118783433316 262.4083760927118 L 662.9475710929682 263.4082527949728 L 662.1267595143396 264.36388784073057 L 661.2558659968 265.27137991822536 L 660.3413129297036 266.1268277156974 L 659.3895227024044 266.9263299213869 L 658.4069177042566 267.6659852235341 L 657.3999203246144 268.3418923103793 L 656.374952952832 268.9501498701627 L 655.3384379782634 269.48685659112454 L 655.3384379782634 269.48685659112454"/><path fill="none" stroke="#840000" stroke-linecap="round" stroke-width="2.439" d="M 624.7957963000857 238.0849011476004 L 624.7957963000857 238.0849011476004 L 622.8899407160729 239.11264961992399 L 621.1754596367625 240.17808398269938 L 619.6459306728002 241.2773029241668 L 618.2949314348317 242.40640513256648 L 617.1160395335031 243.56148929613866 L 616.1028325794601 244.73865410312357 L 615.2488881833486 245.93399824176146 L 614.5477839558145 247.14362040029258 L 613.9930975075035 248.36361926695713 L 613.5784064490617 249.59009352999539 L 613.2972883911348 250.81914187764755 L 613.1433209443686 252.04686299815387 L 613.110081719409 253.2693555797546 L 613.191148326902 254.48271831069 L 613.3800983774931 255.6830498792002 L 613.6705094818286 256.86644897352556 L 614.055959250554 258.02901428190626 L 614.5300252943154 259.1668444925826 L 615.0862852237584 260.27603829379467 L 615.7183166495291 261.35269437378287 L 616.4196971822732 262.3929114207873 L 617.1840044326367 263.3927881230483 L 618.0048160112653 264.3484231688061 L 618.8757095288049 265.25591524630084 L 619.7902625959014 266.1113630437729 L 620.7420528232005 266.9108652494624 L 621.7246578213483 267.65052055160965 L 622.7316552009905 268.32642763845485 L 623.7566225727729 268.9346851982382 L 624.7931375473415 269.4713919192 L 624.7931375473415 269.4713919192"/><text x="642.528" y="275.637" fill="#0F0F0F" dominant-baseline="hanging" font-family="sans-serif" font-size="21.953" text-anchor="middle">JP1</text></g><g class="trace" data-circuit-json-type="schematic_trace" data-schematic-trace-id="schematic_trace_0"><path fill="none" stroke="#009600" stroke-linecap="round" stroke-linejoin="round" stroke-width="19.514" d="M 445.97692325006005 191.70664281648 L 643.6098473452727 191.70664281648 L 643.6098473452727 132.42687217158633 L 841.2427714404853 132.42687217158633 L 841.2427714404853 171.95345699062884" class="trace-invisible-hover-outline" opacity="0"/><path fill="none" stroke="#009600" stroke-linecap="round" stroke-linejoin="round" stroke-width="2.439" d="M 445.97692325006005 191.70664281648 L 643.6098473452727 191.70664281648 L 643.6098473452727 132.42687217158633 L 841.2427714404853 132.42687217158633 L 841.2427714404853 171.95345699062884"/></g><g class="trace" data-circuit-json-type="schematic_trace" data-schematic-trace-id="schematic_trace_1"><path fill="none" stroke="#009600" stroke-linecap="round" stroke-linejoin="round" stroke-width="19.514" d="M 564.0272793557798 311.70362388582794 L 564.0272793557798 253.8176924314406 L 585.6405397751747 253.8176924314406" class="trace-invisible-hover-outline" opacity="0"/><path fill="none" stroke="#009600" stroke-linecap="round" stroke-linejoin="round" stroke-width="2.439" d="M 564.0272793557798 311.70362388582794 L 564.0272793557798 253.8176924314406 L 585.6405397751747 253.8176924314406"/></g><g class="trace" data-circuit-json-type="schematic_trace" data-schematic-trace-id="schematic_trace_2"><path fill="none" stroke="#009600" stroke-linecap="round" stroke-linejoin="round" stroke-width="19.514" d="M 718.9496526168547 311.70362388582794 L 718.9496526168547 253.832864396641 L 694.3812829249973 253.832864396641" class="trace-invisible-hover-outline" opacity="0"/><path fill="none" stroke="#009600" stroke-linecap="round" stroke-linejoin="round" stroke-width="2.439" d="M 718.9496526168547 311.70362388582794 L 718.9496526168547 253.832864396641 L 694.3812829249973 253.832864396641"/></g><g class="trace" data-circuit-json-type="schematic_trace" data-schematic-trace-id="schematic_trace_3"><path fill="none" stroke="#009600" stroke-linecap="round" stroke-linejoin="round" stroke-width="19.514" d="M 640.4368972025943 210.6359012289146 L 445.97692325006005 210.6359012289146 L 445.97692325006005 216.0988698268" class="trace-invisible-hover-outline" opacity="0"/><path fill="none" stroke="#009600" stroke-linecap="round" stroke-linejoin="round" stroke-width="2.439" d="M 640.4368972025943 210.6359012289146 L 445.97692325006005 210.6359012289146 L 445.97692325006005 216.0988698268"/></g><g class="trace" data-circuit-json-type="schematic_trace" data-schematic-trace-id="schematic_trace_4"><path fill="none" stroke="#009600" stroke-linecap="round" stroke-linejoin="round" stroke-width="19.514" d="M 445.97692325006005 240.49109683712 L 494.7613772707 240.49109683712 L 494.7613772707 277.0794373526" class="trace-invisible-hover-outline" opacity="0"/><path fill="none" stroke="#009600" stroke-linecap="round" stroke-linejoin="round" stroke-width="2.439" d="M 445.97692325006005 240.49109683712 L 494.7613772707 240.49109683712 L 494.7613772707 277.0794373526"/></g><g class="trace" data-circuit-json-type="schematic_trace" data-schematic-trace-id="schematic_trace_5"><path fill="none" stroke="#009600" stroke-linecap="round" stroke-linejoin="round" stroke-width="19.514" d="M 841.3094475930178 306.4056807486247 L 841.1310008172441 306.4056807486247 L 841.1310008172441 338.06000487840004" class="trace-invisible-hover-outline" opacity="0"/><path fill="none" stroke="#009600" stroke-linecap="round" stroke-linejoin="round" stroke-width="2.439" d="M 841.3094475930178 306.4056807486247 L 841.1310008172441 306.4056807486247 L 841.1310008172441 338.06000487840004"/></g><g class="trace" data-circuit-json-type="schematic_trace" data-schematic-trace-id="schematic_trace_6"><path fill="none" stroke="#009600" stroke-linecap="round" stroke-linejoin="round" stroke-width="19.514" d="M 563.9606275954743 446.1757029166102 L 564.2792242501121 446.1757029166102 L 564.2792242501121 472.21725343516" class="trace-invisible-hover-outline" opacity="0"/><path fill="none" stroke="#009600" stroke-linecap="round" stroke-linejoin="round" stroke-width="2.439" d="M 563.9606275954743 446.1757029166102 L 564.2792242501121 446.1757029166102 L 564.2792242501121 472.21725343516"/></g><g class="trace" data-circuit-json-type="schematic_trace" data-schematic-trace-id="schematic_trace_7"><path fill="none" stroke="#009600" stroke-linecap="round" stroke-linejoin="round" stroke-width="19.514" d="M 718.8830008565492 446.1757029166102 L 718.5600600903861 446.1757029166102 L 718.5600600903861 472.21725343516" class="trace-invisible-hover-outline" opacity="0"/><path fill="none" stroke="#009600" stroke-linecap="round" stroke-linejoin="round" stroke-width="2.439" d="M 718.8830008565492 446.1757029166102 L 718.5600600903861 446.1757029166102 L 718.5600600903861 472.21725343516"/></g><g class="trace" data-circuit-json-type="schematic_trace" data-schematic-trace-id="schematic_trace_8"><path fill="none" stroke="#009600" stroke-linecap="round" stroke-linejoin="round" stroke-width="19.514" d="M 841.2427714404853 171.95345699062884 L 841.1310008172441 171.95345699062884 L 841.1310008172441 130.72607529068" class="trace-invisible-hover-outline" opacity="0"/><path fill="none" stroke="#009600" stroke-linecap="round" stroke-linejoin="round" stroke-width="2.439" d="M 841.2427714404853 171.95345699062884 L 841.1310008172441 171.95345699062884 L 841.1310008172441 130.72607529068"/></g><g class="schematic-port-hover" data-schematic-port-id="source_port_0"><circle cx="445.977" cy="191.707" r="4.878" fill="red" opacity="0"/></g><g class="schematic-port-hover" data-schematic-port-id="source_port_1"><circle cx="445.977" cy="216.099" r="4.878" fill="red" opacity="0"/></g><g class="schematic-port-hover" data-schematic-port-id="source_port_2"><circle cx="445.977" cy="240.491" r="4.878" fill="red" opacity="0"/></g><g class="schematic-port-hover" data-schematic-port-id="source_port_3"><circle cx="563.961" cy="446.176" r="4.878" fill="red" opacity="0"/></g><g class="schematic-port-hover" data-schematic-port-id="source_port_4"><circle cx="564.027" cy="311.704" r="4.878" fill="red" opacity="0"/></g><g class="schematic-port-hover" data-schematic-port-id="source_port_5"><circle cx="718.883" cy="446.176" r="4.878" fill="red" opacity="0"/></g><g class="schematic-port-hover" data-schematic-port-id="source_port_6"><circle cx="718.95" cy="311.704" r="4.878" fill="red" opacity="0"/></g><g class="schematic-port-hover" data-schematic-port-id="source_port_7"><circle cx="841.309" cy="306.406" r="4.878" fill="red" opacity="0"/></g><g class="schematic-port-hover" data-schematic-port-id="source_port_8"><circle cx="841.243" cy="171.953" r="4.878" fill="red" opacity="0"/></g><g class="schematic-port-hover" data-schematic-port-id="source_port_9"><circle cx="694.381" cy="253.833" r="4.878" fill="red" opacity="0"/></g><g class="schematic-port-hover" data-schematic-port-id="source_port_10"><circle cx="640.437" cy="210.636" r="4.878" fill="red" opacity="0"/></g><g class="schematic-port-hover" data-schematic-port-id="source_port_11"><circle cx="585.641" cy="253.818" r="4.878" fill="red" opacity="0"/></g><rect width="54.8" height="58.96" x="466.681" y="276.947" fill="transparent" class="component-overlay"/><path fill="none" stroke="#840000" stroke-linecap="round" stroke-width="2.439" d="M 494.62890308580705 276.94729246277154 L 494.62890308580705 317.14975607768963"/><path fill="none" stroke="#840000" stroke-linecap="round" stroke-width="2.439" d="M 466.6810455364196 317.14575575246 L 521.48078128728 317.14575575246"/><path fill="none" stroke="#840000" stroke-linecap="round" stroke-width="2.439" d="M 473.53101707881984 326.5263232782728 L 514.6308097448798 326.5263232782728"/><path fill="none" stroke="#840000" stroke-linecap="round" stroke-width="2.439" d="M 487.23094796750655 335.90689080408555 L 500.9308788561933 335.90689080408555"/><text x="492.002" y="350.192" fill="#0F0F0F" dominant-baseline="hanging" font-family="sans-serif" font-size="21.953" text-anchor="middle">GND</text><rect width="54.8" height="58.96" x="813.051" y="337.928" fill="transparent" class="component-overlay"/><path fill="none" stroke="#840000" stroke-linecap="round" stroke-width="2.439" d="M 840.998526632351 337.9278599885715 L 840.998526632351 378.1303236034896"/><path fill="none" stroke="#840000" stroke-linecap="round" stroke-width="2.439" d="M 813.0506690829636 378.12632327826 L 867.850404833824 378.12632327826"/><path fill="none" stroke="#840000" stroke-linecap="round" stroke-width="2.439" d="M 819.9006406253637 387.5068908040728 L 861.0004332914237 387.5068908040728"/><path fill="none" stroke="#840000" stroke-linecap="round" stroke-width="2.439" d="M 833.6005715140506 396.88745832988553 L 847.3005024027373 396.88745832988553"/><text x="838.372" y="411.173" fill="#0F0F0F" dominant-baseline="hanging" font-family="sans-serif" font-size="21.953" text-anchor="middle">GND</text><rect width="54.8" height="58.96" x="536.199" y="472.085" fill="transparent" class="component-overlay"/><path fill="none" stroke="#840000" stroke-linecap="round" stroke-width="2.439" d="M 564.146750065219 472.08510854533165 L 564.146750065219 512.2875721602496"/><path fill="none" stroke="#840000" stroke-linecap="round" stroke-width="2.439" d="M 536.1988925158316 512.28357183502 L 590.998628266692 512.28357183502"/><path fill="none" stroke="#840000" stroke-linecap="round" stroke-width="2.439" d="M 543.0488640582317 521.6641393608329 L 584.1486567242918 521.6641393608329"/><path fill="none" stroke="#840000" stroke-linecap="round" stroke-width="2.439" d="M 556.7487949469186 531.0447068866456 L 570.4487258356053 531.0447068866456"/><text x="561.52" y="545.33" fill="#0F0F0F" dominant-baseline="hanging" font-family="sans-serif" font-size="21.953" text-anchor="middle">GND</text><rect width="54.8" height="58.96" x="690.48" y="472.085" fill="transparent" class="component-overlay"/><path fill="none" stroke="#840000" stroke-linecap="round" stroke-width="2.439" d="M 718.427585905493 472.08510854533165 L 718.427585905493 512.2875721602496"/><path fill="none" stroke="#840000" stroke-linecap="round" stroke-width="2.439" d="M 690.4797283561056 512.28357183502 L 745.279464106966 512.28357183502"/><path fill="none" stroke="#840000" stroke-linecap="round" stroke-width="2.439" d="M 697.3296998985057 521.6641393608329 L 738.4294925645657 521.6641393608329"/><path fill="none" stroke="#840000" stroke-linecap="round" stroke-width="2.439" d="M 711.0296307871926 531.0447068866456 L 724.7295616758793 531.0447068866456"/><text x="715.801" y="545.33" fill="#0F0F0F" dominant-baseline="hanging" font-family="sans-serif" font-size="21.953" text-anchor="middle">GND</text><rect width="22.597" height="49.951" x="829.742" y="78.953" fill="transparent" class="component-overlay"/><path fill="none" stroke="#840000" stroke-linecap="round" stroke-width="2.439" d="M 840.8615398854612 78.95254898774132 L 829.7415992398827 102.25574843484512"/><path fill="none" stroke="#840000" stroke-linecap="round" stroke-width="2.439" d="M 841.2185567160974 78.96469631679246 L 852.3384973616754 102.26795674446379"/><path fill="none" stroke="#840000" stroke-linecap="round" stroke-width="2.439" d="M 840.990221079054 79.56744044233102 L 840.9902210790539 128.9031831856313"/><text x="840.445" y="71.805" fill="#0F0F0F" dominant-baseline="ideographic" font-family="sans-serif" font-size="21.953" text-anchor="middle">V3_3</text></svg>