<svg xmlns="http://www.w3.org/2000/svg" width="1200" height="600" data-real-to-screen-transform="matrix(112.1970679166,0,0,-112.1970679166,479.889298893,463.1195771417)" data-software-used-string="@tscircuit/core@0.0.586" style="background-color:#f5f1ed"><style>.boundary{fill:#f5f1ed}.chip,.component{stroke:#840000}.component{fill:none}.chip{fill:#ffffc2}.component-pin{fill:none;stroke:#840000}.trace:hover .trace-crossing-outline{opacity:0}.trace:hover,.trace:hover .trace-junction{filter:invert(1)}.pin-number{fill:#a90000}</style><rect width="1200" height="600" x="0" y="0" class="boundary"/><g data-circuit-json-type="schematic_component" data-schematic-component-id="schematic_component_0"><rect width="44.879" height="112.197" x="457.45" y="407.021" fill="#FFFFC2" stroke="#840000" stroke-width="2.244" class="component chip"/><rect width="44.879" height="112.197" x="457.45" y="407.021" fill="transparent" class="component-overlay"/><text x="457.45" y="392.435" fill="#006464" dominant-baseline="middle" font-family="sans-serif" font-size="20.195" text-anchor="start" transform="rotate(0, 457.44988530968, 392.435424354242)">U1</text><line x1="544.964" x2="502.329" y1="429.46" y2="429.46" stroke-width="2.244" class="component-pin"/><g data-schematic-port-id="source_port_0"><rect width="4.488" height="4.488" x="544.964" y="427.217" opacity="0"/></g><text x="524.768" y="427.217" fill="#A90000" class="pin-number" dominant-baseline="auto" font-size="16.83" text-anchor="middle" style="font-family:sans-serif">1</text><line x1="544.964" x2="502.329" y1="451.9" y2="451.9" stroke-width="2.244" class="component-pin"/><g data-schematic-port-id="source_port_1"><rect width="4.488" height="4.488" x="544.964" y="449.656" opacity="0"/></g><text x="524.768" y="449.656" fill="#A90000" class="pin-number" dominant-baseline="auto" font-size="16.83" text-anchor="middle" style="font-family:sans-serif">2</text><line x1="544.964" x2="502.329" y1="474.339" y2="474.339" stroke-width="2.244" class="component-pin"/><g data-schematic-port-id="source_port_2"><rect width="4.488" height="4.488" x="544.964" y="472.095" opacity="0"/></g><text x="524.768" y="472.095" fill="#A90000" class="pin-number" dominant-baseline="auto" font-size="16.83" text-anchor="middle" style="font-family:sans-serif">3</text><line x1="544.964" x2="502.329" y1="496.779" y2="496.779" stroke-width="2.244" class="component-pin"/><g data-schematic-port-id="source_port_3"><rect width="4.488" height="4.488" x="544.964" y="494.535" opacity="0"/></g><text x="524.768" y="494.535" fill="#A90000" class="pin-number" dominant-baseline="auto" font-size="16.83" text-anchor="middle" style="font-family:sans-serif">4</text></g><g data-circuit-json-type="schematic_component" data-schematic-component-id="schematic_component_1"><rect width="29.685" height="118.742" x="565.953" y="257.913" fill="transparent" class="component-overlay"/><path fill="none" stroke="#840000" stroke-linecap="round" stroke-width="2.244" d="M 580.7960375735397 376.65499650942644 L 580.7960375735397 346.96952602972834"/><path fill="none" stroke="#840000" stroke-linecap="round" stroke-width="2.244" d="M 580.7960375735397 287.5985850703319 L 580.7960375735397 257.91310337092705"/><path fill="none" stroke="#840000" stroke-linecap="round" stroke-width="2.244" d="M 565.9532967238373 317.28406676973697 L 565.9532967238373 287.59859629003887 L 595.6387784232421 287.59859629003887 L 595.6387784232421 346.969548469142 L 565.9532967238373 346.969548469142 L 565.9532967238373 317.28406676973714"/><text x="611.719" y="301.275" fill="#0F0F0F" dominant-baseline="middle" font-family="sans-serif" font-size="20.195" text-anchor="start">R1</text><text x="611.719" y="337.178" fill="#0F0F0F" dominant-baseline="middle" font-family="sans-serif" font-size="20.195" text-anchor="start">22Ω</text></g><g data-circuit-json-type="schematic_component" data-schematic-component-id="schematic_component_2"><rect width="29.685" height="118.742" x="666.931" y="257.913" fill="transparent" class="component-overlay"/><path fill="none" stroke="#840000" stroke-linecap="round" stroke-width="2.244" d="M 681.7733986984797 376.65499650942644 L 681.7733986984797 346.96952602972834"/><path fill="none" stroke="#840000" stroke-linecap="round" stroke-width="2.244" d="M 681.7733986984797 287.5985850703319 L 681.7733986984797 257.91310337092705"/><path fill="none" stroke="#840000" stroke-linecap="round" stroke-width="2.244" d="M 666.9306578487773 317.28406676973697 L 666.9306578487773 287.59859629003887 L 696.6161395481821 287.59859629003887 L 696.6161395481821 346.969548469142 L 666.9306578487773 346.969548469142 L 666.9306578487773 317.28406676973714"/><text x="712.697" y="301.275" fill="#0F0F0F" dominant-baseline="middle" font-family="sans-serif" font-size="20.195" text-anchor="start">R2</text><text x="712.697" y="337.178" fill="#0F0F0F" dominant-baseline="middle" font-family="sans-serif" font-size="20.195" text-anchor="start">22Ω</text></g><g data-circuit-json-type="schematic_component" data-schematic-component-id="schematic_component_3"><rect width="99.216" height="53.756" x="581.773" y="165.889" fill="transparent" class="component-overlay"/><path fill="none" stroke="#840000" stroke-linecap="round" stroke-width="2.244" d="M 656.054795801308 205.14519216245185 L 680.9892029021302 205.14519216245185"/><path fill="none" stroke="#840000" stroke-linecap="round" stroke-width="2.244" d="M 581.7732347661197 205.33757647480854 L 606.6466739802361 205.33757647480854"/><path fill="none" stroke="#840000" stroke-linecap="round" stroke-width="2.244" d="M 631.6479954123636 190.82389840559867 L 631.6479954123636 165.8894913047765"/><path fill="none" stroke="#840000" stroke-linecap="round" stroke-width="2.244" d="M 617.8712052458164 219.4098937182481 L 617.8712052458164 191.13773604397502"/><path fill="none" stroke="#840000" stroke-linecap="round" stroke-width="2.244" d="M 626.5209259997787 218.92667216643804 L 626.5209259997787 191.60400461882278"/><path fill="none" stroke="#840000" stroke-linecap="round" stroke-width="2.244" d="M 636.5655368006144 218.95789661043918 L 636.5655368006144 191.66802426577587"/><path fill="none" stroke="#840000" stroke-linecap="round" stroke-width="2.244" d="M 626.7395083274938 219.00849748806968 L 636.4762728133798 219.00849748806968"/><path fill="none" stroke="#840000" stroke-linecap="round" stroke-width="2.244" d="M 626.7612969980833 191.56733861702756 L 636.4359604068773 191.56733861702756"/><path fill="none" stroke="#840000" stroke-linecap="round" stroke-width="2.244" d="M 644.9320721551552 219.42069829588843 L 644.9320721551552 191.1485406216154"/><path fill="none" stroke="#840000" stroke-linecap="round" stroke-width="2.244" d="M 645.4533172932821 190.77143505664083 L 645.4533172932821 190.77143505664083 L 647.2065922878796 191.71690317729815 L 648.783813998843 192.6970400996908 L 650.1908906464774 193.70825684655736 L 651.4337304510881 194.74696444063645 L 652.51824163298 195.80957390466665 L 653.4503324124586 196.8924962613866 L 654.2359110098288 197.9921425335349 L 654.880885645396 199.10492374385012 L 655.3911645394652 200.2272509150709 L 655.7726559123417 201.35553506993585 L 656.0312679843306 202.48618723118358 L 656.1729089757371 203.61561842155265 L 656.2034871068664 204.74023966378172 L 656.1289105980236 205.85646198060937 L 655.955087669514 206.9606963947742 L 655.6879265416426 208.04935392901484 L 655.3333354347147 209.1188456060699 L 654.8972225690355 210.16558244867795 L 654.3854961649101 211.18597547957762 L 653.8040644426437 212.17643572150752 L 653.1588356225415 213.13337419720625 L 652.4557179249085 214.05320192941244 L 651.7006195700502 214.93232994086463 L 650.8994487782714 215.7671692543015 L 650.0581137698777 216.55413089246164 L 649.1825227651739 217.28962587808363 L 648.2785839844653 217.97006523390607 L 647.3522056480572 218.59185998266761 L 646.4092959762546 219.15142114710682 L 645.4557631893628 219.64515974996232 L 645.4557631893628 219.64515974996232"/><path fill="none" stroke="#840000" stroke-linecap="round" stroke-width="2.244" d="M 617.3583300089562 190.75720846842904 L 617.3583300089562 190.75720846842904 L 615.6050550143585 191.70267658908637 L 614.0278333033953 192.68281351147903 L 612.6207566557608 193.69403025834558 L 611.3779168511502 194.73273785242466 L 610.2934056692582 195.7953473164549 L 609.3613148897797 196.87826967317483 L 608.5757362924094 197.9779159453231 L 607.9307616568423 199.09069715563834 L 607.420482762773 200.21302432685914 L 607.0389913898965 201.34130848172407 L 606.7803793179077 202.4719606429718 L 606.6387383265011 203.60139183334087 L 606.6081601953719 204.72601307556994 L 606.6827367042146 205.84223539239758 L 606.8565596327243 206.94646980656242 L 607.1237207605956 208.03512734080306 L 607.4783118675235 209.1046190178581 L 607.9144247332027 210.15135586046617 L 608.4261511373281 211.17174889136584 L 609.0075828595945 212.16220913329576 L 609.6528116796968 213.1191476089945 L 610.3559293773297 214.03897534120065 L 611.1110277321881 214.91810335265288 L 611.9121985239668 215.75294266608972 L 612.7535335323606 216.53990430424986 L 613.6291245370644 217.27539928987184 L 614.5330633177729 217.95583864569429 L 615.4594416541811 218.57763339445583 L 616.4023513259837 219.13719455889503 L 617.3558841128755 219.63093316175053 L 617.3558841128755 219.63093316175053"/><text x="633.671" y="225.299" fill="#0F0F0F" dominant-baseline="hanging" font-family="sans-serif" font-size="20.195" text-anchor="middle">JP1</text></g><g class="trace" data-circuit-json-type="schematic_trace" data-schematic-trace-id="schematic_trace_0"><path fill="none" stroke="#009600" stroke-linecap="round" stroke-linejoin="round" stroke-width="17.952" d="M 547.20753964296 474.33928393336004 L 549.451481001292 474.33928393336004 L 549.451481001292 496.77869751668004 L 547.20753964296 496.77869751668004" class="trace-invisible-hover-outline" opacity="0"/><path fill="none" stroke="#009600" stroke-linecap="round" stroke-linejoin="round" stroke-width="2.244" d="M 547.20753964296 474.33928393336004 L 549.451481001292 474.33928393336004 L 549.451481001292 496.77869751668004 L 547.20753964296 496.77869751668004"/></g><g class="trace" data-circuit-json-type="schematic_trace" data-schematic-trace-id="schematic_trace_1"><path fill="none" stroke="#009600" stroke-linecap="round" stroke-linejoin="round" stroke-width="17.952" d="M 547.20753964296 429.46045676672 L 704.2834347262 429.46045676672 L 704.2834347262 429.46045676672003" class="trace-invisible-hover-outline" opacity="0"/><path fill="none" stroke="#009600" stroke-linecap="round" stroke-linejoin="round" stroke-width="2.244" d="M 547.20753964296 429.46045676672 L 704.2834347262 429.46045676672 L 704.2834347262 429.46045676672003"/></g><g class="trace" data-circuit-json-type="schematic_trace" data-schematic-trace-id="schematic_trace_2"><path fill="none" stroke="#009600" stroke-linecap="round" stroke-linejoin="round" stroke-width="17.952" d="M 547.20753964296 451.89987035004003 L 704.2834347262 451.89987035004003 L 704.2834347262 451.89987035004003" class="trace-invisible-hover-outline" opacity="0"/><path fill="none" stroke="#009600" stroke-linecap="round" stroke-linejoin="round" stroke-width="2.244" d="M 547.20753964296 451.89987035004003 L 704.2834347262 451.89987035004003 L 704.2834347262 451.89987035004003"/></g><g class="trace" data-circuit-json-type="schematic_trace" data-schematic-trace-id="schematic_trace_3"><path fill="none" stroke="#009600" stroke-linecap="round" stroke-linejoin="round" stroke-width="17.952" d="M 580.8360021691318 379.11658895981 L 580.8360021691318 429.46045676672 L 547.20753964296 429.46045676672" class="trace-invisible-hover-outline" opacity="0"/><path fill="none" stroke="#009600" stroke-linecap="round" stroke-linejoin="round" stroke-width="2.244" d="M 580.8360021691318 379.11658895981 L 580.8360021691318 429.46045676672 L 547.20753964296 429.46045676672"/><circle cx="580.836" cy="429.46" r="3.366" fill="#009600" class="trace-junction"/></g><g class="trace" data-circuit-json-type="schematic_trace" data-schematic-trace-id="schematic_trace_4"><path fill="none" stroke="#F5F1ED" stroke-linecap="round" stroke-width="3.366" d="M 681.8133632940719 425.2530667198475 Q 675.9230172284504 429.46045676672 681.8133632940719 433.6678468135925" class="trace-crossing-outline"/><path fill="none" stroke="#009600" stroke-linecap="round" stroke-width="2.244" d="M 681.8133632940719 425.2530667198475 Q 675.9230172284504 429.46045676672 681.8133632940719 433.6678468135925"/><path fill="none" stroke="#009600" stroke-linecap="round" stroke-linejoin="round" stroke-width="17.952" d="M 681.8133632940719 379.11658895981 L 681.8133632940719 425.2530667198475M 681.8133632940719 433.6678468135925 L 681.8133632940719 451.89987035004003 L 547.20753964296 451.89987035004003" class="trace-invisible-hover-outline" opacity="0"/><path fill="none" stroke="#009600" stroke-linecap="round" stroke-linejoin="round" stroke-width="2.244" d="M 681.8133632940719 379.11658895981 L 681.8133632940719 425.2530667198475M 681.8133632940719 433.6678468135925 L 681.8133632940719 451.89987035004003 L 547.20753964296 451.89987035004003"/><circle cx="681.813" cy="451.9" r="3.366" fill="#009600" class="trace-junction"/></g><g class="trace" data-circuit-json-type="schematic_trace" data-schematic-trace-id="schematic_trace_5"><path fill="none" stroke="#009600" stroke-linecap="round" stroke-linejoin="round" stroke-width="17.952" d="M 631.7472224992291 165.50574367338135 L 631.35534058041 165.50574367338135 L 631.35534058041 115.30866660023997" class="trace-invisible-hover-outline" opacity="0"/><path fill="none" stroke="#009600" stroke-linecap="round" stroke-linejoin="round" stroke-width="2.244" d="M 631.7472224992291 165.50574367338135 L 631.35534058041 165.50574367338135 L 631.35534058041 115.30866660023997"/></g><g class="trace" data-circuit-json-type="schematic_trace" data-schematic-trace-id="schematic_trace_6"><path fill="none" stroke="#009600" stroke-linecap="round" stroke-linejoin="round" stroke-width="17.952" d="M 681.3728832152847 205.2444080296105 L 681.8746789916881 205.2444080296105 L 681.8746789916881 255.41018874043002" class="trace-invisible-hover-outline" opacity="0"/><path fill="none" stroke="#009600" stroke-linecap="round" stroke-linejoin="round" stroke-width="2.244" d="M 681.3728832152847 205.2444080296105 L 681.8746789916881 205.2444080296105 L 681.8746789916881 255.41018874043002"/></g><g class="trace" data-circuit-json-type="schematic_trace" data-schematic-trace-id="schematic_trace_7"><path fill="none" stroke="#009600" stroke-linecap="round" stroke-linejoin="round" stroke-width="17.952" d="M 581.3377979455354 205.23045071436167 L 580.8973178667482 205.23045071436167 L 580.8973178667482 255.41018874043002" class="trace-invisible-hover-outline" opacity="0"/><path fill="none" stroke="#009600" stroke-linecap="round" stroke-linejoin="round" stroke-width="2.244" d="M 581.3377979455354 205.23045071436167 L 580.8973178667482 205.23045071436167 L 580.8973178667482 255.41018874043002"/></g><g class="schematic-port-hover" data-schematic-port-id="source_port_0"><circle cx="547.208" cy="429.46" r="4.488" fill="red" opacity="0"/></g><g class="schematic-port-hover" data-schematic-port-id="source_port_1"><circle cx="547.208" cy="451.9" r="4.488" fill="red" opacity="0"/></g><g class="schematic-port-hover" data-schematic-port-id="source_port_2"><circle cx="547.208" cy="474.339" r="4.488" fill="red" opacity="0"/></g><g class="schematic-port-hover" data-schematic-port-id="source_port_3"><circle cx="547.208" cy="496.779" r="4.488" fill="red" opacity="0"/></g><g class="schematic-port-hover" data-schematic-port-id="source_port_4"><circle cx="580.836" cy="379.117" r="4.488" fill="red" opacity="0"/></g><g class="schematic-port-hover" data-schematic-port-id="source_port_5"><circle cx="580.897" cy="255.41" r="4.488" fill="red" opacity="0"/></g><g class="schematic-port-hover" data-schematic-port-id="source_port_6"><circle cx="681.813" cy="379.117" r="4.488" fill="red" opacity="0"/></g><g class="schematic-port-hover" data-schematic-port-id="source_port_7"><circle cx="681.875" cy="255.41" r="4.488" fill="red" opacity="0"/></g><g class="schematic-port-hover" data-schematic-port-id="source_port_8"><circle cx="681.373" cy="205.244" r="4.488" fill="red" opacity="0"/></g><g class="schematic-port-hover" data-schematic-port-id="source_port_9"><circle cx="631.747" cy="165.506" r="4.488" fill="red" opacity="0"/></g><g class="schematic-port-hover" data-schematic-port-id="source_port_10"><circle cx="581.338" cy="205.23" r="4.488" fill="red" opacity="0"/></g><path fill="rgba(255, 255, 255, 0.6)" stroke="#840000" stroke-width="2.244" d="M 704.2834347262,429.46045676672003 L 710.3420763936964,417.3431734317272 L 760.5016455569444,417.3431734317272 L 760.5016455569444,441.57774010171283 L 710.3420763936964,441.57774010171283 Z" class="net-label"/><text x="714.381" y="429.46" fill="#840000" class="net-label-text" dominant-baseline="central" font-family="sans-serif" font-size="20.195" font-variant-numeric="tabular-nums" text-anchor="start">SCL</text><path fill="rgba(255, 255, 255, 0.6)" stroke="#840000" stroke-width="2.244" d="M 704.2834347262,451.89987035004003 L 710.3420763936964,439.7825870150472 L 762.7455869152764,439.7825870150472 L 762.7455869152764,464.01715368503284 L 710.3420763936964,464.01715368503284 Z" class="net-label"/><text x="714.381" y="451.9" fill="#840000" class="net-label-text" dominant-baseline="central" font-family="sans-serif" font-size="20.195" font-variant-numeric="tabular-nums" text-anchor="start">SDA</text><rect width="20.788" height="45.952" x="620.878" y="67.68" fill="transparent" class="component-overlay"/><path fill="none" stroke="#840000" stroke-linecap="round" stroke-width="2.244" d="M 631.1074523785553 67.68006881427272 L 620.8777612944843 89.11764111904508"/><path fill="none" stroke="#840000" stroke-linecap="round" stroke-width="2.244" d="M 631.4358868554673 67.69124364223721 L 641.6655779395378 89.12887204554353"/><path fill="none" stroke="#840000" stroke-linecap="round" stroke-width="2.244" d="M 631.2258315049139 68.2457327715879 L 631.2258315049139 113.63171312462455"/><text x="630.724" y="61.105" fill="#0F0F0F" dominant-baseline="ideographic" font-family="sans-serif" font-size="20.195" text-anchor="middle">VCC</text></svg>