<svg xmlns="http://www.w3.org/2000/svg" width="1200" height="600" data-real-to-screen-transform="matrix(136.2231868866,0,0,-136.2231868866,346.0799796434,185.4088388984)" data-software-used-string="@tscircuit/core@0.0.555" style="background-color:#f5f1ed"><style>.boundary{fill:#f5f1ed}.chip,.component{stroke:#840000}.component{fill:none}.chip{fill:#ffffc2}.component-pin{fill:none;stroke:#840000}.trace:hover{filter:invert(1)}.pin-number{fill:#a90000}</style><rect width="1200" height="600" x="0" y="0" class="boundary"/><g data-circuit-json-type="schematic_component" data-schematic-component-id="schematic_component_0"><rect width="54.489" height="81.734" x="318.835" y="144.542" fill="#FFFFC2" stroke="#840000" stroke-width="2.724" class="component chip"/><rect width="54.489" height="81.734" x="318.835" y="144.542" fill="transparent" class="component-overlay"/><text x="318.835" y="126.833" fill="#006464" dominant-baseline="middle" font-family="sans-serif" font-size="24.52" text-anchor="start" transform="rotate(0, 318.83534226608003, 126.832868537162)">U1</text><line x1="425.089" x2="373.325" y1="171.787" y2="171.787" stroke-width="2.724" class="component-pin"/><text x="400.569" y="169.062" fill="#A90000" class="pin-number" dominant-baseline="auto" font-size="20.433" text-anchor="middle" style="font-family:sans-serif">1</text><line x1="425.089" x2="373.325" y1="199.031" y2="199.031" stroke-width="2.724" class="component-pin"/><text x="400.569" y="196.307" fill="#A90000" class="pin-number" dominant-baseline="auto" font-size="20.433" text-anchor="middle" style="font-family:sans-serif">2</text></g><g data-circuit-json-type="schematic_component" data-schematic-component-id="schematic_component_1"><rect width="36.042" height="144.17" x="531.428" y="371.108" fill="transparent" class="component-overlay"/><path fill="none" stroke="#840000" stroke-linecap="round" stroke-width="2.724" d="M 549.4488786058001 515.2773647700526 L 549.4488786058001 479.23498444707934"/><path fill="none" stroke="#840000" stroke-linecap="round" stroke-width="2.724" d="M 549.4488786058001 407.1502238011325 L 549.4488786058001 371.1078298558406"/><path fill="none" stroke="#840000" stroke-linecap="round" stroke-width="2.724" d="M 531.4276816331542 443.1926177464246 L 531.4276816331542 407.15023742345136 L 567.4700755784461 407.15023742345136 L 567.4700755784461 479.2350116917168 L 531.4276816331542 479.2350116917168 L 531.4276816331542 443.1926177464249"/><text x="586.994" y="423.756" fill="#0F0F0F" dominant-baseline="middle" font-family="sans-serif" font-size="24.52" text-anchor="start">R7</text><text x="586.994" y="467.347" fill="#0F0F0F" dominant-baseline="middle" font-family="sans-serif" font-size="24.52" text-anchor="start">1kΩ</text></g><g data-circuit-json-type="schematic_component" data-schematic-component-id="schematic_component_2"><rect width="72.085" height="144.17" x="638.714" y="175.899" fill="transparent" class="component-overlay"/><path fill="none" stroke="#840000" stroke-linecap="round" stroke-width="2.724" d="M 674.7561054391925 175.89897249999285 L 674.7561054391925 237.1710176868157"/><path fill="none" stroke="#840000" stroke-linecap="round" stroke-width="2.724" d="M 674.7561054391925 258.79644860506346 L 674.7561054391925 320.068507414205"/><path fill="none" stroke="#840000" stroke-linecap="round" stroke-width="2.724" d="M 638.7137251162194 237.17101768681576 L 710.7984857621661 237.1710176868157"/><path fill="none" stroke="#840000" stroke-linecap="round" stroke-width="2.724" d="M 638.7137251162194 258.79644860506346 L 710.7984857621661 258.79644860506346"/><text x="705.643" y="219.996" fill="#0F0F0F" dominant-baseline="auto" font-family="sans-serif" font-size="24.52" text-anchor="start">C1</text><text x="705.643" y="274.274" fill="#0F0F0F" dominant-baseline="hanging" font-family="sans-serif" font-size="24.52" text-anchor="start">100mF</text></g><g data-circuit-json-type="schematic_component" data-schematic-component-id="schematic_component_3"><rect width="120.039" height="35.074" x="725.576" y="154.556" fill="transparent" class="component-overlay"/><path fill="none" stroke="#840000" stroke-linecap="round" stroke-width="2.724" d="M 760.9472273050593 172.16117724459352 L 725.5756371989529 172.16117724459352"/><path fill="none" stroke="#840000" stroke-linecap="round" stroke-width="2.724" d="M 845.6151144361829 171.92759534603894 L 810.4331742508601 171.92759534603894"/><path fill="none" stroke="#840000" stroke-linecap="round" stroke-width="2.724" d="M 794.7571275520603 171.9286578868967 L 776.6212851453306 171.9286578868967"/><path fill="none" stroke="#840000" stroke-linecap="round" stroke-width="2.724" d="M 795.0159924741009 154.84180213078713 L 795.0159924741009 189.16821983550602"/><path fill="none" stroke="#840000" stroke-linecap="round" stroke-width="2.724" d="M 776.3519446602184 154.82868383789 L 776.3519446602184 189.15510154260883"/><path fill="none" stroke="#840000" stroke-linecap="round" stroke-width="2.724" d="M 775.7190789785806 189.6129612960535 L 775.7190789785806 189.6129612960535 L 773.590353944249 188.46502861931577 L 771.6753826184931 187.27500308983582 L 769.9669915821343 186.04724223610603 L 768.4580074159934 184.78610358661882 L 767.1412567008919 183.4959446698666 L 766.0095660176509 182.18112301434172 L 765.0557619470915 180.84599614853664 L 764.2726710700349 179.49492160094377 L 763.6531199673025 178.13225690005547 L 763.1899352197152 176.76235957436415 L 762.8759434080944 175.38958715236222 L 762.7039711132612 174.0182971625421 L 762.6668449160368 172.65284713339616 L 762.7573913972425 171.29759459341682 L 762.9684371376993 169.95689707109648 L 763.2928087182286 168.63511209492754 L 763.7233327196514 167.3365971934024 L 764.252835722789 166.06570989501347 L 764.8741443084625 164.82680772825313 L 765.5800850574933 163.62424822161384 L 766.3634845507023 162.46238890358794 L 767.217169368911 161.34558730266784 L 768.1339660929403 160.27820094734597 L 769.1067013036115 159.2645873661147 L 770.128201581746 158.3091040874665 L 771.1912935081647 157.41610863989368 L 772.2888036636889 156.5899585518887 L 773.4135586291397 155.83501135194396 L 774.5583849853385 155.15562456855181 L 775.7161093131064 154.55615573020472 L 775.7161093131064 154.55615573020472"/><path fill="none" stroke="#840000" stroke-linecap="round" stroke-width="2.724" d="M 795.6386959059971 189.63023439615066 L 795.6386959059971 189.63023439615066 L 797.7674209403286 188.48230171941293 L 799.6823922660844 187.29227618993298 L 801.3907833024433 186.0645153362032 L 802.8997674685842 184.80337668671598 L 804.2165181836857 183.51321776996375 L 805.3482088669268 182.1983961144389 L 806.3020129374862 180.86326924863383 L 807.0851038145427 179.51219470104093 L 807.7046549172752 178.14953000015262 L 808.1678396648624 176.7796326744613 L 808.4818314764832 175.4068602524594 L 808.6538037713165 174.03557026263925 L 808.6909299685408 172.67012023349332 L 808.6003834873351 171.314867693514 L 808.3893377468783 169.97417017119363 L 808.064966166349 168.65238519502472 L 807.6344421649262 167.35387029349957 L 807.1049391617886 166.08298299511063 L 806.483630576115 164.84408082835031 L 805.7776898270843 163.641521321711 L 804.9942903338753 162.4796620036851 L 804.1406055156666 161.36286040276502 L 803.2238087916372 160.29547404744315 L 802.251073580966 159.2818604662119 L 801.2295733028316 158.32637718756368 L 800.1664813764129 157.43338173999086 L 799.0689712208888 156.60723165198587 L 797.9442162554378 155.85228445204112 L 796.799389899239 155.172897668649 L 795.6416655714712 154.5734288303019 L 795.6416655714712 154.5734288303019"/><text x="782.817" y="147.659" fill="#0F0F0F" dominant-baseline="auto" font-family="sans-serif" font-size="24.52" text-anchor="middle">JP1</text></g><g data-circuit-json-type="schematic_component" data-schematic-component-id="schematic_component_4"><rect width="62.589" height="143.328" x="504.591" y="173.352" fill="transparent" class="component-overlay"/><path fill="none" stroke="#840000" stroke-linecap="round" stroke-width="2.724" d="M 549.1583477785638 263.4582000017886 L 567.1795447512102 227.41581967881527"/><path fill="none" stroke="#840000" stroke-linecap="round" stroke-width="2.724" d="M 549.188834527789 262.3383364270313 L 549.188834527789 316.6804492728777"/><path fill="none" stroke="#840000" stroke-linecap="round" stroke-width="2.724" d="M 531.1371508059178 227.41581967881527 L 549.1583477785638 263.4582000017886"/><path fill="none" stroke="#840000" stroke-linecap="round" stroke-width="2.724" d="M 567.1795447512102 227.41581967881527 L 531.1371508059178 227.41581967881527"/><path fill="none" stroke="#840000" stroke-linecap="round" stroke-width="2.724" d="M 531.1371508059178 263.4582000017886 L 567.1795447512102 263.4582000017886"/><path fill="none" stroke="#840000" stroke-linecap="round" stroke-width="2.724" d="M 549.1583477785638 227.13740672945642 L 549.1583477785638 173.3522423831959"/><path fill="none" stroke="#840000" stroke-linecap="round" stroke-width="2.724" d="M 509.7695222688533 266.16718878549017 L 507.47018385275675 279.4274671103616 L 520.106628093281 274.754630375228"/><path fill="none" stroke="#840000" stroke-linecap="round" stroke-width="2.724" d="M 526.0542959005745 255.84972634461118 L 524.8374141721162 257.48760583214215 L 512.5152368237391 274.0736642863005 L 512.3858247961969 274.15948489403905"/><path fill="none" stroke="#840000" stroke-linecap="round" stroke-width="2.724" d="M 506.8902272569062 241.9921638345167 L 504.59088884080967 255.2524421593882 L 517.2273330813339 250.5796054242545"/><path fill="none" stroke="#840000" stroke-linecap="round" stroke-width="2.724" d="M 523.1750008886274 231.67470139363772 L 521.9581191601691 233.31258088116877 L 509.635941811792 249.8986393353271 L 509.50652978424984 249.98445994306567"/><text x="575.899" y="219.069" fill="#0F0F0F" dominant-baseline="middle" font-family="sans-serif" font-size="24.52" text-anchor="start">LED1</text></g><g class="trace" data-circuit-json-type="schematic_trace" data-schematic-trace-id="schematic_trace_0"><path fill="none" stroke="#009600" stroke-linecap="round" stroke-linejoin="round" stroke-width="21.796" d="M 427.81389177536005 171.78652020974002 L 488.536283965533 171.78652020974002 L 488.536283965533 171.90711870510935 L 549.258676155706 171.90711870510935" class="trace-invisible-hover-outline" opacity="0"/><path fill="none" stroke="#009600" stroke-linecap="round" stroke-linejoin="round" stroke-width="2.724" d="M 427.81389177536005 171.78652020974002 L 488.536283965533 171.78652020974002 L 488.536283965533 171.90711870510935 L 549.258676155706 171.90711870510935"/></g><g class="trace" data-circuit-json-type="schematic_trace" data-schematic-trace-id="schematic_trace_1"><path fill="none" stroke="#009600" stroke-linecap="round" stroke-linejoin="round" stroke-width="21.796" d="M 427.81389177536005 199.03115758706 L 488.65564654016475 199.03115758706 L 488.65564654016475 518.266087868026 L 549.4974013049695 518.266087868026" class="trace-invisible-hover-outline" opacity="0"/><path fill="none" stroke="#009600" stroke-linecap="round" stroke-linejoin="round" stroke-width="2.724" d="M 427.81389177536005 199.03115758706 L 488.65564654016475 199.03115758706 L 488.65564654016475 518.266087868026 L 549.4974013049695 518.266087868026"/></g><g class="trace" data-circuit-json-type="schematic_trace" data-schematic-trace-id="schematic_trace_2"><path fill="none" stroke="#009600" stroke-linecap="round" stroke-linejoin="round" stroke-width="21.796" d="M 724.8991392305554 172.0407150804297 L 699.8518768732993 172.0407150804297 L 699.8518768732993 172.04773867192836 L 674.804614516043 172.04773867192836" class="trace-invisible-hover-outline" opacity="0"/><path fill="none" stroke="#009600" stroke-linecap="round" stroke-linejoin="round" stroke-width="2.724" d="M 724.8991392305554 172.0407150804297 L 699.8518768732993 172.0407150804297 L 699.8518768732993 172.04773867192836 L 674.804614516043 172.04773867192836"/></g><g class="trace" data-circuit-json-type="schematic_trace" data-schematic-trace-id="schematic_trace_3"><path fill="none" stroke="#009600" stroke-linecap="round" stroke-linejoin="round" stroke-width="21.796" d="M 549.258676155706 171.90711870510935 L 612.0316453358745 171.90711870510935 L 612.0316453358745 172.04773867192836 L 674.804614516043 172.04773867192836" class="trace-invisible-hover-outline" opacity="0"/><path fill="none" stroke="#009600" stroke-linecap="round" stroke-linejoin="round" stroke-width="2.724" d="M 549.258676155706 171.90711870510935 L 612.0316453358745 171.90711870510935 L 612.0316453358745 172.04773867192836 L 674.804614516043 172.04773867192836"/></g><g class="trace" data-circuit-json-type="schematic_trace" data-schematic-trace-id="schematic_trace_4"><path fill="none" stroke="#009600" stroke-linecap="round" stroke-linejoin="round" stroke-width="21.796" d="M 549.3204533709595 317.9953980735753 L 549.4461503237811 317.9953980735753 L 549.4461503237811 368.06893575813694 L 549.5718472766027 368.06893575813694" class="trace-invisible-hover-outline" opacity="0"/><path fill="none" stroke="#009600" stroke-linecap="round" stroke-linejoin="round" stroke-width="2.724" d="M 549.3204533709595 317.9953980735753 L 549.4461503237811 317.9953980735753 L 549.4461503237811 368.06893575813694 L 549.5718472766027 368.06893575813694"/></g><g class="trace" data-circuit-json-type="schematic_trace" data-schematic-trace-id="schematic_trace_5"><path fill="none" stroke="#009600" stroke-linecap="round" stroke-linejoin="round" stroke-width="21.796" d="M 674.804614516043 172.04773867192836 L 674.8418511241783 172.04773867192836 L 674.8418511241783 130.91956414376" class="trace-invisible-hover-outline" opacity="0"/><path fill="none" stroke="#009600" stroke-linecap="round" stroke-linejoin="round" stroke-width="2.724" d="M 674.804614516043 172.04773867192836 L 674.8418511241783 172.04773867192836 L 674.8418511241783 130.91956414376"/></g><g class="trace" data-circuit-json-type="schematic_trace" data-schematic-trace-id="schematic_trace_6"><path fill="none" stroke="#009600" stroke-linecap="round" stroke-linejoin="round" stroke-width="21.796" d="M 846.355950615747 172.0576612448784 L 890.9727271898 172.0576612448784 L 890.9727271898 130.91956414376" class="trace-invisible-hover-outline" opacity="0"/><path fill="none" stroke="#009600" stroke-linecap="round" stroke-linejoin="round" stroke-width="2.724" d="M 846.355950615747 172.0576612448784 L 890.9727271898 172.0576612448784 L 890.9727271898 130.91956414376"/></g><g class="trace" data-circuit-json-type="schematic_trace" data-schematic-trace-id="schematic_trace_7"><path fill="none" stroke="#009600" stroke-linecap="round" stroke-linejoin="round" stroke-width="21.796" d="M 674.8790877323138 322.22271364699236 L 674.8418511241783 322.22271364699236 L 674.8418511241783 384.1078190730407" class="trace-invisible-hover-outline" opacity="0"/><path fill="none" stroke="#009600" stroke-linecap="round" stroke-linejoin="round" stroke-width="2.724" d="M 674.8790877323138 322.22271364699236 L 674.8418511241783 322.22271364699236 L 674.8418511241783 384.1078190730407"/></g><rect width="25.239" height="55.792" x="662.121" y="73.092" fill="transparent" class="component-overlay"/><path fill="none" stroke="#840000" stroke-linecap="round" stroke-width="2.724" d="M 674.5408796150714 73.09167703562838 L 662.1205807051797 99.11993671028193"/><path fill="none" stroke="#840000" stroke-linecap="round" stroke-width="2.724" d="M 674.9396457500442 73.1052448650423 L 687.3599446599353 99.13357265128928"/><path fill="none" stroke="#840000" stroke-linecap="round" stroke-width="2.724" d="M 674.6846086995552 73.77847347695462 L 674.6846086995552 128.88350428095947"/><text x="674.075" y="65.109" fill="#0F0F0F" dominant-baseline="ideographic" font-family="sans-serif" font-size="24.52" text-anchor="middle">V5</text><rect width="25.239" height="55.792" x="878.251" y="73.092" fill="transparent" class="component-overlay"/><path fill="none" stroke="#840000" stroke-linecap="round" stroke-width="2.724" d="M 890.6717556806931 73.09167703562838 L 878.2514567708014 99.11993671028193"/><path fill="none" stroke="#840000" stroke-linecap="round" stroke-width="2.724" d="M 891.0705218156659 73.1052448650423 L 903.490820725557 99.13357265128928"/><path fill="none" stroke="#840000" stroke-linecap="round" stroke-width="2.724" d="M 890.8154847651768 73.77847347695462 L 890.8154847651768 128.88350428095947"/><text x="890.206" y="65.109" fill="#0F0F0F" dominant-baseline="ideographic" font-family="sans-serif" font-size="24.52" text-anchor="middle">VIN</text><rect width="61.208" height="65.854" x="643.478" y="383.96" fill="transparent" class="component-overlay"/><path fill="none" stroke="#840000" stroke-linecap="round" stroke-width="2.724" d="M 674.6938854985821 383.960221250049 L 674.6938854985821 428.86393350231435"/><path fill="none" stroke="#840000" stroke-linecap="round" stroke-width="2.724" d="M 643.4778245754075 428.8594653817845 L 704.6858039974375 428.8594653817845"/><path fill="none" stroke="#840000" stroke-linecap="round" stroke-width="2.724" d="M 651.1288271115308 439.3369900672553 L 697.034801461314 439.3369900672553"/><path fill="none" stroke="#840000" stroke-linecap="round" stroke-width="2.724" d="M 666.4308185614586 449.8145147527259 L 681.7328100113865 449.8145147527259"/><text x="671.76" y="465.77" fill="#0F0F0F" dominant-baseline="hanging" font-family="sans-serif" font-size="24.52" text-anchor="middle">GND</text></svg>